<svg width="500" height="500" viewBox="0 0 500 500" fill="none" xmlns="http://www.w3.org/2000/svg">
<g filter="url(#filter0_d_5560_203489)">
<path d="M372.31 153.999L459.92 153.859C459.92 153.859 455.55 148.199 450.75 147.489C450.75 147.489 441.37 119.699 425.75 119.489C411.21 119.329 405.41 136.619 405.41 136.619C405.41 136.619 398.66 128.879 392.23 132.429C385.8 135.979 382.23 146.139 382.23 146.139C382.23 146.139 374.93 149.999 372.31 153.999Z" fill="#EBEBEB"/>
<path d="M150.87 249.69L40.0801 249.86C40.0801 249.86 40.0801 242.78 55.3301 241.37C55.3301 241.37 69.2201 210.37 90.5001 214.54C103.76 217.11 110.56 235.29 110.56 235.29C110.56 235.29 120.56 220.96 128.56 223.72C136.56 226.48 141.35 241.72 141.35 241.72C141.35 241.72 149.61 245.69 150.87 249.69Z" fill="#EBEBEB"/>
<path d="M383.6 446.739L272.81 446.909C272.81 446.909 272.81 439.829 288.06 438.419C288.06 438.419 301.95 407.419 323.23 411.579C336.49 414.149 343.29 432.329 343.29 432.329C343.29 432.329 353.29 417.999 361.29 420.759C369.29 423.519 374.08 438.759 374.08 438.759C374.08 438.759 382.34 442.739 383.6 446.739Z" fill="#EBEBEB"/>
<path d="M382 77.2699L306.67 77.3799C306.67 77.3799 313.77 70.7499 316.93 70.7499C320.09 70.7499 329.27 48.5199 341.06 49.4399C352.85 50.3599 359.11 66.8999 359.11 66.8999C359.11 66.8999 373.43 62.3899 382 77.2699Z" fill="#EBEBEB"/>
<path d="M145.08 417.869L69.7402 417.999C69.7402 417.999 76.8402 411.379 80.0002 411.369C83.1602 411.359 92.3502 389.139 104.13 390.069C115.91 390.999 122.2 407.529 122.2 407.529C122.2 407.529 136.51 402.999 145.08 417.869Z" fill="#EBEBEB"/>
<path d="M133.6 99.3602L69.1802 99.4602C69.1802 99.4602 72.3802 95.2802 75.9102 94.7502C75.9102 94.7502 82.7402 74.3002 94.2402 74.1302C104.93 73.9802 109.24 86.6802 109.24 86.6802C109.24 86.6802 114.18 80.9802 118.92 83.5802C123.66 86.1802 126.34 93.5802 126.34 93.5802C126.34 93.5802 131.67 96.4902 133.6 99.3602Z" fill="#EBEBEB"/>
<path d="M455.25 382.86L390.83 382.96C390.83 382.96 394.03 378.78 397.56 378.26C397.56 378.26 404.39 357.8 415.89 357.64C426.58 357.48 430.89 370.19 430.89 370.19C430.89 370.19 435.83 364.48 440.57 367.08C445.31 369.68 448 377.14 448 377.14C448 377.14 453.32 380 455.25 382.86Z" fill="#EBEBEB"/>
<path d="M429.06 249.999C429.12 287.827 417.143 324.692 394.86 355.259C376.851 380.048 352.783 399.801 324.958 412.629C297.134 425.457 266.482 430.931 235.937 428.527C205.392 426.124 175.974 415.923 150.499 398.9C125.023 381.877 104.341 358.602 90.4316 331.302C76.5221 304.001 69.8503 273.589 71.0544 242.973C72.2584 212.357 81.298 182.562 97.3085 156.438C113.319 130.314 135.765 108.735 162.499 93.7659C189.233 78.7965 219.36 70.937 250 70.9395C254.913 70.9395 259.777 71.1361 264.59 71.5294C292.331 73.7454 319.164 82.4419 342.93 96.9194C369.232 112.882 390.976 135.355 406.062 162.169C421.149 188.983 429.07 219.233 429.06 249.999Z" fill="#455A64"/>
<g opacity="0.2">
<path d="M288.67 334.51C286.41 340.51 290.17 340.78 290.42 343.29C290.67 345.8 290.42 350.56 283.15 357.84C275.88 365.12 263.84 363.6 261.33 366.61C258.82 369.62 254.56 382.41 248.54 386.68C242.52 390.95 241.54 388.43 232.99 390.19C224.44 391.95 218 403 215.44 408.24C212.88 413.48 215.94 422.29 209.92 422.54C203.9 422.79 201.14 409.75 195.63 402.73C190.12 395.71 188.35 389.43 186.63 381.16C184.91 372.89 187.63 355.58 186.63 348.81C185.63 342.04 167.54 330 161 321.72C154.46 313.44 145.47 296.9 146 291.38C146.76 286.026 149.431 281.128 153.52 277.59C156.52 275.33 155.28 274.08 155.78 272.07C156.28 270.06 158.78 269.56 159.29 267.07C159.8 264.58 157.79 257.07 155.29 255.79C152.79 254.51 151.03 258.79 149.52 258.04C148.01 257.29 143.52 252.04 141.75 251.52C139.98 251 140.49 254.78 137.99 250.02C135.49 245.26 134.22 233.22 132.22 231.21C130.22 229.2 128.71 234.72 123.94 231.21C119.17 227.7 117.17 220.93 115.16 219.93C113.15 218.93 110.4 220.18 108.34 216.16C106.28 212.14 110.15 204.88 108.34 205.63C106.53 206.38 102.63 212.15 101.62 206.63C100.61 201.11 106.62 182.56 105.62 172.53C104.62 162.5 108.12 151.96 115.14 143.44C115.14 143.44 116.14 137.92 117.14 134.44C118.14 130.96 139.71 116.89 142.22 112.87C143.22 111.2 143.61 108.57 143.99 105.74C174.693 83.0946 211.85 70.8969 250 70.9396C254.914 70.9396 259.777 71.1362 264.59 71.5296L265.09 72.1996C267.26 74.9496 269.61 76.7096 275.96 79.0496C282.31 81.3896 283.82 84.3996 282.48 86.9096C281.14 89.4196 278.97 89.9096 276.48 90.0896C273.99 90.2696 271.63 88.9096 268.96 90.5896C266.29 92.2696 263.61 101.29 260.1 101.79C256.59 102.29 250.4 93.7896 249.1 91.2596C247.8 88.7296 252.1 83.3996 250.1 80.8896C248.1 78.3796 244.46 78.8896 238.77 78.3796C233.08 77.8696 219.89 80.0596 220.39 82.2296C220.89 84.3996 239.78 81.8896 240.28 86.2296C240.78 90.5696 226.41 97.9296 223.9 97.2296C221.39 96.5296 218.05 92.2296 214.37 91.7196C210.69 91.2096 207.68 94.2196 205.37 94.5596C203.06 94.8996 200.37 92.0496 196.81 92.7196C193.25 93.3896 192.47 96.3996 190.62 97.5696C188.77 98.7396 184.44 98.7396 183.94 101.41C183.44 104.08 189.46 105.6 190.94 107.27C192.42 108.94 189.1 114.62 190.6 115.79C192.1 116.96 201.47 108.79 203.82 106.79C206.17 104.79 208.16 96.0996 213.18 96.2596C218.2 96.4196 219.87 104.95 221.54 105.79C223.21 106.63 226.89 103.79 232.4 104.95C237.91 106.11 241.76 118.16 242.77 121.84C243.78 125.52 246.11 129.2 244.11 130.7C242.11 132.2 233.11 129.7 231.9 127.36C230.69 125.02 237.9 121.5 237.42 120.67C236.94 119.84 232.74 118.67 230.56 119.97C228.38 121.27 227.39 123.97 225.05 124.68C222.71 125.39 216.52 118.33 214.85 120.34C213.18 122.35 216.52 128.7 218.19 130.2C219.86 131.7 226.05 132.54 226.55 134.2C227.05 135.86 222.37 139.55 216.69 139.2C211.01 138.85 206.32 134.52 204.15 136.36C201.98 138.2 203.15 143.04 201.64 144.72C200.13 146.4 191.94 145.22 187.93 149.56C183.92 153.9 182 160.47 178 164.15C174 167.83 172.15 163.15 166.8 168.33C161.45 173.51 160.61 185.05 160.44 189.06C160.27 193.07 160.44 196.25 159.11 195.75C157.78 195.25 155.93 191.75 155.43 189.56C154.93 187.37 156.6 183.71 156.6 182.37C156.6 181.03 148.91 174.18 144.39 173.51C139.87 172.84 135.86 176.51 132.52 179.19C129.18 181.87 123.16 181.37 120.99 183.54C118.82 185.71 117.14 204.94 118.81 209.46C120.48 213.98 122.66 213.97 128.01 211.63C133.36 209.29 130.35 204.77 133.53 205.78C136.71 206.79 138.37 210.13 138.37 212.78C138.37 215.43 132.02 221.78 132.86 223.65C133.7 225.52 139.21 223.31 141.86 224.15C144.51 224.99 145.86 226.66 145.04 233.51C144.22 240.36 144.71 245.72 148.72 247.97C152.73 250.22 154.99 244.71 156.72 245.47C158.45 246.23 160.99 250.23 163.5 249.98C166.01 249.73 164.75 247.47 169.5 245.98C174.25 244.49 172.5 243.47 173.5 240.46C174.5 237.45 177.5 234.94 180.77 236.46C184.04 237.98 181.77 240.22 182.02 242.73C182.27 245.24 188.02 245.49 192.56 246.99C197.1 248.49 199.56 246.99 208.56 249.99C217.56 252.99 218.09 261.99 221.85 263.53C225.61 265.07 238.15 262.53 247.18 269.05C256.21 275.57 253.7 287.61 258.18 291.12C262.66 294.63 279.5 299.39 286.02 300.65C292.54 301.91 293.54 297.39 298.81 298.65C304.08 299.91 307.08 301.41 308.81 308.65C310.52 315.08 290.92 328.49 288.67 334.51Z" fill="black"/>
<path d="M153.91 206.28C154.08 207.7 158.26 208.28 163.27 211.13C168.28 213.98 170.13 222.33 172.8 222.13C175.47 221.93 174.64 218.13 175.65 217.13C176.66 216.13 178.32 213.95 175.65 211.78C172.98 209.61 170.37 204.92 165.48 204.25C160.59 203.58 159.76 201.58 157.59 201.75C157.032 201.754 156.482 201.881 155.979 202.123C155.476 202.364 155.033 202.714 154.681 203.147C154.329 203.58 154.078 204.086 153.944 204.627C153.811 205.169 153.799 205.734 153.91 206.28Z" fill="black"/>
<path d="M181.5 220.319C180.75 222.369 181.5 223.839 186.85 225.169C192.2 226.499 197.21 223.839 195.54 222.749C193.87 221.659 191.36 222.159 192.37 220.319C193.38 218.479 193.03 215.809 188.68 216.319C184.33 216.829 182.17 218.489 181.5 220.319Z" fill="black"/>
<path d="M200.22 220.889C198.4 221.159 197.38 224.339 199.22 226.339C201.06 228.339 201.06 228.009 203.22 226.339C205.38 224.669 208.74 223.839 207.9 222.169C207.06 220.499 202.06 220.629 200.22 220.889Z" fill="black"/>
<path d="M214.77 227.73C215.59 225.22 219.77 227.73 221.62 230.36C223.47 232.99 222.62 236.88 221.62 239.72C220.62 242.56 219.95 245.9 217.62 244.57C215.29 243.24 217.79 239.22 217.45 236.88C217.11 234.54 214.1 229.78 214.77 227.73Z" fill="black"/>
<path d="M286.83 88.2493C285.95 90.3493 290 91.0893 292.34 92.4293C294.68 93.7693 296.52 94.5993 297.86 92.4293C299.2 90.2593 297.36 87.7393 295.52 87.2393C293.68 86.7393 287.66 86.2393 286.83 88.2493Z" fill="black"/>
<path d="M318.42 107.809C319.97 109.429 322.6 109.139 324.42 111.489C326.24 113.839 325.59 117.839 327.93 119.009C330.27 120.179 331.93 119.009 332.11 117.339C332.29 115.669 328.77 111.489 329.11 110.649C329.45 109.809 333.96 111.819 334.97 114.329C335.98 116.839 333.97 120.329 336.3 121.009C338.63 121.689 338.14 118.669 339.15 118.009C340.16 117.349 342.32 117.669 342.15 115.659C341.98 113.649 339.3 109.309 337.15 107.809C335 106.309 333.3 104.629 329.63 103.809C325.96 102.989 322.44 103.649 320.63 105.149C318.82 106.649 317.47 106.799 318.42 107.809Z" fill="black"/>
<path d="M390.76 139.319C390.657 139.996 390.325 140.617 389.82 141.079C386.3 143.579 382.12 134.889 377.28 133.219C372.44 131.549 370.28 125.359 369.28 126.699C368.28 128.039 368.61 129.879 367.11 132.049C365.61 134.219 363.43 133.719 362.43 137.899C361.43 142.079 367.11 149.769 365.77 152.279C364.43 154.789 362.77 153.949 360.08 153.789C357.39 153.629 357.91 155.959 354.41 154.949C350.91 153.939 353.9 149.599 348.41 144.419C342.92 139.239 341.05 138.239 342.23 135.889C343.41 133.539 341.73 130.209 344.23 129.889C346.73 129.569 348.75 133.229 350.42 134.229C352.09 135.229 354.26 132.229 354.42 129.549C354.58 126.869 348.57 123.199 346.42 121.119C344.27 119.039 344 111.479 344.84 109.999C345.68 108.519 348.19 108.999 348.84 105.319C349.23 103.159 345.84 99.5495 342.92 96.9395C361.269 108.097 377.471 122.451 390.76 139.319Z" fill="black"/>
<path d="M415.73 289.21C416.23 283.86 413.55 283.52 416.23 273.66C418.91 263.8 413.39 253.26 411.38 251.09C409.37 248.92 405.03 249.58 401.52 251.76C398.01 253.94 400.52 255.6 398.17 256.44C395.82 257.28 393.49 255.93 391.32 256.1C389.15 256.27 387.14 261.79 382.46 261.62C377.78 261.45 374.77 254.76 371.26 250C367.75 245.24 360.55 242.23 358.26 236.37C355.97 230.51 360.43 221.5 359.43 214.64C358.43 207.78 353.91 209.29 353.07 205.45C352.23 201.61 353.74 203.45 354.91 199.76C356.08 196.07 353.57 194.08 355.91 187.76C358.25 181.44 362.43 178.23 361.42 175.39C360.41 172.55 357.24 167.87 357.07 164.53C356.9 161.19 360.25 161.35 366.6 156.66C372.95 151.97 374.6 152.32 379.48 153.99C382.961 155.275 386.539 156.278 390.18 156.99C393.02 157.49 396.87 164.85 398.04 164.51C399.21 164.17 399.38 162.01 399.88 158.83C400.199 157.449 400.924 156.196 401.96 155.23C420.83 185.492 430.237 220.698 428.977 256.34C427.718 291.981 415.849 326.435 394.89 355.29C411.91 329.23 415.22 294.55 415.73 289.21Z" fill="black"/>
</g>
<path opacity="0.1" d="M388.72 363.219C369.618 386.63 344.903 404.826 316.876 416.114C288.85 427.401 258.422 431.414 228.427 427.778C198.433 424.142 169.845 412.975 145.327 395.318C120.81 377.66 101.158 354.086 88.2031 326.79C75.248 299.493 69.4103 269.363 71.2336 239.204C73.0569 209.044 82.4818 179.836 98.631 154.3C114.78 128.763 137.128 107.728 163.595 93.1524C190.061 78.5771 219.786 70.9356 250 70.9395C254.913 70.9395 259.78 71.1361 264.6 71.5295C265.93 71.6295 267.26 71.7495 268.6 71.8995C243.288 74.6479 218.963 83.2492 197.55 97.0227C176.136 110.796 158.222 129.364 145.224 151.257C132.226 173.15 124.502 197.767 122.662 223.161C120.821 248.555 124.916 274.029 134.622 297.567C144.327 321.106 159.377 342.062 178.581 358.779C197.785 375.496 220.616 387.515 245.267 393.884C269.918 400.253 295.713 400.798 320.611 395.476C345.509 390.154 368.827 379.11 388.72 363.219Z" fill="black"/>
<path opacity="0.3" d="M429.06 249.999C429.124 287.827 417.146 324.693 394.86 355.259C378.065 378.353 356.014 397.116 330.53 409.999C352.715 397.297 371.961 380.042 387 359.369C408.083 330.348 420.022 295.694 421.288 259.845C422.555 223.997 413.092 188.587 394.11 158.149C390.662 152.612 386.91 147.271 382.87 142.149C369.52 125.178 353.24 110.733 334.8 99.4995C310.89 84.9522 283.9 76.2182 256 73.9995C251.17 73.6095 246.26 73.4095 241.33 73.4095C226.756 73.3999 212.234 75.1526 198.08 78.6294C214.915 73.5289 232.41 70.9377 250 70.9395C254.913 70.9395 259.78 71.1361 264.6 71.5295C309.419 75.1821 351.221 95.5698 381.693 128.638C412.166 161.706 429.076 205.032 429.06 249.999Z" fill="white"/>
<path opacity="0.7" d="M286.33 208.34C314.795 205.755 342.887 200.023 370.09 191.25C370.09 191.25 366.01 188.4 361.49 189.25C361.49 189.25 352.72 171.56 337.81 174.86C323.94 177.86 318.3 191.35 318.31 191.4C318.32 191.45 311.84 186.84 305.62 190.32C299.4 193.8 295.88 201.65 295.88 201.65C295.88 201.65 288.87 205.27 286.33 208.34Z" fill="#DBDBDB"/>
<path d="M166.72 234.929C131.016 226.956 96.6238 213.96 64.5698 196.329C64.5698 196.259 64.5098 191.279 78.1098 197.199C78.1098 197.129 90.4698 180.919 110.11 191.679C122.32 198.329 128.69 213.679 128.68 213.679C128.67 213.679 138.04 206.249 145.61 210.399C153.18 214.549 157.7 226.859 157.7 226.869C157.7 226.879 165.52 231.739 166.72 234.929Z" fill="#EBEBEB"/>
<path d="M437.8 217.279C405.744 234.905 371.352 247.901 335.65 255.879C335.65 255.809 335.65 250.879 350.17 246.109C350.17 246.039 363.45 220.109 383.17 216.059C395.45 213.469 401.59 224.059 401.6 224.129C401.61 224.199 410.75 209.729 417.94 208.299C425.13 206.869 429.35 215.859 429.35 215.879C429.35 215.899 436.71 214.999 437.8 217.279Z" fill="#EBEBEB"/>
<path d="M264.64 137.73C240.189 138.573 215.714 137.103 191.54 133.34C191.54 133.34 198.4 129.51 201.45 129.89C204.5 130.27 213.45 115.07 224.87 116.54C236.29 118.01 242.4 130.18 242.4 130.21C242.4 130.24 256.33 127.14 264.64 137.73Z" fill="#EBEBEB"/>
<path d="M229.76 418C205.277 416.635 180.978 412.952 157.19 407C157.19 407 163.95 403.79 166.98 404.44C170.01 405.09 178.8 390.7 190.16 393.2C201.52 395.7 207.58 408.42 207.58 408.45C207.58 408.48 221.45 406.65 229.76 418Z" fill="#EBEBEB"/>
<path opacity="0.7" d="M156.22 323.691C135.691 318.503 115.623 311.636 96.2197 303.161C98.0808 302.097 100.281 301.796 102.36 302.321C102.36 302.321 108.62 289.971 119.29 293.751C129.22 297.211 133.29 307.751 133.29 307.751C134.705 306.986 136.304 306.629 137.91 306.717C139.516 306.805 141.067 307.336 142.39 308.251C146.85 311.481 149.39 317.641 149.39 317.641C149.39 317.641 154.38 321.131 156.22 323.691Z" fill="#DBDBDB"/>
<path opacity="0.7" d="M301 391.859C329.406 388.18 357.317 381.361 384.22 371.529C384.22 371.529 380.22 368.839 375.7 369.829C375.7 369.829 367.02 352.479 352.22 356.359C338.44 359.879 332.83 373.599 332.84 373.649C332.85 373.699 326.41 369.339 320.22 373.059C314.03 376.779 310.52 384.759 310.52 384.759C310.52 384.759 303.51 388.679 301 391.859Z" fill="#DBDBDB"/>
<path d="M411.1 298.371C410.84 295.781 409.1 293.211 405.93 293.211C402.76 293.211 401.02 295.781 400.76 298.371C400.36 302.371 403.06 305.981 405.93 309.281C408.8 306.001 411.5 302.361 411.1 298.371ZM405.93 301.241C405.371 301.241 404.823 301.075 404.358 300.764C403.893 300.453 403.53 300.011 403.316 299.494C403.101 298.977 403.045 298.408 403.155 297.859C403.264 297.31 403.533 296.806 403.929 296.41C404.325 296.014 404.829 295.745 405.378 295.635C405.927 295.526 406.496 295.582 407.013 295.796C407.53 296.011 407.972 296.373 408.283 296.839C408.594 297.304 408.76 297.851 408.76 298.411C408.758 299.161 408.459 299.879 407.928 300.409C407.398 300.939 406.68 301.238 405.93 301.241Z" fill="#F7C600"/>
<path d="M242.57 370C242.23 366.53 239.84 363.08 235.64 363.08C231.44 363.08 229.06 366.53 228.72 370C228.19 375.35 231.8 380.19 235.64 384.61C239.5 380.17 243.1 375.33 242.57 370ZM235.64 373.84C234.891 373.838 234.159 373.614 233.538 373.197C232.916 372.779 232.431 372.186 232.146 371.494C231.861 370.801 231.787 370.039 231.934 369.305C232.082 368.57 232.444 367.896 232.974 367.367C233.504 366.838 234.18 366.478 234.915 366.332C235.65 366.187 236.411 366.262 237.103 366.55C237.795 366.837 238.386 367.322 238.802 367.946C239.218 368.569 239.44 369.301 239.44 370.05C239.435 371.054 239.032 372.014 238.32 372.721C237.607 373.427 236.644 373.823 235.64 373.82V373.84Z" fill="#F7C600"/>
<path d="M382.45 166.762C382.11 163.302 379.72 159.852 375.52 159.852C371.32 159.852 368.94 163.302 368.6 166.762C368.07 172.112 371.68 176.962 375.52 181.382C379.38 177.002 383 172.112 382.45 166.762ZM375.52 170.612C374.768 170.612 374.033 170.388 373.408 169.97C372.783 169.552 372.296 168.958 372.009 168.263C371.721 167.568 371.647 166.804 371.794 166.067C371.941 165.329 372.304 164.652 372.837 164.121C373.369 163.59 374.047 163.229 374.785 163.083C375.523 162.938 376.287 163.015 376.981 163.304C377.676 163.593 378.268 164.081 378.685 164.708C379.101 165.334 379.322 166.07 379.32 166.822C379.32 167.32 379.222 167.814 379.031 168.274C378.84 168.735 378.56 169.153 378.207 169.505C377.854 169.857 377.435 170.136 376.974 170.326C376.513 170.516 376.019 170.613 375.52 170.612Z" fill="#F7C600"/>
<path d="M283.93 309.91C283.67 307.32 281.93 304.74 278.76 304.74C275.59 304.74 273.84 307.32 273.59 309.91C273.19 313.91 275.88 317.52 278.76 320.82C281.63 317.52 284.33 313.9 283.93 309.91ZM278.76 312.78C278.197 312.782 277.647 312.617 277.178 312.306C276.71 311.994 276.344 311.551 276.128 311.032C275.912 310.512 275.855 309.94 275.964 309.389C276.073 308.837 276.344 308.33 276.742 307.932C277.14 307.534 277.647 307.264 278.198 307.154C278.75 307.045 279.322 307.102 279.841 307.318C280.361 307.535 280.804 307.9 281.115 308.369C281.427 308.837 281.592 309.388 281.59 309.95C281.587 310.7 281.288 311.418 280.758 311.948C280.228 312.479 279.51 312.778 278.76 312.78Z" fill="#F7C600"/>
<path d="M176.92 259.092C176.66 256.502 174.92 253.932 171.75 253.932C168.58 253.932 166.84 256.502 166.58 259.092C166.18 263.092 168.88 266.702 171.75 270.002C174.62 266.702 177.32 263.082 176.92 259.092ZM171.75 262.002C171.191 262 170.645 261.832 170.181 261.52C169.716 261.208 169.355 260.765 169.143 260.248C168.93 259.73 168.875 259.162 168.986 258.613C169.096 258.065 169.366 257.562 169.762 257.167C170.159 256.772 170.663 256.504 171.212 256.395C171.76 256.287 172.329 256.344 172.845 256.558C173.362 256.773 173.803 257.135 174.114 257.6C174.424 258.066 174.59 258.612 174.59 259.172C174.591 259.545 174.519 259.914 174.376 260.259C174.234 260.603 174.025 260.916 173.761 261.179C173.496 261.442 173.183 261.651 172.838 261.792C172.493 261.933 172.123 262.004 171.75 262.002Z" fill="#F7C600"/>
<path d="M117.79 169.14C117.53 166.55 115.79 163.98 112.62 163.98C109.45 163.98 107.71 166.55 107.45 169.14C107.05 173.14 109.75 176.75 112.62 180.05C115.49 176.75 118.19 173.13 117.79 169.14ZM112.62 172C112.06 172 111.513 171.834 111.048 171.524C110.583 171.213 110.22 170.771 110.006 170.253C109.791 169.736 109.735 169.167 109.845 168.618C109.954 168.069 110.223 167.565 110.619 167.169C111.015 166.774 111.519 166.504 112.068 166.395C112.617 166.286 113.186 166.342 113.703 166.556C114.22 166.77 114.662 167.133 114.973 167.598C115.284 168.064 115.45 168.611 115.45 169.17C115.45 169.542 115.377 169.91 115.235 170.253C115.093 170.597 114.884 170.909 114.621 171.172C114.359 171.434 114.047 171.643 113.703 171.785C113.36 171.927 112.992 172 112.62 172Z" fill="#F7C600"/>
<path d="M188.18 122.211C187.84 118.751 185.45 115.301 181.25 115.301C177.05 115.301 174.67 118.751 174.33 122.211C173.8 127.561 177.41 132.401 181.25 136.821C185.1 132.401 188.71 127.561 188.18 122.211ZM181.25 126.061C180.499 126.061 179.764 125.838 179.139 125.42C178.514 125.003 178.027 124.409 177.74 123.715C177.452 123.021 177.377 122.257 177.523 121.519C177.67 120.782 178.032 120.105 178.563 119.574C179.095 119.042 179.772 118.68 180.509 118.534C181.246 118.387 182.01 118.462 182.704 118.75C183.399 119.038 183.992 119.525 184.41 120.15C184.827 120.775 185.05 121.509 185.05 122.261C185.05 122.76 184.952 123.254 184.761 123.715C184.57 124.176 184.29 124.595 183.937 124.948C183.584 125.301 183.166 125.581 182.704 125.772C182.243 125.962 181.749 126.061 181.25 126.061Z" fill="#F7C600"/>
<g opacity="0.6">
<path d="M243.5 342.24C243.5 342.24 71.2 379.75 54 350.46C46 336.8 83.72 316.51 83.72 316.51C83.72 316.51 58.62 334.39 70.07 341.43C91.42 354.54 209.28 324.77 209.28 324.77L243.5 342.24Z" fill="#EBEBEB"/>
<path d="M141 363.211L166.76 359.441C171.05 358.791 175.34 358.231 179.62 357.541C183.9 356.851 188.18 356.251 192.46 355.541C196.74 354.831 201.01 354.191 205.27 353.441C209.53 352.691 213.78 351.921 218.06 351.221C226.57 349.621 235.06 347.901 243.55 346.061C235.374 349.043 227.025 351.531 218.55 353.511C214.31 354.511 210.05 355.411 205.78 356.231C201.51 357.051 197.22 357.771 192.93 358.501C188.64 359.231 184.33 359.781 180.01 360.311C177.86 360.571 175.7 360.831 173.54 361.061C171.38 361.291 169.21 361.541 167.05 361.721C158.33 362.561 149.65 363.151 141 363.211Z" fill="#EBEBEB"/>
<path d="M75.9299 328.08C75.2663 329.045 74.7663 330.113 74.4499 331.24C74.3157 331.773 74.2485 332.321 74.2499 332.87C74.2718 333.377 74.3978 333.874 74.6199 334.33C75.0877 335.238 75.8391 335.968 76.7599 336.41C77.7104 336.914 78.7174 337.304 79.7599 337.57C81.9928 338.092 84.2691 338.407 86.5599 338.51C88.8699 338.69 91.2199 338.72 93.5599 338.7C95.8999 338.68 98.2599 338.64 100.62 338.55C102.98 338.46 105.34 338.35 107.7 338.25C112.44 338.05 117.19 337.74 121.99 337.72C117.393 338.974 112.72 339.929 108 340.58C106.82 340.77 105.63 340.92 104.44 341.03C103.25 341.14 102.06 341.3 100.86 341.38C98.4699 341.57 96.0599 341.66 93.6499 341.7C88.8299 341.63 83.9299 341.44 79.1499 339.8C77.9318 339.377 76.7776 338.788 75.7199 338.05C74.5719 337.275 73.711 336.143 73.2699 334.83C72.9235 333.527 73.0806 332.142 73.7099 330.95C74.2493 329.854 75.0043 328.878 75.9299 328.08Z" fill="#EBEBEB"/>
<path d="M217.23 192.16C217.23 192.16 389.82 156 393.55 122.29C395.29 106.55 352.55 103.43 352.55 103.43C352.55 103.43 381.31 108.64 375.19 120.6C362 146.4 217.23 192.16 217.23 192.16Z" fill="#EBEBEB"/>
<path d="M319.4 169.43C311.4 172.92 303.27 175.93 295.04 178.73C292.99 179.45 290.92 180.12 288.85 180.78C286.78 181.44 284.71 182.1 282.63 182.78C278.47 184.06 274.28 185.21 270.1 186.4C265.92 187.59 261.68 188.61 257.44 189.58C253.2 190.55 248.94 191.47 244.68 192.31C236.13 193.97 227.488 195.109 218.8 195.72C227.32 193.93 235.8 192.04 244.18 190.02C248.37 188.91 252.59 188.02 256.76 186.82C260.93 185.62 265.13 184.63 269.31 183.51C273.49 182.39 277.67 181.24 281.83 180.06C285.99 178.88 290.17 177.7 294.34 176.55L319.4 169.43Z" fill="#EBEBEB"/>
<path d="M364.41 110.799C365.614 111.204 366.662 111.973 367.41 112.999C367.806 113.546 368.095 114.164 368.26 114.819C368.405 115.475 368.449 116.149 368.39 116.819C368.236 118.145 367.811 119.425 367.14 120.579C366.52 121.707 365.786 122.769 364.95 123.749C361.588 127.451 357.708 130.648 353.43 133.239C351.33 134.549 349.21 135.789 347.04 136.949C345.96 137.529 344.86 138.079 343.76 138.619C342.66 139.159 341.56 139.719 340.43 140.199C335.979 142.252 331.399 144.016 326.72 145.479C330.89 142.879 335.16 140.549 339.36 138.119C341.46 136.889 343.59 135.739 345.65 134.469C347.71 133.199 349.81 132.019 351.82 130.709C353.83 129.399 355.82 128.109 357.82 126.709C359.742 125.334 361.563 123.823 363.27 122.189C364.087 121.375 364.839 120.499 365.52 119.569C366.202 118.675 366.701 117.655 366.99 116.569C367.122 116.043 367.179 115.501 367.16 114.959C367.108 114.409 366.966 113.872 366.74 113.369C366.212 112.316 365.407 111.427 364.41 110.799Z" fill="#EBEBEB"/>
</g>
<path d="M269.87 350.46C268.57 348.96 250.46 336.31 249.1 335.36L252.19 334.83C252.19 334.83 268.75 348.9 269.87 350.46Z" fill="#F7C600"/>
<path opacity="0.5" d="M269.87 350.46C268.57 348.96 250.46 336.31 249.1 335.36L252.19 334.83C252.19 334.83 268.75 348.9 269.87 350.46Z" fill="white"/>
<path d="M269.93 350.571C269.93 350.571 269.93 350.571 269.93 350.631C269.79 350.951 268.55 351.231 267.16 351.421H267.11C265.83 351.658 264.519 351.685 263.23 351.501C262.84 351.231 249.77 344.691 241.77 340.691L241.45 340.541H241.39L240.26 339.971L236.96 338.331L235.68 337.691L249.13 335.391C249.9 335.921 256.01 340.191 261.42 344.081L261.98 344.481C262.48 344.841 262.98 345.201 263.46 345.541C265.692 347.074 267.841 348.723 269.9 350.481C269.9 350.481 269.9 350.531 269.9 350.551L269.93 350.571Z" fill="#F7C600"/>
<g opacity="0.1">
<path d="M269.93 350.57C269.93 350.57 269.93 350.57 269.93 350.63C269.79 350.95 268.55 351.23 267.16 351.42H267.11C265.83 351.657 264.519 351.684 263.23 351.5C262.83 351.23 249.42 344.5 241.45 340.5C242.76 341.14 259.96 349.41 263.45 345.5C265.682 347.033 267.831 348.682 269.89 350.44C269.89 350.44 269.89 350.49 269.89 350.51L269.93 350.57Z" fill="black"/>
</g>
<path d="M447.1 365.33C447.1 367.13 437.19 367.71 435.84 367.33C434.49 366.95 326.49 324.45 326.49 324.45L366.18 308.74L367.33 309.53L367.83 309.88C375.15 314.94 397 330.09 416.08 343.42L417.21 344.21L418.71 345.21C431.94 354.51 443.41 362.58 447.1 365.33Z" fill="#F7C600"/>
<path d="M447.1 365.33C437.44 358.12 374.43 314.46 366.18 308.75L371.18 306.75C371.18 306.75 444.58 362.58 446.8 364.8C446.965 364.932 447.072 365.121 447.1 365.33Z" fill="#F7C600"/>
<path opacity="0.5" d="M447.1 365.33C437.44 358.12 374.43 314.46 366.18 308.75L371.18 306.75C371.18 306.75 444.58 362.58 446.8 364.8C446.965 364.932 447.072 365.121 447.1 365.33Z" fill="white"/>
<g opacity="0.5">
<path opacity="0.1" d="M447.1 365.33C447.1 367.13 437.19 367.71 435.84 367.33C434.49 366.95 326.49 324.45 326.49 324.45L366.18 308.74C366.18 308.74 356.37 319.96 379.66 337.23C395.53 349 412.43 351.44 418.66 345.23C431.94 354.51 443.41 362.58 447.1 365.33Z" fill="black"/>
</g>
<path d="M357.15 338.389C354.08 339.879 350.75 341.039 350.5 337.959C350.41 336.699 351.39 335.349 356.32 332.959C357.47 332.399 360.32 331.159 361.13 333.719C361.94 336.279 358.3 337.819 357.15 338.389Z" fill="#F7C600"/>
<path opacity="0.1" d="M357.15 338.389C354.08 339.879 350.75 341.039 350.5 337.959C350.41 336.699 351.39 335.349 356.32 332.959C357.47 332.399 360.32 331.159 361.13 333.719C361.94 336.279 358.3 337.819 357.15 338.389Z" fill="black"/>
<path d="M382.18 348.629C379.11 350.119 375.77 351.289 375.53 348.209C375.43 346.939 376.41 345.589 381.35 343.209C382.5 342.649 385.35 341.419 386.16 343.979C386.97 346.539 383.33 348.069 382.18 348.629Z" fill="#F7C600"/>
<path opacity="0.1" d="M382.18 348.629C379.11 350.119 375.77 351.289 375.53 348.209C375.43 346.939 376.41 345.589 381.35 343.209C382.5 342.649 385.35 341.419 386.16 343.979C386.97 346.539 383.33 348.069 382.18 348.629Z" fill="black"/>
<path d="M407.2 358.87C404.14 360.36 400.8 361.53 400.56 358.45C400.46 357.19 401.44 355.84 406.37 353.45C407.53 352.9 410.37 351.66 411.19 354.22C412.01 356.78 408.36 358.31 407.2 358.87Z" fill="#F7C600"/>
<path opacity="0.1" d="M407.2 358.87C404.14 360.36 400.8 361.53 400.56 358.45C400.46 357.19 401.44 355.84 406.37 353.45C407.53 352.9 410.37 351.66 411.19 354.22C412.01 356.78 408.36 358.31 407.2 358.87Z" fill="black"/>
<path d="M399 331.999C396 337.369 389.14 339.299 384.81 340.999C373.3 345.599 364.96 348.179 360.81 337.729C360.318 336.521 360.007 335.247 359.89 333.949C359.21 326.069 367.38 322.129 371.52 319.949C376.52 317.309 380.06 315.609 382.7 314.499C387 312.679 388.92 312.499 390.89 312.389C393.22 312.309 398.47 312.899 400.2 322.539C400.948 325.734 400.522 329.091 399 331.999Z" fill="#F7C600"/>
<path d="M399.16 324.47C399.16 330.34 395.49 335.1 390.96 335.1C386.43 335.1 382.76 330.34 382.76 324.47C382.76 318.6 386.43 313.84 390.96 313.84C395.49 313.84 399.16 318.6 399.16 324.47Z" fill="#263238"/>
<path d="M398.2 324.47C398.2 329.66 394.96 333.86 390.96 333.86C386.96 333.86 383.71 329.66 383.71 324.47C383.71 319.28 386.96 315.07 390.96 315.07C394.96 315.07 398.2 319.28 398.2 324.47Z" fill="#455A64"/>
<path d="M227.3 321.65L225.4 322.35L221.12 323.9L206.32 317.51C192 311.36 175 304.12 171.75 303L172.16 303.12L172.54 303.24L173.04 303.4L173.32 303.5L174.45 303.86L175.61 304.24L178.86 305.31L179.98 305.68L180.98 306.03L181.55 306.22L183.32 306.81L184.49 307.2L199.72 312.32L201.16 312.81L206.83 314.72L216.61 318.03L217.99 318.5C219.57 319.03 220.99 319.5 222.25 319.94L223.34 320.31L223.84 320.48L224.1 320.56C226.14 321.27 227.3 321.65 227.3 321.65Z" fill="#F7C600"/>
<path opacity="0.5" d="M227.3 321.65L225.4 322.35L221.12 323.9L206.32 317.51C192 311.36 175 304.12 171.75 303L172.16 303.12L172.54 303.24L173.04 303.4L173.32 303.5L174.45 303.86L175.61 304.24L178.86 305.31L179.98 305.68L180.98 306.03L181.55 306.22L183.32 306.81L184.49 307.2L199.72 312.32L201.16 312.81L206.83 314.72L216.61 318.03L217.99 318.5C219.57 319.03 220.99 319.5 222.25 319.94L223.34 320.31L223.84 320.48L224.1 320.56C226.14 321.27 227.3 321.65 227.3 321.65Z" fill="white"/>
<path d="M221.12 323.9L209.66 328.08C209.66 328.08 184.06 316.2 168.79 308.75L168.63 308.68L168.42 308.58L164 306.42C160.05 304.42 157.55 303.1 157.65 302.92C158.07 302.07 167.57 301.86 171.37 302.92H171.48L171.72 303C174.88 304.07 190.83 310.85 204.84 316.87L205.16 317L206.29 317.49L221.12 323.9Z" fill="#F7C600"/>
<g opacity="0.1">
<path d="M221.12 323.9L209.66 328.08C209.66 328.08 184.06 316.2 168.79 308.75C171.32 309.83 197.23 321.24 203.61 319.65C204.203 319.545 204.761 319.294 205.234 318.921C205.707 318.547 206.08 318.063 206.32 317.51L221.12 323.9Z" fill="black"/>
</g>
<path d="M250.61 307.559L222.8 320.939C222.8 320.939 223.08 297.089 223.3 279.939C223.3 279.349 223.3 278.769 223.3 278.199C223.3 277.629 223.3 277.259 223.3 276.799C223.37 270.929 223.44 266.199 223.47 264.049C223.57 257.149 224.31 255.749 226.14 256.869C227.97 257.989 236.09 265.059 238.53 268.209C240.53 270.789 244.97 286.449 247.86 297.209C247.86 297.309 247.86 297.389 247.92 297.479C248.09 298.109 248.26 298.719 248.41 299.299C249.74 304.139 250.61 307.559 250.61 307.559Z" fill="#F7C600"/>
<g opacity="0.1">
<path d="M250.61 307.559L222.8 320.939C222.8 320.939 223.08 297.089 223.3 279.939C227.39 289.079 235.48 301.559 248.45 299.299C249.74 304.139 250.61 307.559 250.61 307.559Z" fill="black"/>
</g>
<path d="M203.37 335.519C200.51 328.359 212.66 321.859 226.46 315.669C240.26 309.479 376.28 249.489 396 244.139C415.72 238.789 438.68 246.139 442.56 257.369C448.38 274.269 423.85 288.429 335.74 324.959C324.19 329.749 272.55 342.149 243.51 342.239C212.45 342.339 204.78 338.999 203.37 335.519Z" fill="#F7C600"/>
<path opacity="0.5" d="M203.37 335.519C200.51 328.359 212.66 321.859 226.46 315.669C240.26 309.479 376.28 249.489 396 244.139C415.72 238.789 438.68 246.139 442.56 257.369C448.38 274.269 423.85 288.429 335.74 324.959C324.19 329.749 272.55 342.149 243.51 342.239C212.45 342.339 204.78 338.999 203.37 335.519Z" fill="white"/>
<path opacity="0.1" d="M335.73 324.999C324.18 329.789 272.54 342.179 243.5 342.279C212.45 342.379 204.78 339.079 203.37 335.559C201.87 331.819 204.48 328.249 209.29 324.809C209.258 325.534 209.384 326.258 209.66 326.929C210.95 330.129 217.91 333.119 246.08 333.029C272.43 332.939 310.33 311.599 320.8 307.259C400.75 274.069 432 271.309 426.69 255.999C424.39 249.319 414.69 244.169 403.26 242.759C420.98 240.639 439.14 247.489 442.55 257.389C448.37 274.269 423.84 288.429 335.73 324.999Z" fill="black"/>
<path d="M246.49 311.921L249.61 310.561V315.161L246.49 316.511V311.921Z" fill="#455A64"/>
<path d="M252.19 309.45L255.53 308V312.6L252.19 314.04V309.45Z" fill="#455A64"/>
<path d="M258.1 306.889L261.44 305.439V310.039L258.1 311.479V306.889Z" fill="#455A64"/>
<path d="M264.02 304.329L267.35 302.879V307.479L264.02 308.919V304.329Z" fill="#455A64"/>
<path d="M269.93 301.77L273.27 300.32V304.92L269.93 306.36V301.77Z" fill="#455A64"/>
<path d="M275.85 299.21L279.18 297.76V302.36L275.85 303.81V299.21Z" fill="#455A64"/>
<path d="M281.76 296.649L285.1 295.199V299.799L281.76 301.249V296.649Z" fill="#455A64"/>
<path d="M287.67 294.091L291.01 292.641V297.241L287.67 298.691V294.091Z" fill="#455A64"/>
<path d="M293.59 291.53L296.92 290.08V294.68L293.59 296.13V291.53Z" fill="#455A64"/>
<path d="M299.5 288.97L302.84 287.52V292.12L299.5 293.56V288.97Z" fill="#455A64"/>
<path d="M305.42 286.409L308.75 284.959V289.559L305.42 290.999V286.409Z" fill="#455A64"/>
<path d="M311.33 283.85L314.67 282.4V287L311.33 288.44V283.85Z" fill="#455A64"/>
<path d="M317.24 281.29L320.58 279.85V284.44L317.24 285.88V281.29Z" fill="#455A64"/>
<path d="M323.16 278.729L326.49 277.289V281.879L323.16 283.319V278.729Z" fill="#455A64"/>
<path d="M329.07 276.17L332.41 274.73V279.32L329.07 280.76V276.17Z" fill="#455A64"/>
<path d="M334.98 273.61L338.32 272.17V276.76L334.98 278.21V273.61Z" fill="#455A64"/>
<path d="M340.9 271.049L344.24 269.609V274.199L340.9 275.649V271.049Z" fill="#455A64"/>
<path d="M346.81 268.489L350.15 267.049V271.639L346.81 273.089V268.489Z" fill="#455A64"/>
<path d="M352.73 265.93L356.06 264.49V269.08L352.73 270.53V265.93Z" fill="#455A64"/>
<path d="M358.64 263.37L361.98 261.93V266.52L358.64 267.97V263.37Z" fill="#455A64"/>
<path d="M364.55 260.809L367.89 259.369V263.959L364.55 265.409V260.809Z" fill="#455A64"/>
<path d="M373.81 256.811V261.401L370.47 262.851V258.251L373.81 256.811Z" fill="#455A64"/>
<path d="M379.72 254.25V258.84L376.38 260.29V255.69L379.72 254.25Z" fill="#455A64"/>
<path d="M385.63 251.689V256.279L382.3 257.729V253.129L385.63 251.689Z" fill="#455A64"/>
<path d="M391.55 249.129V253.719L388.21 255.169V250.569L391.55 249.129Z" fill="#455A64"/>
<path d="M407 247.249C408.836 245.853 410.95 244.867 413.2 244.359V247.359C411.22 247.339 409.18 247.289 407 247.249Z" fill="#455A64"/>
<path d="M420.47 243.629V247.849C418.91 247.709 417.36 247.619 415.79 247.539V243.849C417.339 243.626 418.907 243.552 420.47 243.629Z" fill="#455A64"/>
<path d="M435.34 249.59C434.03 249.59 432.83 249.33 431.63 249.19C430.43 249.05 429.26 248.83 428.09 248.72C426.39 248.46 424.71 248.28 423.09 248.12V243.9C425.125 244.177 427.115 244.718 429.01 245.51C430.185 245.99 431.317 246.572 432.39 247.25C432.937 247.577 433.458 247.945 433.95 248.35C434.4 248.75 434.89 249.15 435.34 249.59Z" fill="#455A64"/>
<path d="M329.07 287.001L289.87 305.861C289.87 305.861 227.57 272.461 182.87 248.061L182.77 248.001C158.91 235.001 140.69 224.841 140.99 224.451C141.74 223.451 153.74 223.561 158.49 224.211C158.949 224.255 159.404 224.335 159.85 224.451C161.85 225.001 232.36 251.111 281.72 269.451L329.07 287.001Z" fill="#F7C600"/>
<g opacity="0.1">
<path d="M329.07 287.001L289.87 305.861C289.87 305.861 227.57 272.461 182.87 248.061C186.37 249.821 266.52 290.211 276.99 284.151C280.94 281.861 281.99 275.951 281.7 269.421L329.07 287.001Z" fill="black"/>
</g>
<path d="M334.79 284.449L323.15 290.049C293.37 277.569 169.5 228.599 159.15 224.489L158.83 224.359L158.57 224.279H158.48C158.939 224.324 159.394 224.404 159.84 224.519C162.92 225.339 334.79 284.449 334.79 284.449Z" fill="#F7C600"/>
<path opacity="0.5" d="M334.79 284.449L323.15 290.049C293.37 277.569 169.5 228.599 159.15 224.489L158.83 224.359L158.57 224.279H158.48C158.939 224.324 159.394 224.404 159.84 224.519C162.92 225.339 334.79 284.449 334.79 284.449Z" fill="white"/>
<path d="M250.84 285.36C247.01 287.22 242.84 288.68 242.54 284.83C242.42 283.25 243.64 281.56 249.81 278.6C251.25 277.9 254.81 276.35 255.81 279.6C256.81 282.85 252.29 284.66 250.84 285.36Z" fill="#F7C600"/>
<path opacity="0.1" d="M250.84 285.36C247.01 287.22 242.84 288.68 242.54 284.83C242.42 283.25 243.64 281.56 249.81 278.6C251.25 277.9 254.81 276.35 255.81 279.6C256.81 282.85 252.29 284.66 250.84 285.36Z" fill="black"/>
<path d="M217.67 268.6C213.84 270.46 209.67 271.92 209.37 268.07C209.25 266.49 210.47 264.81 216.64 261.84C218.08 261.14 221.64 259.6 222.64 262.84C223.64 266.08 219.12 267.9 217.67 268.6Z" fill="#F7C600"/>
<path opacity="0.1" d="M217.67 268.6C213.84 270.46 209.67 271.92 209.37 268.07C209.25 266.49 210.47 264.81 216.64 261.84C218.08 261.14 221.64 259.6 222.64 262.84C223.64 266.08 219.12 267.9 217.67 268.6Z" fill="black"/>
<path d="M184.4 251.64C180.83 253.38 176.94 254.74 176.66 251.15C176.55 249.68 177.66 248.15 183.43 245.35C184.78 244.7 188.07 243.26 189.03 246.24C189.99 249.22 185.74 251 184.4 251.64Z" fill="#F7C600"/>
<path opacity="0.1" d="M184.4 251.64C180.83 253.38 176.94 254.74 176.66 251.15C176.55 249.68 177.66 248.15 183.43 245.35C184.78 244.7 188.07 243.26 189.03 246.24C189.99 249.22 185.74 251 184.4 251.64Z" fill="black"/>
<path d="M300.33 281.559C297.33 286.929 290.47 288.859 286.14 290.559C274.63 295.159 266.29 297.749 262.14 287.289C261.648 286.082 261.338 284.808 261.22 283.509C260.54 275.629 268.71 271.689 272.85 269.509C277.85 266.879 281.39 265.169 284.03 264.059C288.33 262.249 290.25 262.059 292.22 261.949C294.55 261.869 299.8 262.459 301.53 272.099C302.278 275.295 301.852 278.652 300.33 281.559Z" fill="#F7C600"/>
<path d="M292.27 284.699C296.799 284.699 300.47 279.94 300.47 274.069C300.47 268.199 296.799 263.439 292.27 263.439C287.741 263.439 284.07 268.199 284.07 274.069C284.07 279.94 287.741 284.699 292.27 284.699Z" fill="#263238"/>
<path d="M299.51 274.07C299.51 279.26 296.27 283.46 292.27 283.46C288.27 283.46 285.02 279.26 285.02 274.07C285.02 268.88 288.27 264.68 292.27 264.68C296.27 264.68 299.51 268.88 299.51 274.07Z" fill="#455A64"/>
</g>
<defs>
<filter id="filter0_d_5560_203489" x="-4" y="0" width="508" height="508" filterUnits="userSpaceOnUse" color-interpolation-filters="sRGB">
<feFlood flood-opacity="0" result="BackgroundImageFix"/>
<feColorMatrix in="SourceAlpha" type="matrix" values="0 0 0 0 0 0 0 0 0 0 0 0 0 0 0 0 0 0 127 0" result="hardAlpha"/>
<feOffset dy="4"/>
<feGaussianBlur stdDeviation="2"/>
<feComposite in2="hardAlpha" operator="out"/>
<feColorMatrix type="matrix" values="0 0 0 0 0 0 0 0 0 0 0 0 0 0 0 0 0 0 0.25 0"/>
<feBlend mode="normal" in2="BackgroundImageFix" result="effect1_dropShadow_5560_203489"/>
<feBlend mode="normal" in="SourceGraphic" in2="effect1_dropShadow_5560_203489" result="shape"/>
</filter>
</defs>
</svg>
