<svg width="500" height="500" viewBox="0 0 500 500" fill="none" xmlns="http://www.w3.org/2000/svg">
<g filter="url(#filter0_d_5560_203480)">
<path d="M90.7201 374.39C174.51 418.16 310.35 418.16 394.13 374.39C477.91 330.62 477.92 259.65 394.13 215.88C310.34 172.11 174.5 172.11 90.7201 215.88C6.9401 259.65 6.9301 330.62 90.7201 374.39Z" fill="#FAFAFA"/>
<path d="M291.83 315.131C272.12 326.501 272.12 344.951 291.83 356.331C311.54 367.711 343.48 367.711 363.19 356.331C382.9 344.951 382.89 326.501 363.19 315.131C343.49 303.761 311.53 303.751 291.83 315.131Z" fill="#EBEBEB"/>
<path d="M84.3101 152.029L137.11 135.609L96.4901 163.749L84.3101 152.029Z" fill="#F7C600"/>
<path d="M137.11 135.61L80.2401 144.99L68.0601 133.26L137.11 135.61Z" fill="#F7C600"/>
<path d="M80.2397 144.989V159.059L84.3097 152.029L137.11 135.609L80.2397 144.989Z" fill="#455A64"/>
<path d="M80.2397 159.059L88.3698 155.939L84.3097 152.029L80.2397 159.059Z" fill="#F7C600"/>
<path d="M84.3101 152.029L88.3701 155.939L87.0701 156.429L84.3101 152.029Z" fill="#455A64"/>
<path d="M71.4901 156.939C71.3219 156.942 71.1576 156.889 71.0235 156.787C70.8894 156.686 70.7933 156.542 70.7506 156.38C70.708 156.217 70.7212 156.045 70.7882 155.89C70.8552 155.736 70.9721 155.609 71.1201 155.529C72.0201 155.029 72.9301 154.529 73.8301 154.139C73.9193 154.091 74.0175 154.061 74.1185 154.052C74.2195 154.043 74.3214 154.054 74.4179 154.085C74.5145 154.117 74.6037 154.167 74.6801 154.234C74.7566 154.301 74.8187 154.382 74.8627 154.473C74.9067 154.565 74.9317 154.664 74.9362 154.766C74.9407 154.867 74.9246 154.968 74.8888 155.063C74.853 155.158 74.7984 155.245 74.7281 155.318C74.6579 155.391 74.5735 155.45 74.4801 155.489C73.6101 155.909 72.7201 156.359 71.8501 156.849C71.7388 156.907 71.6155 156.938 71.4901 156.939Z" fill="#E0E0E0"/>
<path d="M62.2599 237.699C62.1066 237.7 61.9566 237.655 61.8299 237.569C60.2035 236.422 58.6628 235.159 57.2199 233.789C57.1284 233.729 57.051 233.651 56.9931 233.558C56.9351 233.466 56.8979 233.362 56.8842 233.254C56.8705 233.146 56.8805 233.036 56.9135 232.932C56.9466 232.828 57.0019 232.733 57.0756 232.653C57.1493 232.572 57.2396 232.509 57.3402 232.467C57.4409 232.425 57.5495 232.406 57.6584 232.41C57.7673 232.415 57.874 232.443 57.971 232.493C58.0679 232.542 58.1529 232.613 58.2199 232.699C59.6116 234.02 61.099 235.237 62.6699 236.339C62.7993 236.431 62.896 236.563 62.9458 236.714C62.9957 236.865 62.9961 237.028 62.9471 237.18C62.8981 237.331 62.8022 237.463 62.6733 237.556C62.5443 237.65 62.3891 237.7 62.2299 237.699H62.2599ZM54.4199 230.419C54.3092 230.42 54.1996 230.396 54.0992 230.35C53.9988 230.303 53.9102 230.234 53.8399 230.149C52.5798 228.611 51.4334 226.983 50.4099 225.279C50.3064 225.108 50.2752 224.903 50.323 224.708C50.3708 224.514 50.4938 224.347 50.6649 224.244C50.8359 224.14 51.0411 224.109 51.2352 224.157C51.4293 224.205 51.5964 224.328 51.6999 224.499C52.6859 226.142 53.7887 227.713 54.9999 229.199C55.1248 229.352 55.1844 229.548 55.1656 229.744C55.1469 229.941 55.0514 230.122 54.8999 230.249C54.7659 230.362 54.5952 230.422 54.4199 230.419ZM48.7899 221.319C48.6446 221.32 48.5021 221.279 48.3796 221.201C48.2571 221.123 48.1599 221.011 48.0999 220.879C47.2827 219.068 46.5813 217.208 45.9999 215.309C45.9572 215.124 45.9861 214.93 46.0808 214.766C46.1754 214.601 46.3288 214.479 46.5101 214.423C46.6913 214.367 46.887 214.382 47.0576 214.465C47.2283 214.548 47.3613 214.692 47.4299 214.869C47.9827 216.706 48.6507 218.506 49.4299 220.259C49.4718 220.349 49.4955 220.446 49.4995 220.545C49.5036 220.644 49.4879 220.743 49.4535 220.836C49.4191 220.929 49.3666 221.014 49.299 221.087C49.2315 221.159 49.1502 221.218 49.0599 221.259C48.9748 221.296 48.883 221.317 48.7899 221.319ZM45.5399 211.109C45.3664 211.107 45.1989 211.045 45.0658 210.934C44.9327 210.823 44.8423 210.669 44.8099 210.499C44.4281 208.556 44.1577 206.593 43.9999 204.619C43.984 204.42 44.0477 204.223 44.1771 204.071C44.3065 203.919 44.491 203.825 44.6899 203.809C44.8888 203.793 45.0859 203.857 45.2378 203.986C45.3897 204.115 45.484 204.3 45.4999 204.499C45.647 206.416 45.9074 208.322 46.2799 210.209C46.3002 210.305 46.301 210.405 46.2822 210.502C46.2634 210.599 46.2253 210.691 46.1704 210.773C46.1154 210.855 46.0445 210.925 45.962 210.979C45.8795 211.034 45.787 211.071 45.6899 211.089L45.5399 211.109ZM44.5899 200.429C44.491 200.429 44.3931 200.409 44.302 200.371C44.2109 200.332 44.1284 200.276 44.0594 200.205C43.9904 200.134 43.9364 200.05 43.9004 199.958C43.8644 199.866 43.8472 199.768 43.8499 199.669C43.8733 197.69 44.0068 195.713 44.2499 193.749C44.251 193.643 44.2744 193.539 44.3185 193.443C44.3625 193.348 44.4263 193.262 44.5056 193.193C44.5849 193.123 44.678 193.071 44.7788 193.04C44.8795 193.009 44.9857 193 45.0904 193.012C45.1951 193.025 45.2959 193.06 45.3863 193.114C45.4766 193.168 45.5545 193.241 45.6149 193.328C45.6752 193.414 45.7167 193.512 45.7365 193.616C45.7563 193.72 45.754 193.826 45.7299 193.929C45.4987 195.84 45.3718 197.763 45.3499 199.689C45.3486 199.787 45.3279 199.884 45.289 199.975C45.2501 200.065 45.1937 200.147 45.1232 200.216C45.0526 200.285 44.9692 200.339 44.8777 200.375C44.7862 200.412 44.6884 200.43 44.5899 200.429ZM45.8099 189.779C45.7536 189.788 45.6961 189.788 45.6399 189.779C45.4466 189.736 45.2783 189.618 45.1715 189.451C45.0647 189.284 45.0282 189.082 45.0699 188.889C45.5081 186.952 46.0692 185.044 46.7499 183.179C46.783 183.081 46.8358 182.992 46.905 182.916C46.9742 182.84 47.0583 182.779 47.1521 182.736C47.2459 182.694 47.3474 182.672 47.4502 182.67C47.553 182.669 47.655 182.689 47.7499 182.729C47.8464 182.763 47.9349 182.817 48.0102 182.886C48.0855 182.955 48.146 183.039 48.188 183.133C48.23 183.226 48.2528 183.327 48.2548 183.43C48.2568 183.532 48.2382 183.634 48.1999 183.729C47.5437 185.533 47.0026 187.376 46.5799 189.249C46.5305 189.411 46.4274 189.552 46.2876 189.648C46.1477 189.745 45.9793 189.791 45.8099 189.779ZM49.3699 179.679C49.2546 179.683 49.1403 179.656 49.0399 179.599C48.9504 179.557 48.8702 179.498 48.8039 179.425C48.7377 179.351 48.6867 179.266 48.6541 179.172C48.6215 179.079 48.6079 178.981 48.614 178.882C48.6201 178.783 48.6459 178.687 48.6899 178.599C49.5627 176.817 50.5446 175.09 51.6299 173.429C51.7392 173.274 51.9031 173.166 52.0886 173.127C52.2741 173.088 52.4675 173.121 52.6299 173.219C52.7884 173.325 52.8998 173.488 52.9408 173.675C52.9817 173.861 52.9492 174.056 52.8499 174.219C51.795 175.823 50.8431 177.493 49.9999 179.219C49.9481 179.346 49.8617 179.457 49.7504 179.538C49.6391 179.62 49.5073 179.668 49.3699 179.679ZM55.1199 170.679C54.9526 170.68 54.79 170.624 54.6599 170.519C54.5819 170.457 54.5169 170.381 54.4686 170.294C54.4203 170.208 54.3897 170.112 54.3786 170.014C54.3674 169.915 54.3759 169.815 54.4036 169.72C54.4313 169.625 54.4776 169.536 54.5399 169.459C55.7895 167.915 57.125 166.443 58.5399 165.049C58.6805 164.908 58.8711 164.829 59.0699 164.829C59.2686 164.829 59.4593 164.908 59.5999 165.049C59.7403 165.189 59.8192 165.38 59.8192 165.579C59.8192 165.777 59.7403 165.968 59.5999 166.109C58.2371 167.468 56.9485 168.9 55.7399 170.399C55.6624 170.484 55.566 170.551 55.4584 170.592C55.3507 170.634 55.2348 170.65 55.1199 170.639V170.679ZM62.6399 162.999C62.5308 162.998 62.4232 162.974 62.3247 162.928C62.2261 162.881 62.1391 162.813 62.0699 162.729C61.9432 162.575 61.8817 162.379 61.8985 162.18C61.9153 161.982 62.0092 161.798 62.1599 161.669C63.6822 160.403 65.2676 159.215 66.9099 158.109C67.0711 158.01 67.2637 157.976 67.4491 158.013C67.6345 158.05 67.7991 158.155 67.9099 158.309C68.0215 158.475 68.0631 158.678 68.0257 158.875C67.9882 159.071 67.8747 159.245 67.7099 159.359C66.1076 160.435 64.5622 161.593 63.0799 162.829C62.9543 162.929 62.8006 162.989 62.6399 162.999Z" fill="#E0E0E0"/>
<path d="M69.14 241.609C69.0327 241.61 68.9266 241.586 68.83 241.539C67.9 241.119 66.98 240.669 66.1 240.189C66.014 240.144 65.9377 240.082 65.8755 240.007C65.8134 239.932 65.7666 239.846 65.7378 239.753C65.709 239.66 65.6988 239.563 65.7077 239.466C65.7167 239.369 65.7447 239.275 65.79 239.189C65.8834 239.017 66.0402 238.888 66.227 238.831C66.4138 238.773 66.6158 238.79 66.79 238.879C67.65 239.339 68.54 239.779 69.44 240.189C69.5943 240.261 69.7197 240.383 69.7954 240.535C69.8711 240.688 69.8927 240.861 69.8566 241.028C69.8206 241.194 69.729 241.343 69.5969 241.451C69.4649 241.558 69.3002 241.617 69.13 241.619L69.14 241.609Z" fill="#E0E0E0"/>
<path d="M411.19 205.32L453.49 178.24L472.12 184.22L411.19 205.32Z" fill="#F7C600"/>
<path d="M411.19 205.319L447.75 174.839L439.62 165.459L411.19 205.319Z" fill="#F7C600"/>
<path d="M447.75 174.84V181.91L411.19 205.32L447.75 174.84Z" fill="#455A64"/>
<path d="M456 171.89C455.818 171.89 455.643 171.822 455.51 171.7C455.362 171.567 455.272 171.382 455.259 171.184C455.246 170.986 455.311 170.791 455.44 170.64C456.742 169.187 457.898 167.609 458.89 165.93C458.99 165.757 459.156 165.632 459.349 165.581C459.542 165.531 459.747 165.559 459.92 165.66C460.092 165.76 460.217 165.926 460.268 166.119C460.319 166.312 460.29 166.517 460.19 166.69C459.142 168.451 457.93 170.108 456.57 171.64C456.498 171.72 456.41 171.783 456.312 171.827C456.213 171.87 456.107 171.891 456 171.89ZM461.72 162.57C461.63 162.584 461.539 162.584 461.45 162.57C461.355 162.534 461.269 162.478 461.196 162.408C461.123 162.337 461.065 162.253 461.026 162.159C460.987 162.066 460.967 161.966 460.967 161.864C460.968 161.763 460.989 161.663 461.03 161.57C461.736 159.748 462.265 157.863 462.61 155.94C462.645 155.743 462.758 155.569 462.922 155.456C463.086 155.343 463.288 155.299 463.485 155.335C463.681 155.37 463.855 155.483 463.968 155.647C464.082 155.811 464.125 156.013 464.09 156.21C463.721 158.225 463.162 160.2 462.42 162.11C462.363 162.248 462.266 162.366 462.141 162.448C462.016 162.53 461.869 162.573 461.72 162.57ZM463.86 151.84C463.762 151.838 463.665 151.818 463.575 151.779C463.485 151.74 463.404 151.683 463.336 151.612C463.268 151.542 463.215 151.458 463.179 151.367C463.144 151.275 463.127 151.178 463.13 151.08C463.13 150.82 463.13 150.56 463.13 150.3C463.125 148.602 462.992 146.907 462.73 145.23C462.701 145.032 462.751 144.832 462.869 144.671C462.986 144.51 463.163 144.402 463.36 144.37C463.557 144.343 463.756 144.394 463.916 144.512C464.077 144.629 464.185 144.804 464.22 145C464.49 146.753 464.627 148.525 464.63 150.3C464.63 150.57 464.63 150.84 464.63 151.11C464.622 151.308 464.537 151.495 464.393 151.631C464.249 151.768 464.058 151.842 463.86 151.84ZM462.35 141C462.189 140.999 462.032 140.946 461.904 140.849C461.776 140.751 461.683 140.615 461.64 140.46C461.066 138.583 460.347 136.755 459.49 134.99C459.446 134.901 459.42 134.805 459.414 134.706C459.408 134.608 459.421 134.509 459.454 134.416C459.486 134.323 459.537 134.237 459.604 134.164C459.67 134.091 459.75 134.031 459.84 133.99C460.019 133.904 460.225 133.892 460.412 133.958C460.599 134.024 460.753 134.161 460.84 134.34C461.734 136.174 462.48 138.076 463.07 140.03C463.099 140.124 463.109 140.222 463.1 140.32C463.09 140.418 463.061 140.513 463.015 140.6C462.968 140.686 462.905 140.763 462.828 140.824C462.752 140.886 462.664 140.932 462.57 140.96C462.5 140.987 462.425 141.001 462.35 141ZM457.71 131.07C457.583 131.071 457.459 131.039 457.348 130.978C457.238 130.916 457.145 130.828 457.08 130.72C456.007 129.074 454.828 127.501 453.55 126.01C453.485 125.935 453.436 125.848 453.405 125.754C453.374 125.661 453.362 125.562 453.369 125.463C453.377 125.365 453.404 125.269 453.448 125.18C453.493 125.092 453.555 125.014 453.63 124.95C453.704 124.885 453.79 124.836 453.883 124.806C453.976 124.775 454.074 124.763 454.171 124.77C454.269 124.778 454.364 124.804 454.452 124.849C454.539 124.894 454.616 124.955 454.68 125.03C456.007 126.573 457.23 128.203 458.34 129.91C458.432 130.074 458.46 130.267 458.42 130.452C458.379 130.636 458.273 130.799 458.12 130.91C458 130.998 457.858 131.05 457.71 131.06V131.07ZM450.71 122.66C450.519 122.659 450.336 122.584 450.2 122.45C448.76 121.102 447.247 119.833 445.67 118.65C445.591 118.591 445.524 118.517 445.474 118.432C445.424 118.347 445.391 118.253 445.377 118.156C445.363 118.058 445.369 117.959 445.393 117.864C445.418 117.768 445.461 117.678 445.52 117.6C445.579 117.521 445.653 117.455 445.738 117.404C445.822 117.354 445.916 117.321 446.014 117.307C446.111 117.293 446.21 117.299 446.306 117.323C446.401 117.348 446.491 117.391 446.57 117.45C448.195 118.665 449.751 119.97 451.23 121.36C451.341 121.463 451.418 121.597 451.452 121.745C451.485 121.893 451.472 122.048 451.416 122.188C451.36 122.329 451.262 122.449 451.136 122.534C451.01 122.618 450.861 122.662 450.71 122.66ZM441.94 116C441.798 115.998 441.659 115.957 441.54 115.88C440.86 115.46 440.15 115.04 439.43 114.63C438.43 114.07 437.43 113.51 436.37 112.98C436.273 112.941 436.185 112.882 436.112 112.808C436.04 112.733 435.983 112.644 435.946 112.547C435.91 112.449 435.894 112.345 435.9 112.241C435.906 112.137 435.934 112.035 435.981 111.942C436.028 111.849 436.095 111.767 436.176 111.702C436.257 111.636 436.35 111.588 436.451 111.56C436.551 111.533 436.657 111.526 436.76 111.542C436.863 111.557 436.962 111.594 437.05 111.65C438.1 112.19 439.15 112.75 440.17 113.33C440.91 113.74 441.63 114.17 442.33 114.61C442.491 114.713 442.607 114.874 442.654 115.06C442.7 115.246 442.674 115.443 442.58 115.61C442.515 115.724 442.422 115.82 442.31 115.888C442.198 115.956 442.071 115.995 441.94 116ZM352.29 115.49C352.158 115.488 352.028 115.452 351.914 115.386C351.8 115.319 351.706 115.224 351.64 115.11C351.545 114.941 351.52 114.742 351.571 114.555C351.621 114.368 351.743 114.208 351.91 114.11C353.65 113.11 355.44 112.11 357.25 111.27C357.427 111.183 357.632 111.17 357.82 111.234C358.007 111.297 358.161 111.433 358.25 111.61C358.333 111.789 358.343 111.994 358.278 112.181C358.212 112.367 358.077 112.521 357.9 112.61C356.12 113.48 354.36 114.41 352.65 115.4C352.538 115.454 352.414 115.478 352.29 115.47V115.49ZM432.19 110.92C432.086 110.92 431.983 110.896 431.89 110.85C430.09 110.06 428.23 109.32 426.37 108.66C426.181 108.592 426.028 108.452 425.942 108.271C425.857 108.09 425.847 107.883 425.915 107.695C425.982 107.506 426.122 107.353 426.303 107.267C426.484 107.182 426.691 107.172 426.88 107.24C428.77 107.92 430.66 108.67 432.5 109.48C432.66 109.548 432.792 109.67 432.872 109.825C432.952 109.979 432.976 110.157 432.939 110.328C432.903 110.498 432.808 110.65 432.671 110.758C432.534 110.867 432.364 110.924 432.19 110.92ZM362.14 110.61C361.992 110.611 361.847 110.567 361.724 110.485C361.601 110.403 361.506 110.286 361.45 110.15C361.409 110.058 361.386 109.959 361.384 109.859C361.382 109.758 361.401 109.658 361.438 109.565C361.475 109.472 361.531 109.387 361.602 109.316C361.672 109.244 361.757 109.188 361.85 109.15C363.7 108.37 365.6 107.65 367.5 107C367.595 106.96 367.698 106.941 367.801 106.943C367.904 106.945 368.006 106.968 368.1 107.011C368.194 107.054 368.278 107.117 368.347 107.194C368.415 107.271 368.468 107.361 368.5 107.46C368.536 107.556 368.553 107.659 368.549 107.762C368.545 107.865 368.52 107.966 368.476 108.059C368.432 108.152 368.37 108.236 368.293 108.305C368.217 108.373 368.127 108.426 368.03 108.46C366.16 109.1 364.28 109.81 362.47 110.57C362.362 110.6 362.25 110.606 362.14 110.59V110.61ZM421.87 107.15C421.8 107.159 421.729 107.159 421.66 107.15C419.77 106.6 417.83 106.15 415.9 105.68C415.803 105.659 415.712 105.619 415.631 105.563C415.549 105.506 415.48 105.434 415.427 105.351C415.373 105.268 415.337 105.175 415.319 105.078C415.302 104.981 415.304 104.881 415.325 104.785C415.346 104.688 415.385 104.597 415.442 104.516C415.498 104.434 415.57 104.365 415.653 104.312C415.736 104.258 415.829 104.222 415.926 104.204C416.023 104.187 416.123 104.189 416.22 104.21C418.22 104.64 420.16 105.15 422.08 105.71C422.253 105.76 422.402 105.872 422.5 106.023C422.598 106.175 422.638 106.357 422.612 106.536C422.587 106.714 422.497 106.878 422.361 106.996C422.225 107.115 422.05 107.18 421.87 107.18V107.15ZM372.52 107C372.356 106.999 372.197 106.945 372.067 106.846C371.937 106.746 371.843 106.607 371.8 106.45C371.772 106.356 371.764 106.257 371.774 106.16C371.785 106.063 371.815 105.969 371.863 105.883C371.91 105.798 371.974 105.722 372.051 105.662C372.127 105.601 372.215 105.556 372.31 105.53C374.24 104.99 376.22 104.53 378.19 104.09C378.289 104.058 378.395 104.047 378.499 104.059C378.603 104.07 378.704 104.103 378.794 104.156C378.885 104.208 378.964 104.279 379.025 104.364C379.087 104.449 379.13 104.546 379.151 104.648C379.173 104.751 379.173 104.857 379.151 104.959C379.13 105.062 379.087 105.159 379.025 105.244C378.964 105.329 378.886 105.4 378.795 105.452C378.704 105.505 378.604 105.538 378.5 105.55C376.56 105.96 374.62 106.44 372.72 106.97L372.52 107ZM411.15 104.74H411C409.05 104.43 407.06 104.18 405.1 104C404.996 103.999 404.894 103.976 404.8 103.934C404.706 103.891 404.622 103.83 404.552 103.753C404.483 103.677 404.43 103.587 404.397 103.489C404.364 103.391 404.352 103.287 404.361 103.185C404.37 103.082 404.4 102.982 404.449 102.891C404.499 102.8 404.566 102.721 404.648 102.657C404.729 102.594 404.823 102.548 404.923 102.523C405.023 102.497 405.128 102.493 405.23 102.51C407.23 102.69 409.23 102.94 411.23 103.26C411.425 103.294 411.599 103.403 411.714 103.564C411.83 103.724 411.879 103.924 411.85 104.12C411.814 104.282 411.727 104.427 411.6 104.534C411.473 104.641 411.315 104.702 411.15 104.71V104.74ZM383.26 104.67C383.082 104.67 382.909 104.606 382.774 104.491C382.638 104.375 382.548 104.215 382.52 104.04C382.491 103.842 382.541 103.642 382.659 103.481C382.776 103.32 382.953 103.212 383.15 103.18C385.15 102.88 387.15 102.63 389.15 102.46C389.248 102.451 389.347 102.462 389.442 102.492C389.536 102.522 389.623 102.57 389.699 102.633C389.775 102.697 389.837 102.775 389.883 102.863C389.928 102.95 389.956 103.046 389.965 103.145C389.973 103.243 389.962 103.342 389.932 103.437C389.903 103.531 389.855 103.618 389.791 103.694C389.727 103.77 389.649 103.832 389.562 103.878C389.474 103.923 389.378 103.951 389.28 103.96C387.28 104.13 385.33 104.36 383.38 104.67H383.26ZM400.21 103.67C398.21 103.6 396.21 103.59 394.26 103.67C394.161 103.675 394.063 103.661 393.97 103.627C393.878 103.593 393.793 103.541 393.721 103.474C393.649 103.407 393.591 103.326 393.552 103.235C393.512 103.145 393.491 103.048 393.49 102.95C393.486 102.851 393.501 102.752 393.536 102.66C393.571 102.567 393.624 102.482 393.692 102.41C393.76 102.339 393.842 102.281 393.932 102.242C394.023 102.202 394.121 102.181 394.22 102.18C396.22 102.11 398.22 102.12 400.22 102.18C400.318 102.182 400.415 102.204 400.505 102.244C400.595 102.284 400.676 102.342 400.744 102.413C400.812 102.485 400.865 102.569 400.9 102.661C400.936 102.753 400.952 102.851 400.95 102.95C400.935 103.137 400.851 103.313 400.714 103.442C400.578 103.571 400.398 103.645 400.21 103.65V103.67Z" fill="#E0E0E0"/>
<path d="M396.44 219.939V218.339H396.05C395.456 217.256 394.555 216.372 393.46 215.799C391.226 214.665 388.756 214.074 386.25 214.074C383.745 214.074 381.274 214.665 379.04 215.799C377.945 216.372 377.044 217.256 376.45 218.339H376.06V219.889C376.06 221.419 377.06 222.959 379.06 224.129C381.296 225.258 383.765 225.846 386.27 225.846C388.775 225.846 391.244 225.258 393.48 224.129C395.46 222.999 396.45 221.459 396.44 219.939Z" fill="#37474F"/>
<path d="M386.25 224.229C391.878 224.229 396.44 221.592 396.44 218.339C396.44 215.086 391.878 212.449 386.25 212.449C380.622 212.449 376.06 215.086 376.06 218.339C376.06 221.592 380.622 224.229 386.25 224.229Z" fill="#455A64"/>
<path d="M383.63 169.299V217.649C383.651 217.878 383.733 218.098 383.866 218.286C384 218.474 384.18 218.623 384.39 218.719C384.965 219.01 385.6 219.161 386.245 219.161C386.889 219.161 387.525 219.01 388.1 218.719C388.312 218.625 388.495 218.477 388.631 218.289C388.766 218.101 388.849 217.88 388.87 217.649V169.299H383.63Z" fill="#37474F"/>
<path d="M398 133.109C395.45 131.639 393.13 131.519 391.39 132.489L359 151.209L375.25 183.799L407.75 164.999V150.739C407.75 144.109 403.38 136.219 398 133.109Z" fill="#455A64"/>
<path d="M375.25 169.529V183.799L355.76 172.539V158.279C355.76 151.649 360.12 148.799 365.5 151.909C368.95 153.909 371.98 157.849 373.71 162.169C374.678 164.505 375.2 167.001 375.25 169.529Z" fill="#37474F"/>
<path d="M375.25 169.53V183.8L355.76 172.54L373.71 162.17C374.678 164.506 375.2 167.002 375.25 169.53Z" fill="#263238"/>
<path d="M372 174.419C370.21 169.239 364.39 162.519 359 159.419C353.61 156.319 350.71 157.989 352.5 163.169L355.75 172.549L375.25 183.809C375.25 183.809 373.8 179.599 372 174.419Z" fill="#455A64"/>
<path d="M385.41 170.07L384.32 169.44C384.086 169.332 383.828 169.289 383.571 169.313C383.315 169.338 383.07 169.43 382.86 169.58C382.258 169.974 381.757 170.504 381.397 171.128C381.037 171.752 380.83 172.451 380.79 173.17C380.763 173.427 380.805 173.687 380.913 173.923C381.02 174.159 381.188 174.361 381.4 174.51L382.4 175.09L382.59 174.78C382.798 174.735 382.997 174.657 383.18 174.55C383.782 174.158 384.284 173.63 384.643 173.007C385.003 172.385 385.211 171.687 385.25 170.97C385.249 170.791 385.226 170.613 385.18 170.44L385.41 170.07Z" fill="#263238"/>
<path d="M383.9 170.19C383.298 170.582 382.797 171.11 382.437 171.732C382.077 172.354 381.869 173.053 381.83 173.77C381.83 175.09 382.76 175.62 383.9 174.96C384.503 174.569 385.005 174.04 385.364 173.418C385.724 172.796 385.932 172.098 385.97 171.38C386 170.06 385 169.53 383.9 170.19Z" fill="#37474F"/>
<path d="M383.9 173.139C383.821 173.139 383.743 173.123 383.67 173.093C383.597 173.063 383.531 173.019 383.476 172.963C383.42 172.907 383.376 172.841 383.345 172.768C383.315 172.695 383.3 172.617 383.3 172.539V151.909C383.3 151.749 383.363 151.597 383.476 151.484C383.588 151.372 383.741 151.309 383.9 151.309C384.059 151.309 384.212 151.372 384.324 151.484C384.437 151.597 384.5 151.749 384.5 151.909V172.539C384.5 172.698 384.437 172.85 384.324 172.963C384.212 173.075 384.059 173.139 383.9 173.139Z" fill="#263238"/>
<path d="M384.44 152.45V157.83L390.21 151.91L384.44 152.45Z" fill="#37474F"/>
<path d="M81.0798 330.911C80.5798 331.181 71.3998 333.781 67.9998 329.291C64.5998 324.801 70.2498 317.801 67.0598 315.221C63.8698 312.641 54.9298 315.221 52.7798 309.801C50.6298 304.381 56.9998 302.041 53.4198 296.571C51.1598 293.121 44.8398 291.221 45.1298 288.011C45.5498 283.321 54.1898 282.011 61.7298 287.081C69.2698 292.151 72.7898 287.991 75.1798 287.651C77.5698 287.311 82.7298 288.061 82.5698 296.461C82.4098 304.861 81.0798 330.911 81.0798 330.911Z" fill="#F7C600"/>
<path d="M81.6899 319.001C81.5706 319 81.4552 318.958 81.3638 318.881C81.2725 318.804 81.2109 318.698 81.1899 318.581C78.5599 302.581 60.0299 289.651 50.3899 286.871C50.3261 286.853 50.2665 286.824 50.2145 286.783C50.1626 286.742 50.1195 286.691 50.0877 286.633C50.0559 286.575 50.0362 286.511 50.0297 286.446C50.0232 286.38 50.0301 286.314 50.0499 286.251C50.087 286.123 50.1732 286.016 50.2895 285.952C50.4057 285.888 50.5426 285.873 50.6699 285.911C60.5199 288.761 79.4799 302.051 82.1799 318.421C82.2001 318.55 82.1685 318.683 82.0918 318.79C82.015 318.896 81.8994 318.969 81.7699 318.991L81.6899 319.001Z" fill="white"/>
<path d="M59.8296 305.61C59.7196 305.611 59.6124 305.576 59.5244 305.51C59.4365 305.444 59.3728 305.35 59.3432 305.244C59.3136 305.139 59.3197 305.026 59.3606 304.924C59.4016 304.822 59.475 304.736 59.5696 304.68C59.8696 304.5 67.0096 300.33 74.0296 302.28C74.1622 302.314 74.2757 302.4 74.3451 302.518C74.4145 302.636 74.4341 302.777 74.3996 302.91C74.3651 303.042 74.2794 303.156 74.1612 303.225C74.0431 303.295 73.9022 303.314 73.7696 303.28C67.1496 301.44 60.1496 305.53 60.0796 305.57C60.0018 305.607 59.915 305.621 59.8296 305.61Z" fill="white"/>
<path d="M342.5 246.42C346.44 246.96 353.15 244.68 353.63 238.12C354.11 231.56 356.82 229.78 361.79 228.71C366.76 227.64 368.22 225.91 368.79 222.79C369.36 219.67 365.58 215.94 366.64 211.24C367.7 206.54 371.24 206.55 374.72 201.24C376.95 197.82 372.38 192.6 364.77 194.84C357.16 197.08 357.77 201.99 350.16 202.62C342.55 203.25 337.78 207.87 337.63 213.62C337.48 219.37 342.5 246.42 342.5 246.42Z" fill="#F7C600"/>
<path opacity="0.2" d="M342.5 246.42C346.44 246.96 353.15 244.68 353.63 238.12C354.11 231.56 356.82 229.78 361.79 228.71C366.76 227.64 368.22 225.91 368.79 222.79C369.36 219.67 365.58 215.94 366.64 211.24C367.7 206.54 371.24 206.55 374.72 201.24C376.95 197.82 372.38 192.6 364.77 194.84C357.16 197.08 357.77 201.99 350.16 202.62C342.55 203.25 337.78 207.87 337.63 213.62C337.48 219.37 342.5 246.42 342.5 246.42Z" fill="black"/>
<path d="M341.06 233.84H341C340.935 233.827 340.874 233.801 340.82 233.765C340.765 233.728 340.719 233.681 340.683 233.626C340.646 233.571 340.621 233.51 340.609 233.445C340.596 233.381 340.597 233.314 340.61 233.25C344.29 215.06 364.36 198.41 369.25 196.71C369.382 196.666 369.527 196.677 369.652 196.74C369.776 196.803 369.871 196.913 369.915 197.045C369.958 197.178 369.948 197.322 369.885 197.447C369.822 197.572 369.712 197.666 369.58 197.71C364.8 199.37 345.19 215.71 341.58 233.5C341.543 233.606 341.472 233.697 341.377 233.758C341.283 233.82 341.172 233.849 341.06 233.84Z" fill="white"/>
<path d="M76.8799 227.39C76.9287 226.489 77.1896 225.611 77.6414 224.829C78.0932 224.047 78.7231 223.383 79.4799 222.89L212.39 146.15C213.195 145.746 214.084 145.535 214.985 145.535C215.886 145.535 216.775 145.746 217.58 146.15L220.51 147.85C221.268 148.341 221.9 149.005 222.352 149.787C222.804 150.57 223.063 151.448 223.11 152.35V254.23C223.059 255.132 222.797 256.008 222.345 256.79C221.894 257.571 221.265 258.236 220.51 258.73L87.5999 335.46C86.7943 335.87 85.9035 336.083 84.9999 336.083C84.0963 336.083 83.2055 335.87 82.3999 335.46L79.4799 333.77C78.7242 333.277 78.0951 332.612 77.6435 331.83C77.1919 331.049 76.9303 330.172 76.8799 329.27V227.39Z" fill="#F7C600"/>
<path opacity="0.3" d="M76.8799 227.39C76.9287 226.489 77.1896 225.611 77.6414 224.829C78.0932 224.047 78.7231 223.383 79.4799 222.89L212.39 146.15C213.195 145.746 214.084 145.535 214.985 145.535C215.886 145.535 216.775 145.746 217.58 146.15L220.51 147.85C221.268 148.341 221.9 149.005 222.352 149.787C222.804 150.57 223.063 151.448 223.11 152.35V254.23C223.059 255.132 222.797 256.008 222.345 256.79C221.894 257.571 221.265 258.236 220.51 258.73L87.5999 335.46C86.7943 335.87 85.9035 336.083 84.9999 336.083C84.0963 336.083 83.2055 335.87 82.3999 335.46L79.4799 333.77C78.7242 333.277 78.0951 332.612 77.6435 331.83C77.1919 331.049 76.9303 330.172 76.8799 329.27V227.39Z" fill="black"/>
<path d="M89.0599 231.43L77.6399 224.83C77.173 225.605 76.9114 226.486 76.8799 227.39V329.27C76.9303 330.171 77.1919 331.048 77.6435 331.83C78.0951 332.612 78.7242 333.276 79.4799 333.77L82.3999 335.46C83.2055 335.869 84.0963 336.083 84.9999 336.083C85.9035 336.083 86.7943 335.869 87.5999 335.46L89.0599 334.62V231.43Z" fill="#F7C600"/>
<path opacity="0.5" d="M89.0599 231.43L77.6399 224.83C77.173 225.605 76.9114 226.486 76.8799 227.39V329.27C76.9303 330.171 77.1919 331.048 77.6435 331.83C78.0951 332.612 78.7242 333.276 79.4799 333.77L82.3999 335.46C83.2055 335.869 84.0963 336.083 84.9999 336.083C85.9035 336.083 86.7943 335.869 87.5999 335.46L89.0599 334.62V231.43Z" fill="black"/>
<path d="M223.11 152.349V254.229C223.076 255.162 222.797 256.069 222.3 256.859C221.916 257.524 221.399 258.103 220.78 258.559L220.68 258.619L220.51 258.729L87.6001 335.459C87.3457 335.639 87.0501 335.751 86.7407 335.786C86.4313 335.821 86.1181 335.777 85.8301 335.659C85.5532 335.485 85.3294 335.238 85.1831 334.945C85.0368 334.652 84.9735 334.325 85.0001 333.999V232.079C84.9774 231.714 85.0436 231.349 85.1929 231.016C85.3422 230.682 85.5702 230.39 85.8573 230.164C86.1444 229.938 86.4821 229.784 86.8413 229.717C87.2006 229.65 87.5707 229.671 87.9201 229.779L143.81 243.069L151.13 244.809C151.994 244.971 152.886 244.893 153.709 244.585C154.532 244.276 155.255 243.749 155.8 243.059L164.28 231.249L221.36 151.779C222.32 150.439 223.11 150.689 223.11 152.349Z" fill="#F7C600"/>
<path opacity="0.2" d="M223.11 152.349V254.229C223.076 255.162 222.797 256.069 222.3 256.859C221.916 257.524 221.399 258.103 220.78 258.559L220.68 258.619L220.51 258.729L87.6001 335.459C87.3457 335.639 87.0501 335.751 86.7407 335.786C86.4313 335.821 86.1181 335.777 85.8301 335.659C85.5532 335.485 85.3294 335.238 85.1831 334.945C85.0368 334.652 84.9735 334.325 85.0001 333.999V232.079C84.9774 231.714 85.0436 231.349 85.1929 231.016C85.3422 230.682 85.5702 230.39 85.8573 230.164C86.1444 229.938 86.4821 229.784 86.8413 229.717C87.2006 229.65 87.5707 229.671 87.9201 229.779L143.81 243.069L151.13 244.809C151.994 244.971 152.886 244.893 153.709 244.585C154.532 244.276 155.255 243.749 155.8 243.059L164.28 231.249L221.36 151.779C222.32 150.439 223.11 150.689 223.11 152.349Z" fill="black"/>
<path d="M220.51 258.73L220.68 258.62L220.78 258.56C221.398 258.104 221.916 257.525 222.3 256.86C222.791 256.082 223.071 255.189 223.11 254.27L164.28 231.27L203.68 268.47L220.51 258.73Z" fill="#F7C600"/>
<path opacity="0.6" d="M220.51 258.73L220.68 258.62L220.78 258.56C221.398 258.104 221.916 257.525 222.3 256.86C222.791 256.082 223.071 255.189 223.11 254.27L164.28 231.27L203.68 268.47L220.51 258.73Z" fill="black"/>
<path d="M85 334C84.9618 334.332 85.0174 334.669 85.1606 334.971C85.3038 335.273 85.5287 335.529 85.81 335.71C86.098 335.828 86.4113 335.872 86.7207 335.837C87.0301 335.802 87.3256 335.69 87.58 335.51L133.36 309L143.81 243L85 332.27V334Z" fill="#F7C600"/>
<path opacity="0.6" d="M85 334C84.9618 334.332 85.0174 334.669 85.1606 334.971C85.3038 335.273 85.5287 335.529 85.81 335.71C86.098 335.828 86.4113 335.872 86.7207 335.837C87.0301 335.802 87.3256 335.69 87.58 335.51L133.36 309L143.81 243L85 332.27V334Z" fill="black"/>
<path d="M222.3 256.859C221.916 257.525 221.399 258.104 220.78 258.56L220.68 258.62L87.6001 335.46C87.3457 335.639 87.0501 335.752 86.7407 335.787C86.4313 335.822 86.1181 335.778 85.8301 335.66L149.48 234.05C150.759 232.014 152.729 230.508 155.028 229.806C157.327 229.105 159.803 229.255 162 230.23L222.3 256.859Z" fill="#F7C600"/>
<path opacity="0.2" d="M222.3 256.859C221.916 257.525 221.399 258.104 220.78 258.56L220.68 258.62L87.6001 335.46C87.3457 335.639 87.0501 335.752 86.7407 335.787C86.4313 335.822 86.1181 335.778 85.8301 335.66L149.48 234.05C150.759 232.014 152.729 230.508 155.028 229.806C157.327 229.105 159.803 229.255 162 230.23L222.3 256.859Z" fill="black"/>
<path d="M85 229.08L146.13 256.08C148.331 257.052 150.808 257.197 153.108 256.49C155.408 255.783 157.375 254.27 158.65 252.23L222.84 149.5L85 229.08Z" fill="#F7C600"/>
<path opacity="0.6" d="M85 229.08L146.13 256.08C148.331 257.052 150.808 257.197 153.108 256.49C155.408 255.783 157.375 254.27 158.65 252.23L222.84 149.5L85 229.08Z" fill="black"/>
<path d="M85 229.08L146.56 252.08C148.687 252.874 151.022 252.921 153.179 252.212C155.336 251.503 157.188 250.081 158.43 248.18L222.84 149.5L85 229.08Z" fill="#F7C600"/>
<path opacity="0.2" d="M85 229.08L146.56 252.08C148.687 252.874 151.022 252.921 153.179 252.212C155.336 251.503 157.188 250.081 158.43 248.18L222.84 149.5L85 229.08Z" fill="black"/>
<path d="M99.5801 239.939C99.6265 239.037 99.8864 238.158 100.338 237.376C100.79 236.594 101.422 235.93 102.18 235.439L235.09 158.699C235.896 158.289 236.786 158.076 237.69 158.076C238.594 158.076 239.484 158.289 240.29 158.699L243.22 160.389C243.975 160.883 244.603 161.547 245.053 162.329C245.503 163.111 245.762 163.988 245.81 164.889V266.769C245.761 267.669 245.501 268.546 245.051 269.327C244.601 270.109 243.974 270.774 243.22 271.269L110.3 347.999C109.495 348.403 108.606 348.614 107.705 348.614C106.804 348.614 105.915 348.403 105.11 347.999L102.18 346.309C101.425 345.814 100.796 345.15 100.345 344.368C99.8932 343.587 99.6313 342.71 99.5801 341.809V239.939Z" fill="#455A64"/>
<path d="M99.5801 239.939C99.6265 239.037 99.8864 238.158 100.338 237.376C100.79 236.594 101.422 235.93 102.18 235.439L235.09 158.699C235.896 158.289 236.786 158.076 237.69 158.076C238.594 158.076 239.484 158.289 240.29 158.699L243.22 160.389C243.975 160.883 244.603 161.547 245.053 162.329C245.503 163.111 245.762 163.988 245.81 164.889V266.769C245.761 267.669 245.501 268.546 245.051 269.327C244.601 270.109 243.974 270.774 243.22 271.269L110.3 347.999C109.495 348.403 108.606 348.614 107.705 348.614C106.804 348.614 105.915 348.403 105.11 347.999L102.18 346.309C101.425 345.814 100.796 345.15 100.345 344.368C99.8932 343.587 99.6313 342.71 99.5801 341.809V239.939Z" fill="#455A64"/>
<path d="M111.77 244L100.34 237.41C99.872 238.184 99.6103 239.066 99.5801 239.97V341.82C99.6313 342.721 99.8932 343.598 100.345 344.379C100.796 345.161 101.425 345.826 102.18 346.32L105.11 348.01C105.915 348.415 106.804 348.625 107.705 348.625C108.606 348.625 109.495 348.415 110.3 348.01L111.77 347.16V244Z" fill="#263238"/>
<path d="M245.82 164.889V266.769C245.786 267.702 245.507 268.609 245.01 269.399C244.626 270.065 244.108 270.644 243.49 271.099L243.39 271.159L243.22 271.269L110.31 347.999C110.056 348.179 109.76 348.291 109.451 348.326C109.141 348.361 108.828 348.318 108.54 348.199C108.259 348.018 108.034 347.762 107.891 347.46C107.747 347.158 107.692 346.822 107.73 346.489V244.619C107.707 244.255 107.774 243.89 107.923 243.556C108.072 243.223 108.3 242.93 108.587 242.704C108.874 242.478 109.212 242.325 109.571 242.258C109.931 242.191 110.301 242.212 110.65 242.319L166.54 255.609L173.86 257.349C174.724 257.511 175.616 257.434 176.439 257.125C177.262 256.817 177.985 256.289 178.53 255.599L187 243.789L244.08 164.319C245 162.999 245.82 163.229 245.82 164.889Z" fill="#37474F"/>
<path d="M243.22 271.27L243.39 271.16L243.49 271.1C244.108 270.645 244.626 270.066 245.01 269.4C245.495 268.624 245.771 267.735 245.81 266.82L186.99 243.82L226.38 281L243.22 271.27Z" fill="#263238"/>
<path d="M107.71 346.5C107.672 346.832 107.727 347.168 107.871 347.471C108.014 347.773 108.239 348.029 108.52 348.21C108.808 348.328 109.121 348.372 109.431 348.337C109.74 348.302 110.036 348.189 110.29 348.01L156.05 321.59L166.5 255.59L107.69 344.79L107.71 346.5Z" fill="#263238"/>
<path d="M245 269.4C244.616 270.066 244.099 270.645 243.48 271.1L243.38 271.16L110.31 348C110.056 348.18 109.76 348.292 109.451 348.327C109.141 348.362 108.828 348.319 108.54 348.2L172.18 246.6C173.456 244.562 175.425 243.051 177.724 242.346C180.024 241.641 182.5 241.788 184.7 242.76L245 269.4Z" fill="#37474F"/>
<path d="M107.71 241.63L168.84 268.63C171.04 269.599 173.515 269.743 175.812 269.036C178.11 268.329 180.076 266.818 181.35 264.78L245.54 162L107.71 241.63Z" fill="#263238"/>
<path d="M107.71 241.63L169.26 264.63C171.389 265.427 173.725 265.475 175.885 264.766C178.044 264.057 179.898 262.633 181.14 260.73L245.54 162L107.71 241.63Z" fill="#37474F"/>
<path d="M197.07 320.81V218.93C197.163 216.997 197.767 215.123 198.82 213.5L262.21 125.23C263.367 123.617 264.977 122.385 266.836 121.691C268.695 120.996 270.719 120.871 272.65 121.33L332.26 135.5C334.181 136.011 336.034 136.75 337.78 137.7L340.71 139.39C341.463 139.886 342.09 140.551 342.54 141.332C342.989 142.114 343.25 142.99 343.3 143.89V245.77C343.248 246.67 342.987 247.545 342.538 248.327C342.088 249.108 341.462 249.773 340.71 250.27L207.79 327C206.985 327.407 206.096 327.619 205.195 327.619C204.293 327.619 203.404 327.407 202.6 327L199.67 325.31C198.914 324.816 198.285 324.152 197.833 323.37C197.382 322.588 197.12 321.711 197.07 320.81Z" fill="#F7C600"/>
<path opacity="0.3" d="M197.07 320.81V218.93C197.163 216.997 197.767 215.123 198.82 213.5L262.21 125.23C263.367 123.617 264.977 122.385 266.836 121.691C268.695 120.996 270.719 120.871 272.65 121.33L332.26 135.5C334.181 136.011 336.034 136.75 337.78 137.7L340.71 139.39C341.463 139.886 342.09 140.551 342.54 141.332C342.989 142.114 343.25 142.99 343.3 143.89V245.77C343.248 246.67 342.987 247.545 342.538 248.327C342.088 249.108 341.462 249.773 340.71 250.27L207.79 327C206.985 327.407 206.096 327.619 205.195 327.619C204.293 327.619 203.404 327.407 202.6 327L199.67 325.31C198.914 324.816 198.285 324.152 197.833 323.37C197.382 322.588 197.12 321.711 197.07 320.81Z" fill="white"/>
<path d="M209.25 169.69V299.69C209.25 301.34 210.42 302.02 211.85 301.19L336.64 229.19C337.397 228.698 338.028 228.034 338.48 227.252C338.931 226.47 339.192 225.592 339.24 224.69V94.6901C339.24 93.0301 338.08 92.3601 336.64 93.1901L211.85 165.19C211.093 165.683 210.463 166.347 210.012 167.129C209.56 167.911 209.299 168.788 209.25 169.69Z" fill="#FAFAFA"/>
<path d="M210.69 302.06C210.368 302.062 210.05 301.979 209.77 301.82C209.428 301.592 209.154 301.275 208.978 300.903C208.802 300.532 208.73 300.119 208.77 299.71V169.71C208.818 168.719 209.101 167.754 209.597 166.894C210.092 166.035 210.786 165.307 211.62 164.77L336.41 92.7697C336.736 92.5044 337.135 92.3445 337.553 92.3112C337.972 92.2779 338.391 92.3728 338.755 92.5834C339.118 92.7939 339.409 93.1101 339.589 93.4899C339.768 93.8697 339.828 94.2952 339.76 94.7097V224.71C339.714 225.699 339.43 226.664 338.935 227.521C338.439 228.379 337.744 229.105 336.91 229.64L212.12 301.64C211.689 301.904 211.196 302.049 210.69 302.06ZM337.8 93.2797C337.477 93.2982 337.164 93.398 336.89 93.5697L212.1 165.62C211.421 166.071 210.855 166.673 210.447 167.379C210.04 168.085 209.801 168.876 209.75 169.69V299.69C209.69 299.924 209.708 300.172 209.802 300.395C209.896 300.618 210.06 300.804 210.27 300.926C210.479 301.047 210.723 301.096 210.963 301.066C211.203 301.036 211.427 300.929 211.6 300.76L336.39 228.76C337.07 228.309 337.636 227.707 338.044 227.001C338.452 226.295 338.69 225.504 338.74 224.69V94.6897C338.768 94.4552 338.736 94.2174 338.647 93.9987C338.558 93.7799 338.414 93.5876 338.23 93.4397C338.104 93.3484 337.955 93.2931 337.8 93.2797Z" fill="#E0E0E0"/>
<path d="M206.56 221.409L197.56 216.209C197.269 217.087 197.107 218.004 197.08 218.929V320.809C197.13 321.71 197.392 322.587 197.844 323.369C198.295 324.151 198.924 324.815 199.68 325.309L202.6 326.999C203.404 327.408 204.293 327.622 205.195 327.622C206.097 327.622 206.986 327.408 207.79 326.999L209.04 326.289L206.56 221.409Z" fill="#F7C600"/>
<g opacity="0.1">
<path d="M206.56 221.409L197.56 216.209C197.269 217.087 197.107 218.004 197.08 218.929V320.809C197.13 321.71 197.392 322.587 197.844 323.369C198.295 324.151 198.924 324.815 199.68 325.309L202.6 326.999C203.404 327.408 204.293 327.622 205.195 327.622C206.097 327.622 206.986 327.408 207.79 326.999L209.04 326.289L206.56 221.409Z" fill="black"/>
</g>
<path d="M343.31 143.889V245.769C343.276 246.702 342.997 247.609 342.5 248.399C342.116 249.065 341.598 249.644 340.98 250.099L340.88 250.159L340.71 250.269L207.8 326.999C207.545 327.179 207.25 327.291 206.94 327.326C206.631 327.361 206.318 327.318 206.03 327.199C205.748 327.018 205.523 326.762 205.38 326.46C205.237 326.158 205.182 325.822 205.22 325.489V223.619C205.197 223.255 205.263 222.89 205.413 222.556C205.562 222.223 205.79 221.93 206.077 221.704C206.364 221.478 206.702 221.325 207.061 221.258C207.42 221.191 207.79 221.212 208.14 221.319L264 234.609L271.32 236.349C272.185 236.513 273.079 236.437 273.904 236.128C274.729 235.82 275.454 235.291 276 234.599L284.48 222.789L341.56 143.319C342.52 141.999 343.31 142.229 343.31 143.889Z" fill="#F7C600"/>
<path opacity="0.3" d="M343.31 143.889V245.769C343.276 246.702 342.997 247.609 342.5 248.399C342.116 249.065 341.598 249.644 340.98 250.099L340.88 250.159L340.71 250.269L207.8 326.999C207.545 327.179 207.25 327.291 206.94 327.326C206.631 327.361 206.318 327.318 206.03 327.199C205.748 327.018 205.523 326.762 205.38 326.46C205.237 326.158 205.182 325.822 205.22 325.489V223.619C205.197 223.255 205.263 222.89 205.413 222.556C205.562 222.223 205.79 221.93 206.077 221.704C206.364 221.478 206.702 221.325 207.061 221.258C207.42 221.191 207.79 221.212 208.14 221.319L264 234.609L271.32 236.349C272.185 236.513 273.079 236.437 273.904 236.128C274.729 235.82 275.454 235.291 276 234.599L284.48 222.789L341.56 143.319C342.52 141.999 343.31 142.229 343.31 143.889Z" fill="white"/>
<path d="M340.71 250.271L340.88 250.161L340.98 250.101C341.598 249.645 342.116 249.066 342.5 248.401C342.986 247.621 343.261 246.728 343.3 245.811L284.48 222.811L323.87 260.001L340.71 250.271Z" fill="#F7C600"/>
<path d="M205.2 325.5C205.161 325.832 205.217 326.168 205.36 326.471C205.503 326.773 205.728 327.029 206.01 327.21C206.298 327.328 206.611 327.372 206.92 327.337C207.23 327.302 207.525 327.189 207.78 327.01L253.54 300.59L263.99 234.59L205.18 323.79L205.2 325.5Z" fill="#F7C600"/>
<path d="M342.5 248.399C342.116 249.064 341.598 249.643 340.98 250.099L340.88 250.159L207.8 326.999C207.545 327.178 207.25 327.291 206.94 327.326C206.631 327.361 206.318 327.317 206.03 327.199L269.67 225.599C270.946 223.562 272.912 222.054 275.209 221.348C277.507 220.643 279.981 220.789 282.18 221.759L342.5 248.399Z" fill="#F7C600"/>
<path opacity="0.3" d="M342.5 248.399C342.116 249.064 341.598 249.643 340.98 250.099L340.88 250.159L207.8 326.999C207.545 327.178 207.25 327.291 206.94 327.326C206.631 327.361 206.318 327.317 206.03 327.199L269.67 225.599C270.946 223.562 272.912 222.054 275.209 221.348C277.507 220.643 279.981 220.789 282.18 221.759L342.5 248.399Z" fill="white"/>
<path d="M264.2 199.63C263.033 199.81 261.84 199.704 260.723 199.321C259.606 198.938 258.6 198.289 257.79 197.43C256.27 195.74 255.51 193.13 255.51 189.62C255.512 185.659 256.361 181.745 258 178.14C259.682 174.43 262.004 171.045 264.86 168.14C267.931 164.955 271.431 162.216 275.26 160C279.013 157.84 282.216 156.643 284.87 156.41C287.54 156.17 289.55 156.86 290.93 158.46C292.31 160.06 292.99 162.51 292.99 165.79C293.048 169.043 292.277 172.257 290.75 175.13C289.404 177.731 287.352 179.901 284.83 181.39C283.959 182.008 282.892 182.286 281.83 182.17C281.452 182.095 281.104 181.913 280.827 181.645C280.55 181.377 280.357 181.035 280.27 180.66C279.437 182.235 278.379 183.68 277.13 184.95C275.866 186.254 274.425 187.375 272.85 188.28C270.13 189.82 267.96 190.28 266.36 189.75C264.76 189.22 264 187.6 264 184.9C264.023 181.507 265.068 178.199 267 175.41C269.103 172.317 271.896 169.756 275.16 167.93C276.523 167.118 278.004 166.524 279.55 166.17C280.699 165.858 281.91 165.858 283.06 166.17V176.7C283.06 177.55 283.21 178.07 283.5 178.27C283.79 178.47 284.27 178.37 284.95 177.98C286.216 177.156 287.154 175.914 287.6 174.47C288.276 172.519 288.598 170.464 288.55 168.4C288.55 165.773 287.976 163.863 286.83 162.67C286.217 162.071 285.469 161.627 284.65 161.377C283.83 161.126 282.963 161.076 282.12 161.23C279.678 161.603 277.34 162.474 275.25 163.79C270.828 166.242 267.017 169.66 264.1 173.79C261.404 177.665 259.972 182.279 260 187C260 189.873 260.59 191.97 261.77 193.29C262.382 193.95 263.147 194.45 263.999 194.743C264.85 195.036 265.761 195.114 266.65 194.97C269.138 194.617 271.524 193.741 273.65 192.4C275.117 191.551 276.506 190.574 277.8 189.48C279.005 188.485 280.101 187.365 281.07 186.14C281.17 186.011 281.288 185.896 281.42 185.8C281.51 185.75 281.6 185.8 281.68 185.92L282.78 187.92C282.82 187.999 282.85 188.083 282.87 188.17C282.835 188.393 282.726 188.597 282.56 188.75C281.351 190.203 280.013 191.541 278.56 192.75C277.03 194.033 275.394 195.184 273.67 196.19C270.797 198.004 267.567 199.177 264.2 199.63ZM277.2 180.83C278.152 179.706 278.707 178.301 278.78 176.83V170.73C277.352 170.85 275.978 171.325 274.78 172.11C272.872 173.183 271.247 174.694 270.04 176.52C268.907 178.194 268.298 180.168 268.29 182.19C268.29 183.88 268.71 184.89 269.56 185.19C270.41 185.49 271.72 185.19 273.51 184.12C274.959 183.281 276.227 182.163 277.24 180.83H277.2Z" fill="#E0E0E0"/>
<path d="M136.84 209.65L127.09 204H127.02C123.69 202.12 119.1 202.4 114.02 205.33C103.81 211.22 95.54 225.55 95.54 237.33C95.54 243.22 97.6 247.33 100.93 249.33L110 254.52L111.64 251.79C113.5 251.373 115.287 250.679 116.94 249.73C127.14 243.83 135.42 229.5 135.42 217.73C135.415 216.139 135.22 214.555 134.84 213.01L136.84 209.65Z" fill="#F28F8F"/>
<path d="M136.84 209.65L127.09 204H127.02C123.69 202.12 119.1 202.4 114.02 205.33C103.81 211.22 95.54 225.55 95.54 237.33C95.54 243.22 97.6 247.33 100.93 249.33L110 254.52L111.64 251.79C113.5 251.373 115.287 250.679 116.94 249.73C127.14 243.83 135.42 229.5 135.42 217.73C135.415 216.139 135.22 214.555 134.84 213.01L136.84 209.65Z" fill="#F7C600"/>
<path opacity="0.4" d="M136.84 209.65L127.09 204H127.02C123.69 202.12 119.1 202.4 114.02 205.33C103.81 211.22 95.54 225.55 95.54 237.33C95.54 243.22 97.6 247.33 100.93 249.33L110 254.52L111.64 251.79C113.5 251.373 115.287 250.679 116.94 249.73C127.14 243.83 135.42 229.5 135.42 217.73C135.415 216.139 135.22 214.555 134.84 213.01L136.84 209.65Z" fill="black"/>
<path d="M123.39 210.7C113.18 216.6 104.91 230.93 104.91 242.7C104.91 254.47 113.18 259.26 123.39 253.37C133.6 247.48 141.87 233.15 141.87 221.37C141.87 209.59 133.6 204.81 123.39 210.7Z" fill="#F7C600"/>
<path d="M116.17 245.521C115.98 245.521 115.88 245.411 115.88 245.241C115.9 245.052 115.954 244.869 116.04 244.701L116.97 242.611C117.031 242.406 117.153 242.225 117.32 242.091C117.458 242.028 117.608 241.994 117.76 241.991C118.592 241.941 119.413 241.776 120.2 241.501C121.246 241.148 122.252 240.686 123.2 240.121C124.675 239.321 125.969 238.225 127 236.901C127.773 235.899 128.204 234.676 128.23 233.411C128.23 231.201 126.88 230.881 124.18 232.411L121.55 234.001C121.12 234.241 120.82 234.331 120.64 234.251C120.46 234.171 120.37 233.931 120.37 233.531V232.701C120.356 232.347 120.45 231.998 120.64 231.701C120.881 231.375 121.192 231.109 121.55 230.921L124.16 229.411C125.206 228.841 126.093 228.02 126.74 227.021C127.282 226.182 127.58 225.209 127.6 224.211C127.6 222.071 126.093 221.871 123.08 223.611C121.227 224.666 119.558 226.018 118.14 227.611C118.007 227.761 117.859 227.898 117.7 228.021C117.641 228.048 117.575 228.056 117.511 228.041C117.448 228.027 117.391 227.991 117.35 227.941L116.46 226.941C116.41 226.894 116.37 226.839 116.343 226.777C116.315 226.715 116.301 226.648 116.3 226.581C116.32 226.351 116.419 226.136 116.58 225.971C117.466 224.863 118.472 223.856 119.58 222.971C120.87 221.919 122.245 220.976 123.69 220.151C124.995 219.339 126.434 218.766 127.94 218.461C128.414 218.345 128.907 218.334 129.386 218.429C129.864 218.524 130.316 218.723 130.71 219.011C131.065 219.353 131.339 219.77 131.512 220.232C131.685 220.694 131.753 221.189 131.71 221.681C131.687 222.782 131.442 223.867 130.99 224.871C130.507 226.029 129.83 227.098 128.99 228.031C129.422 227.886 129.883 227.853 130.331 227.935C130.778 228.017 131.198 228.212 131.55 228.501C131.858 228.859 132.092 229.275 132.238 229.725C132.384 230.175 132.439 230.649 132.4 231.121C132.323 233.337 131.546 235.473 130.18 237.221C128.503 239.47 126.361 241.332 123.9 242.681C120.38 244.741 117.803 245.687 116.17 245.521Z" fill="white"/>
<path d="M325.87 354.09L326.06 353.92C326.2 353.8 326.35 353.68 326.48 353.55L326.93 353.11L327.38 352.68C327.643 352.433 327.894 352.173 328.13 351.9L331.69 354.56L334.06 356.33C333.197 357.265 332.494 358.337 331.98 359.5C331.98 359.5 331.27 360.65 328.86 360.07C325.88 359.38 325.41 355 325.87 354.09Z" fill="#FFA8A7"/>
<path d="M291 352.87C288.28 349.71 290.7 344.46 293.34 337.65C296.24 330.16 300.72 317.43 300.72 317.43L332.53 310.86C332.53 310.86 366.42 310.21 369.53 316.69C372.05 321.88 349.73 329.69 346.53 329.97L326.94 331L324.88 332L311.12 349.41L291 352.87Z" fill="#F7C600"/>
<path d="M349.61 321.999C347.14 324.511 344.838 327.184 342.72 329.999C336.99 337.999 327.92 352.529 327.92 352.529C327.92 352.529 329.33 357.129 333.66 356.929C333.66 356.929 363.46 329.099 365.9 326.529C369.59 322.629 372.55 316.199 366.17 315.669C359.79 315.139 352.09 319.319 349.61 321.999Z" fill="#F7C600"/>
<path d="M342.56 330.16C342.56 330.16 347.88 322.38 353.39 319.16C353.39 319.16 347.91 320.24 339.61 330.34L342.56 330.16Z" fill="#F7C600"/>
<path opacity="0.1" d="M342.56 330.16C342.56 330.16 347.88 322.38 353.39 319.16C353.39 319.16 347.91 320.24 339.61 330.34L342.56 330.16Z" fill="black"/>
<path d="M346.18 340L344.09 340.4L346.03 347.57C346.03 347.57 347.91 347.39 348.56 347.43C349.507 347.205 350.419 346.852 351.27 346.38L350.77 342L348.47 339.6L346.18 340Z" fill="#FFA8A7"/>
<path d="M362.68 341.689C363.677 342.092 364.581 342.695 365.335 343.463C366.088 344.23 366.676 345.145 367.06 346.149C367.505 347.2 367.869 348.283 368.15 349.389C368.48 350.549 368.32 352.519 366.85 352.839C366.372 352.895 365.888 352.808 365.46 352.589C362.51 351.449 359.63 350.129 356.61 349.169C354.022 348.211 351.312 347.622 348.56 347.419C349.185 346.456 349.498 345.324 349.455 344.176C349.412 343.029 349.016 341.923 348.32 341.009C347.728 340.462 346.98 340.112 346.18 340.009C346.94 339.669 347.65 339.229 348.38 338.819C349.739 337.869 351.404 337.459 353.05 337.669C354.31 337.939 355.27 338.939 356.34 339.669C358.38 340.999 360.35 340.909 362.68 341.689Z" fill="#263238"/>
<path d="M295.29 346.001C297.92 345.191 302.12 344.471 314.58 343.831C327.04 343.191 344.09 340.391 344.09 340.391C346.99 343.181 346.03 347.561 346.03 347.561C346.03 347.561 323.9 354.561 316.69 355.491C305.21 356.971 301.25 356.861 296.07 355.751C290.25 354.501 286.58 348.671 295.29 346.001Z" fill="#F7C600"/>
<path d="M340.83 286.65L350.19 309.02L343.49 313.14L330.61 291.33L340.83 286.65Z" fill="#F28F8F"/>
<path d="M321.47 265.57C326.59 265.63 332.22 267.49 334.16 271.5L342.16 288C342.16 288 337.64 294.62 330.46 294.15L321.47 265.57Z" fill="#E0E0E0"/>
<path d="M287.43 300.341C287.49 299.471 288.74 295.221 290.08 290.641L299.8 294.001L297.19 302.231L289 310.001C287.226 307.113 286.662 303.642 287.43 300.341Z" fill="#FFA8A7"/>
<path d="M311 265.88C304.9 267.35 296.59 269.26 294.18 275.88C291.77 282.5 288.32 294.19 288.32 294.19C289.66 296.51 297.01 298.43 299.56 297.09L300.76 293.09V317.41C305.53 322.6 329.06 321.27 332.57 310.84V277.71C332.57 272.41 329.63 266.04 321.5 265.57L311 265.88Z" fill="#FAFAFA"/>
<path d="M300.73 293.11L303.79 283.48L300.73 297.42V293.11Z" fill="#E0E0E0"/>
<path d="M308.68 238.77C308.137 238.7 307.585 238.753 307.065 238.927C306.546 239.1 306.072 239.388 305.68 239.77C304.39 241.09 304.68 243.53 305.68 249.13L309.68 249.58L308.68 238.77Z" fill="#263238"/>
<path d="M331.89 237.15C332.746 237.153 333.594 236.98 334.38 236.64C335.6 235.94 335.92 237.33 335.25 238.53C334.807 239.395 334.15 240.132 333.341 240.671C332.532 241.211 331.599 241.534 330.63 241.61C330.63 241.44 329.49 238.5 329.49 238.5L331.89 237.15Z" fill="#263238"/>
<path d="M310.55 249.64C309.96 249.99 309.11 248.86 308.38 248.09C308.094 247.763 307.728 247.513 307.319 247.366C306.91 247.219 306.47 247.179 306.04 247.249C305.611 247.319 305.207 247.497 304.865 247.767C304.524 248.036 304.257 248.389 304.09 248.79C302.88 251.34 305.63 254.73 307.24 255.85C307.692 256.24 308.255 256.476 308.849 256.527C309.444 256.577 310.039 256.438 310.55 256.13L310.97 265.88C311.683 267.443 312.772 268.804 314.141 269.842C315.509 270.881 317.113 271.564 318.81 271.83C324.53 272.6 323.35 267.88 321.47 265.57V262C322.902 262.306 324.374 262.38 325.83 262.22C326.57 262.02 328.35 259.87 329.5 257.46C330.79 254.76 332.94 249.96 331.03 241.83C328.97 233.11 319.6 232.83 314.03 236.36C308.46 239.89 310.55 249.64 310.55 249.64Z" fill="#FFA8A7"/>
<path d="M310.55 250.63C310.25 250.63 309.12 248.76 308.38 248.09C307.38 247.16 308.68 238.77 308.68 238.77C308.68 238.77 307.68 235.58 309.68 233.47C311.68 231.36 315.6 231.71 318.46 231.61C321.964 231.629 325.435 230.931 328.66 229.56C332.72 227.8 333.02 227.56 333.52 229.37C334.02 231.18 334.22 235.23 331.8 237.96L330.48 240.11C330.48 240.11 329.25 241.11 325.48 241.61C321.71 242.11 315.25 240.04 314.48 239.93C313.38 239.78 313.15 240.84 312.56 243.74C312 246.29 311.55 250.61 310.55 250.63Z" fill="#263238"/>
<path d="M308.69 239.42L305.11 237.5C305.228 237.262 305.392 237.049 305.592 236.876C305.793 236.702 306.026 236.569 306.278 236.487C306.531 236.404 306.797 236.372 307.061 236.393C307.326 236.414 307.584 236.488 307.82 236.61C308.297 236.878 308.652 237.319 308.814 237.841C308.976 238.364 308.932 238.929 308.69 239.42Z" fill="#263238"/>
<path d="M321.46 261.999C321.46 261.999 316.16 260.929 314.31 259.999C313.221 259.428 312.329 258.543 311.75 257.459C312.031 258.547 312.528 259.567 313.21 260.459C314.56 262.189 321.46 263.459 321.46 263.459V261.999Z" fill="#F28F8F"/>
<path d="M321.63 249.44C321.622 249.648 321.553 249.848 321.432 250.017C321.311 250.186 321.143 250.316 320.949 250.39C320.754 250.464 320.543 250.48 320.34 250.434C320.137 250.389 319.952 250.285 319.807 250.135C319.663 249.986 319.566 249.797 319.528 249.592C319.491 249.388 319.514 249.177 319.595 248.986C319.676 248.794 319.812 248.631 319.985 248.516C320.159 248.401 320.362 248.34 320.57 248.34C320.712 248.342 320.852 248.373 320.982 248.43C321.112 248.486 321.229 248.568 321.328 248.67C321.426 248.772 321.504 248.893 321.555 249.025C321.607 249.157 321.633 249.298 321.63 249.44Z" fill="#263238"/>
<path d="M320.51 245.439L318.23 246.689C318.072 246.377 318.039 246.016 318.138 245.68C318.236 245.344 318.459 245.058 318.76 244.879C318.911 244.797 319.077 244.747 319.248 244.73C319.419 244.714 319.591 244.733 319.755 244.785C319.919 244.837 320.07 244.922 320.2 245.035C320.329 245.147 320.435 245.285 320.51 245.439Z" fill="#263238"/>
<path d="M321 256.539L323.43 257.459C323.376 257.621 323.29 257.771 323.178 257.899C323.065 258.028 322.928 258.133 322.774 258.207C322.62 258.282 322.453 258.325 322.282 258.334C322.111 258.343 321.941 258.317 321.78 258.259C321.453 258.129 321.188 257.877 321.043 257.557C320.897 257.236 320.882 256.871 321 256.539Z" fill="#F28F8F"/>
<path d="M331.1 246.319L329.03 244.719C329.128 244.58 329.253 244.462 329.398 244.373C329.543 244.284 329.704 244.225 329.872 244.199C330.04 244.174 330.212 244.183 330.376 244.226C330.541 244.269 330.695 244.345 330.83 244.449C331.106 244.666 331.288 244.982 331.339 245.33C331.389 245.678 331.303 246.032 331.1 246.319Z" fill="#263238"/>
<path d="M330.46 249.139C330.452 249.347 330.383 249.548 330.262 249.717C330.141 249.886 329.973 250.015 329.779 250.089C329.584 250.164 329.373 250.179 329.17 250.134C328.967 250.088 328.782 249.984 328.638 249.835C328.493 249.685 328.396 249.496 328.358 249.292C328.321 249.087 328.344 248.876 328.425 248.685C328.506 248.493 328.642 248.33 328.816 248.215C328.989 248.101 329.192 248.039 329.4 248.039C329.542 248.042 329.682 248.072 329.812 248.129C329.942 248.186 330.059 248.267 330.158 248.369C330.256 248.472 330.334 248.592 330.386 248.724C330.437 248.856 330.463 248.997 330.46 249.139Z" fill="#263238"/>
<path d="M325.46 249.01L324.46 255.33L327.96 254.92L325.46 249.01Z" fill="#F28F8F"/>
<path d="M361.94 320.78L340.39 308.34C340.201 308.232 339.987 308.176 339.77 308.176C339.552 308.176 339.339 308.232 339.15 308.34L301.36 330.16L323.52 343L361.94 320.78Z" fill="#37474F"/>
<path d="M323.32 341.131L311.7 334.431L345.68 314.811L357.36 321.481L323.32 341.131Z" fill="#263238"/>
<path d="M317.61 322.49L317.83 322.61L323.52 325.9L333.65 320.05L333.86 319.93L327.95 316.52L317.61 322.49Z" fill="#263238"/>
<path d="M317.83 322.61L323.52 325.9L333.65 320.05L327.95 316.76L317.83 322.61Z" fill="#263238"/>
<path d="M301.36 330.16V330.67C301.357 331.031 301.448 331.386 301.623 331.702C301.798 332.017 302.052 332.282 302.36 332.47L322.44 344.06C322.756 344.244 323.115 344.34 323.48 344.34C323.845 344.34 324.204 344.244 324.52 344.06L360.86 323.06C361.167 322.871 361.421 322.606 361.596 322.291C361.771 321.976 361.862 321.621 361.86 321.26V320.75L323.52 343L301.36 330.16Z" fill="#263238"/>
<path d="M323.52 342.999V344.379C323.872 344.375 324.217 344.279 324.52 344.099L360.86 323.099C361.167 322.91 361.421 322.645 361.596 322.33C361.771 322.015 361.862 321.66 361.86 321.299V320.789L323.52 342.999Z" fill="#263238"/>
<path d="M324.11 343.269C324.454 343.4 324.822 343.453 325.189 343.424C325.556 343.394 325.911 343.283 326.23 343.099L362.41 322.209C362.724 322.029 362.994 321.781 363.199 321.483C363.405 321.186 363.542 320.846 363.6 320.489L367.6 296.879C367.61 296.742 367.61 296.605 367.6 296.469C367.598 295.812 367.335 295.182 366.87 294.719L329.27 316.429C329.039 316.562 328.84 316.746 328.688 316.965C328.535 317.185 328.434 317.435 328.39 317.699L324.11 343.269Z" fill="#263238"/>
<path d="M323.52 342.999L323.77 343.139C323.88 343.202 323.994 343.258 324.11 343.309L328.39 317.739C328.434 317.475 328.536 317.225 328.688 317.005C328.84 316.786 329.039 316.603 329.27 316.469L366.87 294.759C366.716 294.616 366.549 294.489 366.37 294.379L328.7 316.089C328.468 316.223 328.268 316.406 328.114 316.625C327.96 316.844 327.856 317.095 327.81 317.359L323.52 342.999Z" fill="#455A64"/>
<path d="M344.48 321.459C345.049 319.485 346.356 317.806 348.13 316.769C349.88 315.769 351.08 316.219 350.82 317.769C350.25 319.743 348.943 321.422 347.17 322.459C345.42 323.509 344.22 322.999 344.48 321.459Z" fill="#37474F"/>
<path d="M297.19 302.209C297.19 302.209 303.68 327.209 306.42 328.999C309.16 330.789 314.26 332.099 316.7 332.999C319.14 333.899 320.25 335.129 319.83 335.469C319.41 335.809 315.89 336.179 314.67 336.609C313.45 337.039 315.03 339.009 317.73 341.099C320.43 343.189 322.73 342.999 322.43 344.389C322.13 345.779 316.11 347.169 311.03 344.189C305.95 341.209 304.41 337.189 301.38 333.779C298.35 330.369 291.43 316.199 289 309.999C289 309.999 289.23 298.479 293 299.209C296.77 299.939 297.19 302.209 297.19 302.209Z" fill="#FFA8A7"/>
<path d="M328.07 352.87C328.53 353.98 330.12 357.04 333.66 356.87L342.36 348.73L328.07 352.87Z" fill="#F7C600"/>
<path opacity="0.1" d="M328.07 352.87C328.53 353.98 330.12 357.04 333.66 356.87L342.36 348.73L328.07 352.87Z" fill="black"/>
<path d="M330.7 367.19C330.616 364.572 331.048 361.962 331.97 359.51C331.551 359.803 331.068 359.99 330.561 360.056C330.055 360.122 329.54 360.065 329.06 359.89C326.15 359.02 325.42 354.96 325.88 354.08C325.46 354.45 325.02 354.8 324.59 355.16C323.211 356.086 322.229 357.495 321.84 359.11C321.64 360.38 322.23 361.63 322.52 362.89C323.08 365.29 322.52 367.79 322.43 370.25C322.45 371.324 322.69 372.382 323.136 373.359C323.581 374.336 324.223 375.211 325.02 375.93C325.84 376.73 326.722 377.462 327.66 378.12C328.001 378.504 328.453 378.772 328.953 378.888C329.453 379.004 329.976 378.962 330.451 378.767C330.926 378.573 331.329 378.236 331.605 377.803C331.881 377.371 332.015 376.863 331.99 376.35C331.61 373.23 330.88 370.44 330.7 367.19Z" fill="#263238"/>
<path d="M334 356.35C333.73 356.86 333.49 357.35 333.28 357.84C333.53 357.36 333.77 356.86 334 356.35Z" fill="#37474F"/>
</g>
<defs>
<filter id="filter0_d_5560_203480" x="-4" y="0" width="508" height="508" filterUnits="userSpaceOnUse" color-interpolation-filters="sRGB">
<feFlood flood-opacity="0" result="BackgroundImageFix"/>
<feColorMatrix in="SourceAlpha" type="matrix" values="0 0 0 0 0 0 0 0 0 0 0 0 0 0 0 0 0 0 127 0" result="hardAlpha"/>
<feOffset dy="4"/>
<feGaussianBlur stdDeviation="2"/>
<feComposite in2="hardAlpha" operator="out"/>
<feColorMatrix type="matrix" values="0 0 0 0 0 0 0 0 0 0 0 0 0 0 0 0 0 0 0.25 0"/>
<feBlend mode="normal" in2="BackgroundImageFix" result="effect1_dropShadow_5560_203480"/>
<feBlend mode="normal" in="SourceGraphic" in2="effect1_dropShadow_5560_203480" result="shape"/>
</filter>
</defs>
</svg>
