<svg width="508" height="500" viewBox="0 0 508 500" fill="none" xmlns="http://www.w3.org/2000/svg">
<g filter="url(#filter0_d_5560_203483)">
<path d="M504 382.4H4V382.65H504V382.4Z" fill="#EBEBEB"/>
<path d="M453.9 398.49H420.78V398.74H453.9V398.49Z" fill="#EBEBEB"/>
<path d="M335.22 401.211H326.53V401.461H335.22V401.211Z" fill="#EBEBEB"/>
<path d="M419.78 389.211H400.59V389.461H419.78V389.211Z" fill="#EBEBEB"/>
<path d="M99.65 390.891H56.46V391.141H99.65V390.891Z" fill="#EBEBEB"/>
<path d="M114.89 390.891H108.56V391.141H114.89V390.891Z" fill="#EBEBEB"/>
<path d="M229.15 395.109H135.47V395.359H229.15V395.109Z" fill="#EBEBEB"/>
<path d="M241 337.8H47.91C46.3973 337.797 44.9475 337.195 43.8788 336.124C42.8102 335.053 42.21 333.603 42.21 332.09V60.66C42.2231 59.156 42.8292 57.718 43.8964 56.6582C44.9637 55.5985 46.4059 55.0026 47.91 55H241C242.514 55 243.967 55.6016 245.038 56.6724C246.108 57.7433 246.71 59.1956 246.71 60.71V332.09C246.71 333.604 246.108 335.057 245.038 336.128C243.967 337.198 242.514 337.8 241 337.8ZM47.91 55.2C46.4636 55.2026 45.0774 55.7791 44.0556 56.8027C43.0338 57.8264 42.46 59.2136 42.46 60.66V332.09C42.46 333.536 43.0338 334.924 44.0556 335.947C45.0774 336.971 46.4636 337.547 47.91 337.55H241C242.447 337.547 243.834 336.971 244.858 335.948C245.881 334.924 246.457 333.537 246.46 332.09V60.66C246.457 59.2127 245.881 57.8255 244.858 56.8021C243.834 55.7787 242.447 55.2026 241 55.2H47.91Z" fill="#EBEBEB"/>
<path d="M457.31 337.8H264.21C262.696 337.797 261.246 337.195 260.175 336.125C259.105 335.054 258.503 333.604 258.5 332.09V60.66C258.516 59.1551 259.124 57.7171 260.193 56.6576C261.262 55.5981 262.705 55.0025 264.21 55H457.31C458.812 55.0052 460.252 55.6022 461.317 56.6617C462.382 57.7212 462.987 59.1578 463 60.66V332.09C463 333.601 462.401 335.05 461.335 336.121C460.268 337.191 458.821 337.795 457.31 337.8ZM264.21 55.2C262.763 55.2026 261.375 55.7787 260.352 56.8021C259.329 57.8255 258.753 59.2127 258.75 60.66V332.09C258.753 333.537 259.329 334.924 260.352 335.948C261.375 336.971 262.763 337.547 264.21 337.55H457.31C458.757 337.547 460.145 336.971 461.168 335.948C462.191 334.924 462.767 333.537 462.77 332.09V60.66C462.767 59.2127 462.191 57.8255 461.168 56.8021C460.145 55.7787 458.757 55.2026 457.31 55.2H264.21Z" fill="#EBEBEB"/>
<path opacity="0.4" d="M504 317V382.4H4V317C18.05 319.31 22.37 324.88 43.27 324.88C69.61 324.86 69.61 316 96 316C122.39 316 122.34 324.85 148.68 324.85C175.02 324.85 175 316 201.33 316C227.66 316 227.67 324.85 254.01 324.85C280.35 324.85 280.35 316 306.7 316C333.05 316 333.04 324.85 359.38 324.85C385.72 324.85 385.72 316 412.06 316C438.4 316 438.41 324.85 464.75 324.85C485.64 324.86 490 319.3 504 317Z" fill="#E0E0E0"/>
<path d="M284.31 167.57H60.1099C60.1099 167.57 70.3199 149.57 89.7799 149.57C109.24 149.57 90.9899 159.57 106.07 159.57C121.15 159.57 136.71 127.23 184.61 127.23C232.51 127.23 192.88 151.55 217.68 151.55C242.48 151.55 321.88 130 284.31 167.57Z" fill="#FAFAFA"/>
<path d="M454.15 196.381H342.05C342.05 196.381 347.16 187.381 356.89 187.381C366.62 187.381 357.49 192.381 365.03 192.381C372.57 192.381 380.35 176.211 404.3 176.211C428.25 176.211 408.44 188.371 420.84 188.371C433.24 188.371 472.94 177.591 454.15 196.381Z" fill="#FAFAFA"/>
<path d="M234.27 100.261C243.73 100.261 234.86 105.111 242.19 105.111C249.52 105.111 257.11 89.3706 280.42 89.3706C303.33 89.3706 286.04 102.761 296.9 103.221H297.49C308.37 103.221 319.6 79.8906 354.15 79.8906C388.7 79.8906 360.15 97.4306 378 97.4306C395.85 97.4306 453.17 81.9206 426.07 109.001H219.83C219.83 109.001 224.8 100.261 234.27 100.261Z" fill="#FAFAFA"/>
<path d="M103.56 93.0009C102.022 92.3849 100.423 91.9324 98.7898 91.6509C97.1377 91.3808 95.4598 91.3036 93.7898 91.4209C92.5437 91.5219 91.3089 91.7327 90.0998 92.0509C89.2566 91.051 88.3335 90.1213 87.3398 89.2709C84.7287 87.0557 81.6528 85.4562 78.3398 84.5909C76.7853 84.1579 75.1831 83.9195 73.5698 83.8809C75.1141 84.3079 76.6014 84.9189 77.9998 85.7009C79.399 86.4519 80.7161 87.3468 81.9298 88.3709C84.3446 90.4111 86.2804 92.9581 87.5998 95.8309L88.5098 97.8309L90.2398 96.7609C92.7922 95.164 95.6968 94.2164 98.6998 94.0009C100.238 93.8914 101.784 93.9517 103.31 94.1809C104.88 94.4059 106.418 94.8189 107.89 95.4109C106.546 94.4399 105.093 93.631 103.56 93.0009Z" fill="#E0E0E0"/>
<path d="M134.65 112.54C133.363 112.253 132.049 112.105 130.73 112.1C129.382 112.1 128.039 112.262 126.73 112.58C125.765 112.827 124.824 113.162 123.92 113.58C123.125 112.908 122.279 112.3 121.39 111.76C120.203 111.054 118.942 110.481 117.63 110.05C116.366 109.644 115.062 109.376 113.74 109.25C112.462 109.118 111.172 109.142 109.9 109.32C111.165 109.442 112.411 109.717 113.61 110.14C114.809 110.543 115.962 111.073 117.05 111.72C119.209 113.013 121.062 114.76 122.48 116.84L123.48 118.26L124.7 117.19C126.499 115.594 128.662 114.464 131 113.9C132.196 113.615 133.42 113.461 134.65 113.44C135.91 113.41 137.17 113.534 138.4 113.81C137.205 113.239 135.946 112.813 134.65 112.54Z" fill="#E0E0E0"/>
<path d="M417.8 135.649C415.988 136.13 414.231 136.8 412.56 137.649C410.866 138.545 409.285 139.64 407.85 140.909C406.793 141.854 405.822 142.891 404.95 144.009C403.503 143.682 402.031 143.474 400.55 143.389C396.681 143.18 392.814 143.836 389.23 145.309C387.526 145.993 385.911 146.879 384.42 147.949C386.102 147.271 387.857 146.791 389.65 146.519C391.435 146.233 393.245 146.136 395.05 146.229C398.634 146.418 402.133 147.391 405.3 149.079L407.46 150.219L408.29 148.059C409.506 144.873 411.479 142.032 414.04 139.779C415.358 138.624 416.801 137.618 418.34 136.779C419.92 135.913 421.598 135.241 423.34 134.779C421.466 134.852 419.606 135.144 417.8 135.649Z" fill="#E0E0E0"/>
<path d="M254 427.56C361.082 427.56 447.89 422.492 447.89 416.24C447.89 409.988 361.082 404.92 254 404.92C146.917 404.92 60.1099 409.988 60.1099 416.24C60.1099 422.492 146.917 427.56 254 427.56Z" fill="#F5F5F5"/>
<path d="M142.61 281.961H186.66V259.131H142.61V281.961Z" fill="#F7C600"/>
<path opacity="0.4" d="M142.61 281.961H186.66V259.131H142.61V281.961Z" fill="#FAFAFA"/>
<path d="M142.61 259.121H131.29V281.951H142.61V259.121Z" fill="#F7C600"/>
<path opacity="0.4" d="M142.61 259.121H131.29V281.951H142.61V259.121Z" fill="#FAFAFA"/>
<path opacity="0.2" d="M142.61 259.121H131.29V281.951H142.61V259.121Z" fill="black"/>
<path opacity="0.2" d="M184.81 281.031H185.92V260.061H184.81V281.031Z" fill="black"/>
<path opacity="0.2" d="M182.36 281.031H183.47V260.061H182.36V281.031Z" fill="black"/>
<path opacity="0.2" d="M179.93 281.031H181.04V260.061H179.93V281.031Z" fill="black"/>
<path opacity="0.2" d="M177.49 281.031H178.6V260.061H177.49V281.031Z" fill="black"/>
<path opacity="0.2" d="M175.05 281.031H176.16V260.061H175.05V281.031Z" fill="black"/>
<path opacity="0.2" d="M172.62 281.031H173.73V260.061H172.62V281.031Z" fill="black"/>
<path opacity="0.2" d="M170.17 281.031H171.28V260.061H170.17V281.031Z" fill="black"/>
<path opacity="0.2" d="M167.74 281.031H168.85V260.061H167.74V281.031Z" fill="black"/>
<path opacity="0.2" d="M165.3 281.031H166.41V260.061H165.3V281.031Z" fill="black"/>
<path opacity="0.2" d="M162.86 281.031H163.97V260.061H162.86V281.031Z" fill="black"/>
<path opacity="0.2" d="M160.43 281.031H161.54V260.061H160.43V281.031Z" fill="black"/>
<path opacity="0.2" d="M157.98 281.031H159.09V260.061H157.98V281.031Z" fill="black"/>
<path opacity="0.2" d="M155.55 281.031H156.66V260.061H155.55V281.031Z" fill="black"/>
<path opacity="0.2" d="M153.11 281.031H154.22V260.061H153.11V281.031Z" fill="black"/>
<path opacity="0.2" d="M150.67 281.031H151.78V260.061H150.67V281.031Z" fill="black"/>
<path opacity="0.2" d="M148.24 281.031H149.35V260.061H148.24V281.031Z" fill="black"/>
<path opacity="0.2" d="M145.79 281.031H146.9V260.061H145.79V281.031Z" fill="black"/>
<path opacity="0.2" d="M143.35 281.031H144.46V260.061H143.35V281.031Z" fill="black"/>
<path d="M90.43 281.961H134.48V259.131H90.43V281.961Z" fill="#F7C600"/>
<path d="M90.4299 259.121H79.1099V281.951H90.4299V259.121Z" fill="#F7C600"/>
<path opacity="0.2" d="M90.4299 259.121H79.1099V281.951H90.4299V259.121Z" fill="black"/>
<path opacity="0.2" d="M132.62 281.031H133.73V260.061H132.62V281.031Z" fill="black"/>
<path opacity="0.2" d="M130.18 281.031H131.29V260.061H130.18V281.031Z" fill="black"/>
<path opacity="0.2" d="M127.75 281.031H128.86V260.061H127.75V281.031Z" fill="black"/>
<path opacity="0.2" d="M125.3 281.031H126.41V260.061H125.3V281.031Z" fill="black"/>
<path opacity="0.2" d="M122.87 281.031H123.98V260.061H122.87V281.031Z" fill="black"/>
<path opacity="0.2" d="M120.43 281.031H121.54V260.061H120.43V281.031Z" fill="black"/>
<path opacity="0.2" d="M117.99 281.031H119.1V260.061H117.99V281.031Z" fill="black"/>
<path opacity="0.2" d="M115.56 281.031H116.67V260.061H115.56V281.031Z" fill="black"/>
<path opacity="0.2" d="M113.11 281.031H114.22V260.061H113.11V281.031Z" fill="black"/>
<path opacity="0.2" d="M110.67 281.031H111.78V260.061H110.67V281.031Z" fill="black"/>
<path opacity="0.2" d="M108.24 281.031H109.35V260.061H108.24V281.031Z" fill="black"/>
<path opacity="0.2" d="M105.8 281.031H106.91V260.061H105.8V281.031Z" fill="black"/>
<path opacity="0.2" d="M103.37 281.031H104.48V260.061H103.37V281.031Z" fill="black"/>
<path opacity="0.2" d="M100.92 281.031H102.03V260.061H100.92V281.031Z" fill="black"/>
<path opacity="0.2" d="M98.4798 281.031H99.5898V260.061H98.4798V281.031Z" fill="black"/>
<path opacity="0.2" d="M96.0497 281.031H97.1597V260.061H96.0497V281.031Z" fill="black"/>
<path opacity="0.2" d="M93.6097 281.031H94.7197V260.061H93.6097V281.031Z" fill="black"/>
<path opacity="0.2" d="M91.18 281.031H92.29V260.061H91.18V281.031Z" fill="black"/>
<path d="M135.42 304.781H179.47V281.951H135.42V304.781Z" fill="#F7C600"/>
<path d="M135.42 281.951H124.1V304.781H135.42V281.951Z" fill="#F7C600"/>
<path opacity="0.2" d="M135.42 281.951H124.1V304.781H135.42V281.951Z" fill="black"/>
<path opacity="0.2" d="M177.61 303.85H178.72V282.88H177.61V303.85Z" fill="black"/>
<path opacity="0.2" d="M175.17 303.85H176.28V282.88H175.17V303.85Z" fill="black"/>
<path opacity="0.2" d="M172.73 303.85H173.84V282.88H172.73V303.85Z" fill="black"/>
<path opacity="0.2" d="M170.3 303.85H171.41V282.88H170.3V303.85Z" fill="black"/>
<path opacity="0.2" d="M167.85 303.85H168.96V282.88H167.85V303.85Z" fill="black"/>
<path opacity="0.2" d="M165.42 303.85H166.53V282.88H165.42V303.85Z" fill="black"/>
<path opacity="0.2" d="M162.98 303.85H164.09V282.88H162.98V303.85Z" fill="black"/>
<path opacity="0.2" d="M160.54 303.85H161.65V282.88H160.54V303.85Z" fill="black"/>
<path opacity="0.2" d="M158.11 303.85H159.22V282.88H158.11V303.85Z" fill="black"/>
<path opacity="0.2" d="M155.66 303.85H156.77V282.88H155.66V303.85Z" fill="black"/>
<path opacity="0.2" d="M153.23 303.85H154.34V282.88H153.23V303.85Z" fill="black"/>
<path opacity="0.2" d="M150.79 303.85H151.9V282.88H150.79V303.85Z" fill="black"/>
<path opacity="0.2" d="M148.35 303.85H149.46V282.88H148.35V303.85Z" fill="black"/>
<path opacity="0.2" d="M145.92 303.85H147.03V282.88H145.92V303.85Z" fill="black"/>
<path opacity="0.2" d="M143.47 303.85H144.58V282.88H143.47V303.85Z" fill="black"/>
<path opacity="0.2" d="M141.03 303.85H142.14V282.88H141.03V303.85Z" fill="black"/>
<path opacity="0.2" d="M138.6 303.85H139.71V282.88H138.6V303.85Z" fill="black"/>
<path opacity="0.2" d="M136.16 303.85H137.27V282.88H136.16V303.85Z" fill="black"/>
<path d="M86.4598 304.781H130.51V281.951H86.4598V304.781Z" fill="#F7C600"/>
<path opacity="0.4" d="M86.4598 304.781H130.51V281.951H86.4598V304.781Z" fill="#FAFAFA"/>
<path d="M86.4596 281.951H75.1396V304.781H86.4596V281.951Z" fill="#F7C600"/>
<path opacity="0.4" d="M86.4596 281.951H75.1396V304.781H86.4596V281.951Z" fill="#FAFAFA"/>
<path opacity="0.2" d="M86.4596 281.951H75.1396V304.781H86.4596V281.951Z" fill="black"/>
<path opacity="0.2" d="M128.65 303.85H129.76V282.88H128.65V303.85Z" fill="black"/>
<path opacity="0.2" d="M126.21 303.85H127.32V282.88H126.21V303.85Z" fill="black"/>
<path opacity="0.2" d="M123.77 303.85H124.88V282.88H123.77V303.85Z" fill="black"/>
<path opacity="0.2" d="M121.34 303.85H122.45V282.88H121.34V303.85Z" fill="black"/>
<path opacity="0.2" d="M118.89 303.85H120V282.88H118.89V303.85Z" fill="black"/>
<path opacity="0.2" d="M116.46 303.85H117.57V282.88H116.46V303.85Z" fill="black"/>
<path opacity="0.2" d="M114.02 303.85H115.13V282.88H114.02V303.85Z" fill="black"/>
<path opacity="0.2" d="M111.58 303.85H112.69V282.88H111.58V303.85Z" fill="black"/>
<path opacity="0.2" d="M109.15 303.85H110.26V282.88H109.15V303.85Z" fill="black"/>
<path opacity="0.2" d="M106.7 303.85H107.81V282.88H106.7V303.85Z" fill="black"/>
<path opacity="0.2" d="M104.27 303.85H105.38V282.88H104.27V303.85Z" fill="black"/>
<path opacity="0.2" d="M101.83 303.85H102.94V282.88H101.83V303.85Z" fill="black"/>
<path opacity="0.2" d="M99.39 303.85H100.5V282.88H99.39V303.85Z" fill="black"/>
<path opacity="0.2" d="M96.9598 303.85H98.0698V282.88H96.9598V303.85Z" fill="black"/>
<path opacity="0.2" d="M94.5101 303.85H95.6201V282.88H94.5101V303.85Z" fill="black"/>
<path opacity="0.2" d="M92.0697 303.85H93.1797V282.88H92.0697V303.85Z" fill="black"/>
<path opacity="0.2" d="M89.64 303.85H90.75V282.88H89.64V303.85Z" fill="black"/>
<path opacity="0.2" d="M87.2001 303.85H88.3101V282.88H87.2001V303.85Z" fill="black"/>
<path d="M190.61 178.4H169.95V210.48H190.61V178.4Z" fill="#F7C600"/>
<path d="M190.61 181.66H169.95V184.97H190.61V181.66Z" fill="white"/>
<path d="M190.61 188.791H169.95V191.341H190.61V188.791Z" fill="white"/>
<path d="M151.55 178.4H130.89V210.48H151.55V178.4Z" fill="#F7C600"/>
<path d="M151.55 181.66H130.89V184.97H151.55V181.66Z" fill="white"/>
<path d="M151.55 188.791H130.89V191.341H151.55V188.791Z" fill="white"/>
<path d="M135.15 223.99H108.97V304.78H135.15V223.99Z" fill="#E0E0E0"/>
<path opacity="0.7" d="M129.61 235.02H111.88V236.76H129.61V235.02Z" fill="white"/>
<path opacity="0.7" d="M129.61 241.77H111.88V243.51H129.61V241.77Z" fill="white"/>
<path opacity="0.7" d="M129.61 248.51H111.88V250.25H129.61V248.51Z" fill="white"/>
<path opacity="0.7" d="M129.61 255.25H111.88V256.99H129.61V255.25Z" fill="white"/>
<path opacity="0.7" d="M129.61 261.99H111.88V263.73H129.61V261.99Z" fill="white"/>
<path opacity="0.7" d="M129.61 268.74H111.88V270.48H129.61V268.74Z" fill="white"/>
<path opacity="0.7" d="M129.61 275.48H111.88V277.22H129.61V275.48Z" fill="white"/>
<path opacity="0.7" d="M129.61 282.221H111.88V283.961H129.61V282.221Z" fill="white"/>
<path d="M135.15 304.77H207.26V223.98H135.15V304.77Z" fill="#FAFAFA"/>
<g opacity="0.8">
<path opacity="0.2" d="M144.04 232.871H143.08V236.871H144.04V232.871Z" fill="black"/>
<path opacity="0.2" d="M157.86 232.871H156.9V236.871H157.86V232.871Z" fill="black"/>
<path opacity="0.2" d="M171.68 232.871H170.72V236.871H171.68V232.871Z" fill="black"/>
<path opacity="0.2" d="M185.5 232.871H184.54V236.871H185.5V232.871Z" fill="black"/>
<path opacity="0.2" d="M199.32 232.871H198.36V236.871H199.32V232.871Z" fill="black"/>
<path opacity="0.2" d="M144.04 245.531H143.08V249.531H144.04V245.531Z" fill="black"/>
<path opacity="0.2" d="M157.86 245.531H156.9V249.531H157.86V245.531Z" fill="black"/>
<path opacity="0.2" d="M171.68 245.531H170.72V249.531H171.68V245.531Z" fill="black"/>
<path opacity="0.2" d="M185.5 245.531H184.54V249.531H185.5V245.531Z" fill="black"/>
<path opacity="0.2" d="M199.32 245.531H198.36V249.531H199.32V245.531Z" fill="black"/>
<path opacity="0.2" d="M144.04 258.182H143.08V262.182H144.04V258.182Z" fill="black"/>
<path opacity="0.2" d="M157.86 258.182H156.9V262.182H157.86V258.182Z" fill="black"/>
<path opacity="0.2" d="M171.68 258.182H170.72V262.182H171.68V258.182Z" fill="black"/>
<path opacity="0.2" d="M185.5 258.182H184.54V262.182H185.5V258.182Z" fill="black"/>
<path opacity="0.2" d="M199.32 258.182H198.36V262.182H199.32V258.182Z" fill="black"/>
<path opacity="0.2" d="M144.04 270.842H143.08V274.842H144.04V270.842Z" fill="black"/>
<path opacity="0.2" d="M157.86 270.842H156.9V274.842H157.86V270.842Z" fill="black"/>
<path opacity="0.2" d="M171.68 270.842H170.72V274.842H171.68V270.842Z" fill="black"/>
<path opacity="0.2" d="M185.5 270.842H184.54V274.842H185.5V270.842Z" fill="black"/>
<path opacity="0.2" d="M199.32 270.842H198.36V274.842H199.32V270.842Z" fill="black"/>
<path opacity="0.2" d="M144.04 283.49H143.08V287.49H144.04V283.49Z" fill="black"/>
<path opacity="0.2" d="M157.86 283.49H156.9V287.49H157.86V283.49Z" fill="black"/>
<path opacity="0.2" d="M171.68 283.49H170.72V287.49H171.68V283.49Z" fill="black"/>
<path opacity="0.2" d="M185.5 283.49H184.54V287.49H185.5V283.49Z" fill="black"/>
<path opacity="0.2" d="M199.32 283.49H198.36V287.49H199.32V283.49Z" fill="black"/>
<path opacity="0.2" d="M144.04 296.15H143.08V300.15H144.04V296.15Z" fill="black"/>
<path opacity="0.2" d="M157.86 296.15H156.9V300.15H157.86V296.15Z" fill="black"/>
<path opacity="0.2" d="M171.68 296.15H170.72V300.15H171.68V296.15Z" fill="black"/>
<path opacity="0.2" d="M185.5 296.15H184.54V300.15H185.5V296.15Z" fill="black"/>
<path opacity="0.2" d="M199.32 296.15H198.36V300.15H199.32V296.15Z" fill="black"/>
</g>
<path d="M139.17 205.881H117.57V223.981H139.17V205.881Z" fill="#E0E0E0"/>
<path d="M139.17 223.99H198.65V205.89H139.17V223.99Z" fill="#FAFAFA"/>
<g style="mix-blend-mode:multiply" opacity="0.1">
<path d="M117.58 209.51H198.66V205.89H117.58V209.51Z" fill="black"/>
</g>
<path opacity="0.2" d="M146.53 212.381H143.26V215.651H146.53V212.381Z" fill="black"/>
<path opacity="0.2" d="M151.33 212.381H148.06V215.651H151.33V212.381Z" fill="black"/>
<path opacity="0.2" d="M156.14 212.381H152.87V215.651H156.14V212.381Z" fill="black"/>
<path opacity="0.2" d="M160.94 212.381H157.67V215.651H160.94V212.381Z" fill="black"/>
<path opacity="0.2" d="M165.74 212.381H162.47V215.651H165.74V212.381Z" fill="black"/>
<path opacity="0.2" d="M170.54 212.381H167.27V215.651H170.54V212.381Z" fill="black"/>
<path opacity="0.2" d="M175.35 212.381H172.08V215.651H175.35V212.381Z" fill="black"/>
<path opacity="0.2" d="M180.15 212.381H176.88V215.651H180.15V212.381Z" fill="black"/>
<path opacity="0.2" d="M184.95 212.381H181.68V215.651H184.95V212.381Z" fill="black"/>
<path opacity="0.2" d="M189.75 212.381H186.48V215.651H189.75V212.381Z" fill="black"/>
<path opacity="0.2" d="M194.56 212.381H191.29V215.651H194.56V212.381Z" fill="black"/>
<path opacity="0.2" d="M146.53 217.131H143.26V220.401H146.53V217.131Z" fill="black"/>
<path opacity="0.2" d="M151.33 217.131H148.06V220.401H151.33V217.131Z" fill="black"/>
<path opacity="0.2" d="M156.14 217.131H152.87V220.401H156.14V217.131Z" fill="black"/>
<path opacity="0.2" d="M160.94 217.131H157.67V220.401H160.94V217.131Z" fill="black"/>
<path opacity="0.2" d="M165.74 217.131H162.47V220.401H165.74V217.131Z" fill="black"/>
<path opacity="0.2" d="M170.54 217.131H167.27V220.401H170.54V217.131Z" fill="black"/>
<path opacity="0.2" d="M175.35 217.131H172.08V220.401H175.35V217.131Z" fill="black"/>
<path opacity="0.2" d="M180.15 217.131H176.88V220.401H180.15V217.131Z" fill="black"/>
<path opacity="0.2" d="M184.95 217.131H181.68V220.401H184.95V217.131Z" fill="black"/>
<path opacity="0.2" d="M189.75 217.131H186.48V220.401H189.75V217.131Z" fill="black"/>
<path opacity="0.2" d="M194.56 217.131H191.29V220.401H194.56V217.131Z" fill="black"/>
<path d="M135.62 195.801H105.54L109.98 205.881H135.62V195.801Z" fill="#E0E0E0"/>
<path d="M135.62 195.801H210.68L206.24 205.881H135.62V195.801Z" fill="#FAFAFA"/>
<path d="M271.15 304.781H330.06V281.951H271.15V304.781Z" fill="#F7C600"/>
<path opacity="0.4" d="M271.15 304.781H330.06V281.951H271.15V304.781Z" fill="#FAFAFA"/>
<path d="M271.15 281.951H256.02V304.781H271.15V281.951Z" fill="#F7C600"/>
<path opacity="0.4" d="M271.15 281.951H256.02V304.781H271.15V281.951Z" fill="#FAFAFA"/>
<path opacity="0.2" d="M271.15 281.951H256.02V304.781H271.15V281.951Z" fill="black"/>
<path opacity="0.2" d="M327.58 303.85H329.06V282.88H327.58V303.85Z" fill="black"/>
<path opacity="0.2" d="M324.32 303.85H325.8V282.88H324.32V303.85Z" fill="black"/>
<path opacity="0.2" d="M321.06 303.85H322.54V282.88H321.06V303.85Z" fill="black"/>
<path opacity="0.2" d="M317.8 303.85H319.28V282.88H317.8V303.85Z" fill="black"/>
<path opacity="0.2" d="M314.54 303.85H316.02V282.88H314.54V303.85Z" fill="black"/>
<path opacity="0.2" d="M311.28 303.85H312.76V282.88H311.28V303.85Z" fill="black"/>
<path opacity="0.2" d="M308.02 303.85H309.5V282.88H308.02V303.85Z" fill="black"/>
<path opacity="0.2" d="M304.76 303.85H306.24V282.88H304.76V303.85Z" fill="black"/>
<path opacity="0.2" d="M301.5 303.85H302.98V282.88H301.5V303.85Z" fill="black"/>
<path opacity="0.2" d="M298.24 303.85H299.72V282.88H298.24V303.85Z" fill="black"/>
<path opacity="0.2" d="M294.98 303.85H296.46V282.88H294.98V303.85Z" fill="black"/>
<path opacity="0.2" d="M291.72 303.85H293.2V282.88H291.72V303.85Z" fill="black"/>
<path opacity="0.2" d="M288.46 303.85H289.94V282.88H288.46V303.85Z" fill="black"/>
<path opacity="0.2" d="M285.2 303.85H286.68V282.88H285.2V303.85Z" fill="black"/>
<path opacity="0.2" d="M281.94 303.85H283.42V282.88H281.94V303.85Z" fill="black"/>
<path opacity="0.2" d="M278.68 303.85H280.16V282.88H278.68V303.85Z" fill="black"/>
<path opacity="0.2" d="M275.42 303.85H276.9V282.88H275.42V303.85Z" fill="black"/>
<path opacity="0.2" d="M272.16 303.85H273.64V282.88H272.16V303.85Z" fill="black"/>
<path d="M201.37 304.781H260.28V281.951H201.37V304.781Z" fill="#F7C600"/>
<path d="M201.37 281.951H186.24V304.781H201.37V281.951Z" fill="#F7C600"/>
<path opacity="0.2" d="M201.37 281.951H186.24V304.781H201.37V281.951Z" fill="black"/>
<path opacity="0.2" d="M257.8 303.85H259.28V282.88H257.8V303.85Z" fill="black"/>
<path opacity="0.2" d="M254.54 303.85H256.02V282.88H254.54V303.85Z" fill="black"/>
<path opacity="0.2" d="M251.28 303.85H252.76V282.88H251.28V303.85Z" fill="black"/>
<path opacity="0.2" d="M248.02 303.85H249.5V282.88H248.02V303.85Z" fill="black"/>
<path opacity="0.2" d="M244.76 303.85H246.24V282.88H244.76V303.85Z" fill="black"/>
<path opacity="0.2" d="M241.5 303.85H242.98V282.88H241.5V303.85Z" fill="black"/>
<path opacity="0.2" d="M238.24 303.85H239.72V282.88H238.24V303.85Z" fill="black"/>
<path opacity="0.2" d="M234.98 303.85H236.46V282.88H234.98V303.85Z" fill="black"/>
<path opacity="0.2" d="M231.72 303.85H233.2V282.88H231.72V303.85Z" fill="black"/>
<path opacity="0.2" d="M228.46 303.85H229.94V282.88H228.46V303.85Z" fill="black"/>
<path opacity="0.2" d="M225.2 303.85H226.68V282.88H225.2V303.85Z" fill="black"/>
<path opacity="0.2" d="M221.94 303.85H223.42V282.88H221.94V303.85Z" fill="black"/>
<path opacity="0.2" d="M218.68 303.85H220.16V282.88H218.68V303.85Z" fill="black"/>
<path opacity="0.2" d="M215.42 303.85H216.9V282.88H215.42V303.85Z" fill="black"/>
<path opacity="0.2" d="M212.16 303.85H213.64V282.88H212.16V303.85Z" fill="black"/>
<path opacity="0.2" d="M208.9 303.85H210.38V282.88H208.9V303.85Z" fill="black"/>
<path opacity="0.2" d="M205.64 303.85H207.12V282.88H205.64V303.85Z" fill="black"/>
<path opacity="0.2" d="M202.38 303.85H203.86V282.88H202.38V303.85Z" fill="black"/>
<path d="M261.54 281.961H320.45V259.131H261.54V281.961Z" fill="#F7C600"/>
<path d="M261.53 259.121H246.4V281.951H261.53V259.121Z" fill="#F7C600"/>
<path opacity="0.2" d="M261.53 259.121H246.4V281.951H261.53V259.121Z" fill="black"/>
<path opacity="0.2" d="M317.96 281.031H319.44V260.061H317.96V281.031Z" fill="black"/>
<path opacity="0.2" d="M314.7 281.031H316.18V260.061H314.7V281.031Z" fill="black"/>
<path opacity="0.2" d="M311.44 281.031H312.92V260.061H311.44V281.031Z" fill="black"/>
<path opacity="0.2" d="M308.18 281.031H309.66V260.061H308.18V281.031Z" fill="black"/>
<path opacity="0.2" d="M304.92 281.031H306.4V260.061H304.92V281.031Z" fill="black"/>
<path opacity="0.2" d="M301.66 281.031H303.14V260.061H301.66V281.031Z" fill="black"/>
<path opacity="0.2" d="M298.4 281.031H299.88V260.061H298.4V281.031Z" fill="black"/>
<path opacity="0.2" d="M295.14 281.031H296.62V260.061H295.14V281.031Z" fill="black"/>
<path opacity="0.2" d="M291.88 281.031H293.36V260.061H291.88V281.031Z" fill="black"/>
<path opacity="0.2" d="M288.62 281.031H290.1V260.061H288.62V281.031Z" fill="black"/>
<path opacity="0.2" d="M285.36 281.031H286.84V260.061H285.36V281.031Z" fill="black"/>
<path opacity="0.2" d="M282.1 281.031H283.58V260.061H282.1V281.031Z" fill="black"/>
<path opacity="0.2" d="M278.83 281.031H280.31V260.061H278.83V281.031Z" fill="black"/>
<path opacity="0.2" d="M275.57 281.031H277.05V260.061H275.57V281.031Z" fill="black"/>
<path opacity="0.2" d="M272.31 281.031H273.79V260.061H272.31V281.031Z" fill="black"/>
<path opacity="0.2" d="M269.05 281.031H270.53V260.061H269.05V281.031Z" fill="black"/>
<path opacity="0.2" d="M265.79 281.031H267.27V260.061H265.79V281.031Z" fill="black"/>
<path opacity="0.2" d="M262.53 281.031H264.01V260.061H262.53V281.031Z" fill="black"/>
<path d="M196.06 281.961H254.97V259.131H196.06V281.961Z" fill="#F7C600"/>
<path opacity="0.4" d="M196.06 281.961H254.97V259.131H196.06V281.961Z" fill="#FAFAFA"/>
<path d="M196.06 259.121H180.93V281.951H196.06V259.121Z" fill="#F7C600"/>
<path opacity="0.4" d="M196.06 259.121H180.93V281.951H196.06V259.121Z" fill="#FAFAFA"/>
<path opacity="0.2" d="M196.06 259.121H180.93V281.951H196.06V259.121Z" fill="black"/>
<path opacity="0.2" d="M252.49 281.031H253.97V260.061H252.49V281.031Z" fill="black"/>
<path opacity="0.2" d="M249.23 281.031H250.71V260.061H249.23V281.031Z" fill="black"/>
<path opacity="0.2" d="M245.97 281.031H247.45V260.061H245.97V281.031Z" fill="black"/>
<path opacity="0.2" d="M242.71 281.031H244.19V260.061H242.71V281.031Z" fill="black"/>
<path opacity="0.2" d="M239.45 281.031H240.93V260.061H239.45V281.031Z" fill="black"/>
<path opacity="0.2" d="M236.19 281.031H237.67V260.061H236.19V281.031Z" fill="black"/>
<path opacity="0.2" d="M232.93 281.031H234.41V260.061H232.93V281.031Z" fill="black"/>
<path opacity="0.2" d="M229.67 281.031H231.15V260.061H229.67V281.031Z" fill="black"/>
<path opacity="0.2" d="M226.41 281.031H227.89V260.061H226.41V281.031Z" fill="black"/>
<path opacity="0.2" d="M223.15 281.031H224.63V260.061H223.15V281.031Z" fill="black"/>
<path opacity="0.2" d="M219.89 281.031H221.37V260.061H219.89V281.031Z" fill="black"/>
<path opacity="0.2" d="M216.63 281.031H218.11V260.061H216.63V281.031Z" fill="black"/>
<path opacity="0.2" d="M213.37 281.031H214.85V260.061H213.37V281.031Z" fill="black"/>
<path opacity="0.2" d="M210.11 281.031H211.59V260.061H210.11V281.031Z" fill="black"/>
<path opacity="0.2" d="M206.85 281.031H208.33V260.061H206.85V281.031Z" fill="black"/>
<path opacity="0.2" d="M203.59 281.031H205.07V260.061H203.59V281.031Z" fill="black"/>
<path opacity="0.2" d="M200.33 281.031H201.81V260.061H200.33V281.031Z" fill="black"/>
<path opacity="0.2" d="M197.07 281.031H198.55V260.061H197.07V281.031Z" fill="black"/>
<path d="M252.07 287.13H83.8398C83.7254 287.112 83.6085 287.116 83.4959 287.144C83.3833 287.171 83.2773 287.221 83.1842 287.29C83.091 287.359 83.0126 287.446 82.9534 287.545C82.8943 287.645 82.8557 287.755 82.8398 287.87V305.26C82.8882 305.435 82.9927 305.59 83.1372 305.7C83.2817 305.809 83.4583 305.869 83.6398 305.869C83.8214 305.869 83.998 305.809 84.1425 305.7C84.287 305.59 84.3915 305.435 84.4398 305.26V288.37H101.6V305.26C101.648 305.435 101.753 305.59 101.897 305.7C102.042 305.809 102.218 305.869 102.4 305.869C102.581 305.869 102.758 305.809 102.903 305.7C103.047 305.59 103.151 305.435 103.2 305.26V288.37H120.31V305.26C120.358 305.435 120.463 305.59 120.607 305.7C120.752 305.809 120.928 305.869 121.11 305.869C121.291 305.869 121.468 305.809 121.613 305.7C121.757 305.59 121.861 305.435 121.91 305.26V288.37H139V305.26C139.048 305.435 139.153 305.59 139.297 305.7C139.442 305.809 139.618 305.869 139.8 305.869C139.981 305.869 140.158 305.809 140.303 305.7C140.447 305.59 140.551 305.435 140.6 305.26V288.37H157.7V305.26C157.745 305.44 157.849 305.599 157.994 305.712C158.14 305.826 158.32 305.888 158.505 305.888C158.69 305.888 158.869 305.826 159.015 305.712C159.161 305.599 159.265 305.44 159.31 305.26V288.37H176.41V305.26C176.458 305.435 176.563 305.59 176.707 305.7C176.852 305.809 177.028 305.869 177.21 305.869C177.391 305.869 177.568 305.809 177.713 305.7C177.857 305.59 177.961 305.435 178.01 305.26V288.37H195.12V305.26C195.168 305.435 195.273 305.59 195.417 305.7C195.562 305.809 195.738 305.869 195.92 305.869C196.101 305.869 196.278 305.809 196.423 305.7C196.567 305.59 196.671 305.435 196.72 305.26V288.37H213.83V305.26C213.878 305.435 213.983 305.59 214.127 305.7C214.272 305.809 214.448 305.869 214.63 305.869C214.811 305.869 214.988 305.809 215.133 305.7C215.277 305.59 215.381 305.435 215.43 305.26V288.37H232.54V305.26C232.588 305.435 232.693 305.59 232.837 305.7C232.982 305.809 233.158 305.869 233.34 305.869C233.521 305.869 233.698 305.809 233.843 305.7C233.987 305.59 234.091 305.435 234.14 305.26V288.37H251.24V305.26C251.288 305.435 251.393 305.59 251.537 305.7C251.682 305.809 251.858 305.869 252.04 305.869C252.221 305.869 252.398 305.809 252.543 305.7C252.687 305.59 252.791 305.435 252.84 305.26V287.75C252.813 287.569 252.718 287.405 252.576 287.29C252.433 287.175 252.253 287.118 252.07 287.13Z" fill="#F7C600"/>
<path opacity="0.6" d="M252.07 287.13H83.8398C83.7254 287.112 83.6085 287.116 83.4959 287.144C83.3833 287.171 83.2773 287.221 83.1842 287.29C83.091 287.359 83.0126 287.446 82.9534 287.545C82.8943 287.645 82.8557 287.755 82.8398 287.87V305.26C82.8882 305.435 82.9927 305.59 83.1372 305.7C83.2817 305.809 83.4583 305.869 83.6398 305.869C83.8214 305.869 83.998 305.809 84.1425 305.7C84.287 305.59 84.3915 305.435 84.4398 305.26V288.37H101.6V305.26C101.648 305.435 101.753 305.59 101.897 305.7C102.042 305.809 102.218 305.869 102.4 305.869C102.581 305.869 102.758 305.809 102.903 305.7C103.047 305.59 103.151 305.435 103.2 305.26V288.37H120.31V305.26C120.358 305.435 120.463 305.59 120.607 305.7C120.752 305.809 120.928 305.869 121.11 305.869C121.291 305.869 121.468 305.809 121.613 305.7C121.757 305.59 121.861 305.435 121.91 305.26V288.37H139V305.26C139.048 305.435 139.153 305.59 139.297 305.7C139.442 305.809 139.618 305.869 139.8 305.869C139.981 305.869 140.158 305.809 140.303 305.7C140.447 305.59 140.551 305.435 140.6 305.26V288.37H157.7V305.26C157.745 305.44 157.849 305.599 157.994 305.712C158.14 305.826 158.32 305.888 158.505 305.888C158.69 305.888 158.869 305.826 159.015 305.712C159.161 305.599 159.265 305.44 159.31 305.26V288.37H176.41V305.26C176.458 305.435 176.563 305.59 176.707 305.7C176.852 305.809 177.028 305.869 177.21 305.869C177.391 305.869 177.568 305.809 177.713 305.7C177.857 305.59 177.961 305.435 178.01 305.26V288.37H195.12V305.26C195.168 305.435 195.273 305.59 195.417 305.7C195.562 305.809 195.738 305.869 195.92 305.869C196.101 305.869 196.278 305.809 196.423 305.7C196.567 305.59 196.671 305.435 196.72 305.26V288.37H213.83V305.26C213.878 305.435 213.983 305.59 214.127 305.7C214.272 305.809 214.448 305.869 214.63 305.869C214.811 305.869 214.988 305.809 215.133 305.7C215.277 305.59 215.381 305.435 215.43 305.26V288.37H232.54V305.26C232.588 305.435 232.693 305.59 232.837 305.7C232.982 305.809 233.158 305.869 233.34 305.869C233.521 305.869 233.698 305.809 233.843 305.7C233.987 305.59 234.091 305.435 234.14 305.26V288.37H251.24V305.26C251.288 305.435 251.393 305.59 251.537 305.7C251.682 305.809 251.858 305.869 252.04 305.869C252.221 305.869 252.398 305.809 252.543 305.7C252.687 305.59 252.791 305.435 252.84 305.26V287.75C252.813 287.569 252.718 287.405 252.576 287.29C252.433 287.175 252.253 287.118 252.07 287.13Z" fill="#FAFAFA"/>
<path d="M288.8 304.78C292.186 304.78 295.466 303.603 298.08 301.45L329.2 275.82C331.816 273.666 335.101 272.488 338.49 272.49H471.49C471.885 272.492 472.276 272.58 472.634 272.747C472.992 272.915 473.31 273.158 473.565 273.461C473.82 273.763 474.006 274.118 474.11 274.499C474.215 274.881 474.235 275.28 474.17 275.67C470.12 300.45 462.56 316.76 453.8 331.08C452.43 333.33 451.03 335.53 449.61 337.71L448.2 339.84C446.72 342.06 445.2 344.26 443.74 346.47C437.866 354.853 432.425 363.531 427.44 372.47C422.232 382.089 417.959 392.185 414.68 402.62C413.413 406.578 410.921 410.031 407.563 412.479C404.205 414.928 400.156 416.245 396 416.24H100.71C96.1896 416.243 91.8081 414.679 88.3111 411.814C84.8141 408.95 82.4178 404.962 81.5299 400.53L75.8899 372.42L70.6899 346.47L69.3599 339.84L68.9299 337.71L67.6099 331.08L62.9999 308C62.9217 307.606 62.9316 307.2 63.0289 306.811C63.1262 306.421 63.3086 306.058 63.5629 305.747C63.8172 305.437 64.1371 305.186 64.4996 305.014C64.8622 304.841 65.2584 304.751 65.6599 304.75L288.8 304.78ZM431 283.69C431.28 283.976 431.615 284.203 431.984 284.358C432.353 284.512 432.75 284.591 433.15 284.59H458.51C459.321 284.59 460.1 284.268 460.674 283.694C461.247 283.12 461.57 282.342 461.57 281.53C461.57 280.719 461.247 279.94 460.674 279.366C460.1 278.793 459.321 278.47 458.51 278.47H433.1C432.289 278.473 431.512 278.796 430.939 279.369C430.366 279.943 430.043 280.719 430.04 281.53C430.045 281.937 430.133 282.337 430.298 282.709C430.463 283.08 430.702 283.414 431 283.69ZM377.33 279.37C376.758 278.796 375.981 278.472 375.17 278.47H349.76C349.154 278.467 348.56 278.644 348.055 278.98C347.55 279.315 347.157 279.794 346.925 280.354C346.693 280.914 346.633 281.531 346.754 282.125C346.874 282.719 347.169 283.264 347.6 283.69C347.881 283.977 348.217 284.205 348.589 284.36C348.96 284.514 349.358 284.593 349.76 284.59H375.12C375.726 284.594 376.32 284.416 376.825 284.081C377.33 283.745 377.723 283.267 377.955 282.706C378.187 282.146 378.246 281.53 378.126 280.935C378.006 280.341 377.711 279.796 377.28 279.37H377.33ZM419 279.37C418.719 279.083 418.382 278.856 418.011 278.701C417.64 278.546 417.242 278.468 416.84 278.47H391.43C390.824 278.467 390.23 278.644 389.725 278.98C389.22 279.315 388.827 279.794 388.595 280.354C388.363 280.914 388.303 281.531 388.424 282.125C388.544 282.719 388.839 283.264 389.27 283.69C389.551 283.977 389.887 284.205 390.259 284.36C390.63 284.514 391.028 284.593 391.43 284.59H416.79C417.396 284.594 417.99 284.416 418.495 284.081C419 283.745 419.393 283.267 419.625 282.706C419.857 282.146 419.916 281.53 419.796 280.935C419.676 280.341 419.381 279.796 418.95 279.37H419Z" fill="#F7C600"/>
<path opacity="0.3" d="M68.9297 337.711L69.3597 339.841L70.6897 346.471H443.75C445.25 344.261 446.75 342.061 448.21 339.841L449.62 337.711H68.9297Z" fill="black"/>
<path opacity="0.3" d="M301.81 330.24H344.08C347.918 330.24 351.03 327.129 351.03 323.29V323.28C351.03 319.442 347.918 316.33 344.08 316.33H301.81C297.971 316.33 294.86 319.442 294.86 323.28V323.29C294.86 327.129 297.971 330.24 301.81 330.24Z" fill="black"/>
<path opacity="0.3" d="M232.55 330.24H274.82C278.658 330.24 281.77 327.129 281.77 323.29V323.28C281.77 319.442 278.658 316.33 274.82 316.33H232.55C228.712 316.33 225.6 319.442 225.6 323.28V323.29C225.6 327.129 228.712 330.24 232.55 330.24Z" fill="black"/>
<path opacity="0.3" d="M371.06 330.24H413.33C417.168 330.24 420.28 327.129 420.28 323.29V323.28C420.28 319.442 417.168 316.33 413.33 316.33H371.06C367.221 316.33 364.11 319.442 364.11 323.28V323.29C364.11 327.129 367.221 330.24 371.06 330.24Z" fill="black"/>
<path opacity="0.3" d="M414.69 402.58C413.43 406.547 410.939 410.01 407.578 412.466C404.218 414.922 400.162 416.244 396 416.24H100.71C96.1893 416.242 91.8078 414.678 88.3109 411.814C84.8139 408.95 82.4175 404.962 81.5296 400.53L75.8896 372.42H427.45C422.243 382.043 417.97 392.142 414.69 402.58Z" fill="black"/>
</g>
<defs>
<filter id="filter0_d_5560_203483" x="0" y="0" width="508" height="508" filterUnits="userSpaceOnUse" color-interpolation-filters="sRGB">
<feFlood flood-opacity="0" result="BackgroundImageFix"/>
<feColorMatrix in="SourceAlpha" type="matrix" values="0 0 0 0 0 0 0 0 0 0 0 0 0 0 0 0 0 0 127 0" result="hardAlpha"/>
<feOffset dy="4"/>
<feGaussianBlur stdDeviation="2"/>
<feComposite in2="hardAlpha" operator="out"/>
<feColorMatrix type="matrix" values="0 0 0 0 0 0 0 0 0 0 0 0 0 0 0 0 0 0 0.25 0"/>
<feBlend mode="normal" in2="BackgroundImageFix" result="effect1_dropShadow_5560_203483"/>
<feBlend mode="normal" in="SourceGraphic" in2="effect1_dropShadow_5560_203483" result="shape"/>
</filter>
</defs>
</svg>
