<svg width="500" height="500" viewBox="0 0 500 500" fill="none" xmlns="http://www.w3.org/2000/svg">
<g filter="url(#filter0_d_5560_203485)">
<path d="M250 486.18C383.929 486.18 492.5 422.604 492.5 344.18C492.5 265.755 383.929 202.18 250 202.18C116.071 202.18 7.5 265.755 7.5 344.18C7.5 422.604 116.071 486.18 250 486.18Z" fill="#FAFAFA"/>
<path d="M150 229.13L31.5996 297.5C29.0996 298.95 29.0996 301.29 31.5996 302.73L306.31 461.52C309.26 463.037 312.644 463.489 315.89 462.8C368.03 448.52 408.77 424.19 434.89 394.52C435.337 394.047 435.668 393.477 435.856 392.855C436.044 392.233 436.084 391.575 435.974 390.934C435.863 390.293 435.604 389.687 435.218 389.164C434.832 388.64 434.329 388.214 433.75 387.92L159.09 229.13C157.682 228.412 156.125 228.037 154.545 228.037C152.965 228.037 151.407 228.412 150 229.13Z" fill="#EBEBEB"/>
<path d="M113.749 396.73C133.151 396.73 148.879 387.65 148.879 376.45C148.879 365.25 133.151 356.17 113.749 356.17C94.3474 356.17 78.6191 365.25 78.6191 376.45C78.6191 387.65 94.3474 396.73 113.749 396.73Z" fill="#EBEBEB"/>
<path d="M396.909 275C383.909 282.5 383.909 294.66 396.909 302.16C409.909 309.66 430.909 309.66 443.909 302.16C456.909 294.66 456.909 282.5 443.909 275C430.909 267.5 409.889 267.5 396.909 275Z" fill="#EBEBEB"/>
<path d="M438.001 211.42L435.381 210.09L422.871 238V204.49H418.001V231.49L405.251 207.54L402.761 209.09L418.001 237.09V287.91C418.019 288.126 418.096 288.334 418.223 288.51C418.349 288.686 418.522 288.824 418.721 288.91C419.257 289.187 419.852 289.331 420.456 289.331C421.059 289.331 421.654 289.187 422.191 288.91C422.387 288.822 422.557 288.683 422.682 288.507C422.807 288.331 422.882 288.125 422.901 287.91V244.5L438.001 211.42Z" fill="#E0E0E0"/>
<path d="M483.24 187.363C488.014 167.137 475.487 146.87 455.26 142.096C435.034 137.322 414.767 149.849 409.993 170.075C405.219 190.302 417.746 210.569 437.972 215.343C458.199 220.117 478.466 207.59 483.24 187.363Z" fill="#F0F0F0"/>
<path d="M458.431 169.11C463.281 153.82 468.431 147.84 465.171 145.98C458.937 142.454 451.826 140.78 444.673 141.155C437.521 141.53 430.624 143.939 424.793 148.098C418.962 152.257 414.439 157.993 411.755 164.634C409.071 171.275 408.339 178.543 409.643 185.586C410.947 192.628 414.234 199.152 419.118 204.391C424.001 209.631 430.278 213.367 437.212 215.162C444.146 216.958 451.448 216.737 458.26 214.526C465.073 212.315 471.113 208.205 475.671 202.68C464.521 205.94 452.141 188.93 458.431 169.11Z" fill="#E0E0E0"/>
<path d="M413.8 189.38C413.8 194.611 412.249 199.725 409.343 204.075C406.436 208.424 402.305 211.814 397.472 213.816C392.639 215.818 387.321 216.342 382.19 215.321C377.059 214.301 372.347 211.782 368.647 208.083C364.948 204.384 362.429 199.671 361.409 194.54C360.388 189.409 360.912 184.091 362.914 179.258C364.916 174.425 368.306 170.294 372.656 167.387C377.005 164.481 382.119 162.93 387.35 162.93C394.365 162.93 401.093 165.716 406.053 170.677C411.014 175.637 413.8 182.365 413.8 189.38Z" fill="#F0F0F0"/>
<path d="M387.35 162.93C381.799 162.928 376.389 164.677 371.89 167.93C371.17 184.09 384.89 199.85 381.06 205.14C377.23 210.43 367.78 207.19 364.49 202.69C366.823 206.7 370.17 210.026 374.194 212.334C378.219 214.642 382.78 215.851 387.419 215.84C392.058 215.828 396.613 214.596 400.626 212.268C404.639 209.94 407.969 206.598 410.282 202.576C412.595 198.554 413.809 193.995 413.803 189.355C413.797 184.716 412.571 180.16 410.248 176.144C407.924 172.128 404.586 168.794 400.567 166.477C396.548 164.159 391.99 162.939 387.35 162.94V162.93Z" fill="#E0E0E0"/>
<path d="M469 160.86C469.002 170.459 466.158 179.842 460.827 187.824C455.495 195.806 447.917 202.028 439.049 205.703C430.181 209.378 420.423 210.34 411.009 208.469C401.594 206.597 392.946 201.976 386.158 195.189C379.37 188.403 374.747 179.755 372.874 170.341C371 160.927 371.961 151.169 375.634 142.301C379.306 133.432 385.527 125.852 393.508 120.519C401.489 115.186 410.872 112.34 420.47 112.34C433.34 112.34 445.682 117.451 454.783 126.55C463.884 135.649 468.998 147.991 469 160.86Z" fill="#F0F0F0"/>
<path d="M467.66 172.001C465.961 179.237 462.622 185.987 457.9 191.729C453.179 197.47 447.201 202.05 440.429 205.115C433.656 208.18 426.27 209.647 418.841 209.405C411.411 209.162 404.136 207.216 397.578 203.715C391.02 200.215 385.354 195.255 381.018 189.218C376.681 183.18 373.789 176.227 372.566 168.895C371.343 161.563 371.82 154.048 373.962 146.929C376.104 139.811 379.853 133.28 384.92 127.841C388.29 124.221 388.5 124.071 385.18 127.571C384.336 131.204 383.906 134.921 383.9 138.651C383.895 148.363 386.806 157.853 392.255 165.892C397.705 173.932 405.442 180.15 414.465 183.743C423.489 187.336 433.383 188.137 442.866 186.044C452.35 183.95 460.988 179.058 467.66 172.001Z" fill="#EBEBEB"/>
<path d="M82.7501 39.9995L75.0001 44.4695C75.0422 44.1378 75.0656 43.8039 75.0701 43.4695V41.1995C75.0701 37.1995 72.2601 35.5995 68.8101 37.5895C67.3221 38.5028 66.0496 39.7276 65.0801 41.1795C64.5101 36.1795 60.5701 34.2895 55.7901 37.0495C50.6201 40.0495 46.4301 47.2995 46.4301 53.2695V56.6195C46.3937 57.9594 46.6639 59.29 47.2201 60.5095L40.8001 64.2195C39.7913 64.8771 38.9515 65.7628 38.3487 66.8052C37.7458 67.8476 37.3969 69.0173 37.3301 70.2195C37.3301 72.4295 38.8801 73.3295 40.8001 72.2195L82.7501 47.9995C83.7602 47.3425 84.6015 46.4571 85.206 45.4148C85.8106 44.3725 86.1614 43.2025 86.2301 41.9995C86.2301 39.7895 84.6701 38.8995 82.7501 39.9995Z" fill="#F0F0F0"/>
<path d="M130 56.2696L124.16 59.6395C124.192 59.384 124.208 59.127 124.21 58.8695V57.1796C124.21 54.1796 122.09 52.9396 119.48 54.4496C118.362 55.1427 117.404 56.0666 116.67 57.1595C116.24 53.3695 113.27 51.9596 109.67 54.0396C107.614 55.3821 105.903 57.1895 104.675 59.3159C103.447 61.4422 102.736 63.8277 102.6 66.2795V68.8095C102.577 69.8222 102.782 70.8271 103.2 71.7495L98.3505 74.5496C97.588 75.0475 96.9535 75.718 96.4983 76.5067C96.0432 77.2954 95.7801 78.1803 95.7305 79.0895C95.7305 80.7595 96.9005 81.4395 98.3505 80.5995L130 62.3195C130.764 61.8228 131.399 61.1526 131.855 60.3636C132.31 59.5746 132.572 58.6892 132.62 57.7795C132.59 56.1095 131.42 55.4296 130 56.2696Z" fill="#F0F0F0"/>
<path d="M109.18 302.669C109.257 305.803 108.668 308.919 107.45 311.809C106.537 313.956 104.983 315.768 103 316.999L102.85 317.089L91.7102 323.509L87.1902 314.509L86.8802 313.909C84.3381 311.925 82.0686 309.615 80.1302 307.039C79.6302 306.409 79.1302 305.759 78.7102 305.089C75.9334 301.057 73.7699 296.635 72.2902 291.969C71.1396 288.44 70.4867 284.768 70.3502 281.059L70.2702 280.909L69.1302 278.649L66.7002 273.999L65.7002 271.999L75.6302 266.249L76.3002 265.859L76.5802 265.699C78.1042 264.835 79.8284 264.387 81.5802 264.399C84.4521 264.495 87.2485 265.344 89.6902 266.859C100.47 273.129 109.18 289.139 109.18 302.669Z" fill="#263238"/>
<path d="M59 286.738C59 298.408 65.48 311.918 74.15 319.388C75.4736 320.533 76.8996 321.554 78.41 322.438C89.16 328.658 97.88 322.708 97.87 309.168C97.87 298.948 92.87 287.298 85.87 279.548C85.87 279.548 85.87 279.548 85.81 279.488C83.6804 277.104 81.1983 275.061 78.45 273.428C67.66 267.268 59 273.208 59 286.738Z" fill="#37474F"/>
<path d="M78.4005 281.638C71.5705 277.688 66.0205 281.798 66.0205 290.828C66.0205 299.858 71.5705 310.368 78.4005 314.318C85.2305 318.268 90.7905 314.148 90.7905 305.128C90.7905 296.108 85.2405 285.588 78.4005 281.638Z" fill="#455A64"/>
<path d="M59 286.738C59 298.408 65.48 311.918 74.15 319.388C68.1287 312.569 63.8893 304.365 61.81 295.508C60.16 287.708 60.81 276.508 67.48 273.678C74.15 270.848 83.02 276.808 85.81 279.528C83.6804 277.144 81.1983 275.101 78.45 273.468C67.66 267.268 59 273.208 59 286.738Z" fill="#455A64"/>
<path d="M78.4005 289.499C74.8505 287.449 71.9805 289.579 71.9805 294.269C71.9805 298.959 74.8505 304.409 78.4005 306.459C81.9505 308.509 84.8305 306.369 84.8305 301.689C84.8305 297.009 82.0005 291.549 78.4005 289.499Z" fill="#E0E0E0"/>
<path d="M76.3504 289.408C75.9104 289.151 75.4355 288.959 74.9404 288.838C73.1604 289.318 71.9404 291.268 71.9404 294.268C72.0548 297.824 73.3376 301.244 75.5904 303.998C75.8326 304.187 76.0864 304.361 76.3504 304.518C79.5104 306.338 82.0604 304.448 82.0604 300.278C82.0604 296.108 79.5104 291.238 76.3504 289.408Z" fill="#F5F5F5"/>
<path d="M64.8301 259.258V263.978L203.74 344.178V339.458L64.8301 259.258Z" fill="#455A64"/>
<path d="M107.7 288.74L100.11 284.35V310.14C100.11 311.53 101.11 312.09 102.28 311.39L108.28 307.94L107.71 307.6L107.7 288.74Z" fill="#F7C600"/>
<path opacity="0.7" d="M107.7 288.74L100.11 284.35V310.14C100.11 311.53 101.11 312.09 102.28 311.39L108.28 307.94L107.71 307.6L107.7 288.74Z" fill="white"/>
<path d="M107.7 288.738V302.888L142.45 322.948V308.798L107.7 288.738Z" fill="#37474F"/>
<path d="M142.45 322.949L107.7 302.889L105.68 304.089L142.45 325.289V322.949Z" fill="#263238"/>
<path d="M105.69 306.45V304.1L142.45 325.29V327.67L105.69 306.45Z" fill="#455A64"/>
<path d="M142.45 304.078V332.388L171.05 348.898V320.588L142.45 304.078Z" fill="#37474F"/>
<path d="M171.05 320.588V348.898L199.65 365.408V337.108L171.05 320.588Z" fill="#37474F"/>
<path d="M199.65 365.41L207.82 360.69V337.1L203.74 339.46L199.65 337.11V365.41Z" fill="#263238"/>
<path d="M170.021 348.298V319.998L172.061 321.178V349.478L170.021 348.298Z" fill="#263238"/>
<path d="M184.32 337.689V332.969L186.36 334.149L186.37 338.869L184.32 337.689Z" fill="#E0E0E0"/>
<path d="M155.72 321.189V316.469L157.76 317.639L157.77 322.369L155.72 321.189Z" fill="#E0E0E0"/>
<path opacity="0.2" d="M140.36 302.869V321.749L138.37 322.939V325.309L142.45 327.669V304.079L140.36 302.869Z" fill="black"/>
<path d="M56.6602 254.548L203.74 339.458L203.75 330.058L56.6602 245.148V254.548Z" fill="#F7C600"/>
<g opacity="0.6">
<path d="M56.6602 254.548L203.74 339.458L203.75 330.058L56.6602 245.148V254.548Z" fill="white"/>
</g>
<path d="M203.74 339.458L207.82 337.098V327.668L203.74 330.028V339.458Z" fill="#F7C600"/>
<g opacity="0.5">
<path d="M203.74 339.458L207.82 337.098V327.668L203.74 330.028V339.458Z" fill="white"/>
</g>
<g opacity="0.1">
<path d="M203.74 339.458L207.82 337.098V327.668L203.74 330.028V339.458Z" fill="black"/>
</g>
<path d="M158.8 186.139L56.6602 245.149L203.74 330.029L305.88 271.059L158.8 186.139Z" fill="#F7C600"/>
<g opacity="0.8">
<path d="M158.8 186.139L56.6602 245.149L203.74 330.029L305.88 271.059L158.8 186.139Z" fill="white"/>
</g>
<path d="M68.9102 129.529L199.65 205.009L293.62 150.759L162.88 75.2793L68.9102 129.529Z" fill="#455A64"/>
<path d="M199.65 322.949V205.009L68.9102 129.529V247.469L199.65 322.949Z" fill="#37474F"/>
<path d="M199.65 322.95L293.62 268.7V150.76L199.65 205.01V322.95Z" fill="#263238"/>
<path d="M161.91 286.738C161.171 286.221 160.566 285.534 160.145 284.736C159.725 283.938 159.5 283.051 159.49 282.148V275.148L164.41 278.038L164.73 277.978V278.448V284.728C164.765 285.14 164.692 285.554 164.516 285.928C164.34 286.302 164.069 286.623 163.73 286.858C163.494 286.988 163.23 287.057 162.96 287.058C162.589 287.041 162.228 286.931 161.91 286.738ZM162.46 279.178L162.1 281.638H160.28V282.148C160.294 282.909 160.481 283.657 160.828 284.335C161.175 285.012 161.671 285.602 162.28 286.058C162.432 286.167 162.61 286.234 162.796 286.253C162.982 286.273 163.169 286.243 163.34 286.168C163.55 285.997 163.713 285.775 163.812 285.523C163.912 285.27 163.946 284.997 163.91 284.728V278.908L162.46 279.178ZM161.76 278.498L163.21 278.238L160.28 276.508V280.848H161.42L161.76 278.498Z" fill="#E0E0E0"/>
<path d="M162.11 292.07C162.162 292.07 162.213 292.059 162.261 292.039C162.309 292.019 162.353 291.989 162.389 291.952C162.426 291.915 162.454 291.871 162.473 291.822C162.492 291.774 162.501 291.722 162.5 291.67V286.4C162.5 286.296 162.459 286.197 162.386 286.124C162.312 286.051 162.213 286.01 162.11 286.01C162.006 286.01 161.907 286.051 161.834 286.124C161.761 286.197 161.72 286.296 161.72 286.4V291.67C161.719 291.722 161.728 291.774 161.747 291.822C161.766 291.871 161.794 291.915 161.83 291.952C161.867 291.989 161.91 292.019 161.958 292.039C162.006 292.059 162.058 292.07 162.11 292.07Z" fill="#E0E0E0"/>
<path d="M164.4 293.389C164.47 293.39 164.538 293.372 164.598 293.337C164.658 293.301 164.707 293.25 164.74 293.189C164.767 293.145 164.785 293.095 164.792 293.044C164.8 292.992 164.797 292.94 164.784 292.89C164.771 292.839 164.748 292.792 164.716 292.751C164.685 292.71 164.645 292.675 164.6 292.649L160 289.999C159.957 289.971 159.908 289.952 159.857 289.944C159.806 289.936 159.754 289.939 159.704 289.952C159.654 289.965 159.608 289.988 159.567 290.021C159.527 290.053 159.494 290.093 159.47 290.139C159.443 290.184 159.426 290.233 159.418 290.284C159.411 290.336 159.413 290.388 159.427 290.439C159.44 290.489 159.463 290.536 159.494 290.577C159.526 290.619 159.565 290.653 159.61 290.679L164.2 293.329C164.261 293.365 164.33 293.385 164.4 293.389Z" fill="#E0E0E0"/>
<path d="M178.15 301.54C178.301 301.544 178.45 301.506 178.58 301.43C178.74 301.332 178.868 301.191 178.951 301.023C179.035 300.855 179.069 300.667 179.05 300.48V299.4C179.035 299.306 178.987 299.221 178.915 299.159C178.842 299.097 178.75 299.063 178.655 299.063C178.56 299.063 178.468 299.097 178.396 299.159C178.323 299.221 178.275 299.306 178.26 299.4V300.48C178.26 300.64 178.26 300.73 178.18 300.75C178.091 300.761 178.001 300.736 177.93 300.68C177.686 300.452 177.493 300.175 177.365 299.866C177.238 299.557 177.178 299.224 177.19 298.89V291.89C177.192 291.838 177.183 291.786 177.164 291.738C177.145 291.689 177.116 291.645 177.08 291.608C177.043 291.571 177 291.541 176.952 291.521C176.904 291.501 176.852 291.49 176.8 291.49C176.694 291.49 176.592 291.532 176.517 291.607C176.442 291.682 176.4 291.784 176.4 291.89V298.89C176.38 299.361 176.471 299.83 176.665 300.259C176.86 300.688 177.153 301.065 177.52 301.36C177.711 301.473 177.928 301.535 178.15 301.54Z" fill="#E0E0E0"/>
<path d="M171.811 289.349V289.119C171.69 288.443 171.781 287.747 172.071 287.124C172.36 286.502 172.835 285.984 173.429 285.641C174.024 285.298 174.709 285.146 175.393 285.206C176.077 285.267 176.725 285.537 177.251 285.979C178.722 286.937 179.946 288.229 180.823 289.749C181.701 291.27 182.207 292.976 182.301 294.729V295.409L171.811 289.349ZM173.811 286.349C173.406 286.639 173.082 287.027 172.869 287.476C172.656 287.926 172.56 288.422 172.59 288.919L181.471 294.049C181.275 292.562 180.761 291.135 179.964 289.865C179.166 288.595 178.104 287.511 176.851 286.689C176.249 286.314 175.559 286.104 174.851 286.079C174.493 286.072 174.139 286.154 173.821 286.319L173.811 286.349Z" fill="#E0E0E0"/>
<path d="M194.001 310.4C194.053 310.4 194.104 310.39 194.152 310.369C194.2 310.349 194.244 310.319 194.28 310.282C194.316 310.245 194.345 310.201 194.364 310.152C194.383 310.104 194.392 310.052 194.391 310V296.57C194.392 296.518 194.383 296.466 194.364 296.418C194.345 296.369 194.316 296.325 194.28 296.288C194.244 296.25 194.2 296.221 194.152 296.201C194.104 296.18 194.053 296.17 194.001 296.17C193.894 296.17 193.793 296.212 193.718 296.287C193.643 296.362 193.601 296.464 193.601 296.57V310C193.601 310.106 193.643 310.208 193.718 310.283C193.793 310.358 193.894 310.4 194.001 310.4Z" fill="#E0E0E0"/>
<path d="M195.171 299.629C195.223 299.64 195.278 299.64 195.331 299.629C195.378 299.609 195.421 299.579 195.457 299.541C195.493 299.504 195.521 299.46 195.54 299.411C195.558 299.363 195.567 299.311 195.566 299.259C195.564 299.208 195.552 299.157 195.531 299.109L194.131 295.859L192.561 297.679C192.493 297.759 192.46 297.862 192.468 297.966C192.477 298.07 192.526 298.167 192.606 298.234C192.685 298.302 192.788 298.335 192.892 298.327C192.996 298.318 193.093 298.269 193.161 298.189L193.901 297.329L194.811 299.419C194.845 299.485 194.896 299.539 194.96 299.577C195.024 299.614 195.097 299.632 195.171 299.629Z" fill="#E0E0E0"/>
<path d="M190.37 308.318C190.474 308.316 190.573 308.273 190.646 308.198C190.719 308.123 190.76 308.023 190.76 307.918V294.488C190.769 294.431 190.766 294.373 190.75 294.317C190.734 294.261 190.707 294.21 190.669 294.166C190.632 294.122 190.585 294.086 190.532 294.062C190.48 294.038 190.423 294.025 190.365 294.025C190.307 294.025 190.25 294.038 190.197 294.062C190.145 294.086 190.098 294.122 190.061 294.166C190.023 294.21 189.995 294.261 189.98 294.317C189.964 294.373 189.961 294.431 189.97 294.488V307.918C189.97 308.025 190.012 308.126 190.087 308.201C190.162 308.276 190.264 308.318 190.37 308.318Z" fill="#E0E0E0"/>
<path d="M191.52 297.549C191.573 297.559 191.627 297.559 191.68 297.549C191.727 297.529 191.77 297.499 191.806 297.461C191.842 297.424 191.87 297.38 191.889 297.331C191.908 297.283 191.916 297.231 191.915 297.179C191.913 297.128 191.901 297.076 191.88 297.029L190.48 293.779L188.91 295.589C188.855 295.67 188.832 295.768 188.845 295.865C188.858 295.962 188.906 296.051 188.98 296.115C189.054 296.178 189.148 296.213 189.246 296.212C189.343 296.211 189.437 296.175 189.51 296.109L190.25 295.249L191.16 297.339C191.194 297.405 191.246 297.459 191.309 297.496C191.373 297.534 191.446 297.552 191.52 297.549Z" fill="#E0E0E0"/>
<path d="M111.07 239.239V260.869C111.07 261.699 110.48 262.039 109.76 261.619L76.0004 242.119C75.6183 241.873 75.3001 241.54 75.0723 241.147C74.8445 240.754 74.7136 240.312 74.6904 239.859V218.219C74.6904 217.379 75.2804 217.049 76.0004 217.459L109.77 236.999C110.146 237.245 110.46 237.576 110.685 237.965C110.911 238.354 111.043 238.79 111.07 239.239Z" fill="#FAFAFA"/>
<path d="M76.7803 220.559L77.8703 221.189V240.849L76.7803 240.219V220.559Z" fill="#455A64"/>
<path d="M81.2197 223.119L83.0997 224.229V243.889L81.2197 242.789V223.119Z" fill="#455A64"/>
<path d="M85.6602 225.68L86.7502 226.31V245.98L85.6602 245.35V225.68Z" fill="#455A64"/>
<path d="M89.0098 227.58L91.1898 228.88V248.54L89.0098 247.25V227.58Z" fill="#455A64"/>
<path d="M94.54 230.809L95.63 231.439V251.099L94.54 250.469V230.809Z" fill="#455A64"/>
<path d="M97.7305 232.609L100.07 233.999V253.659L97.7305 252.279V232.609Z" fill="#455A64"/>
<path d="M103.42 235.93L104.51 236.56L104.5 256.23L103.42 255.59V235.93Z" fill="#455A64"/>
<path d="M105.95 237.369L106.49 237.689V257.349L105.95 257.039V237.369Z" fill="#455A64"/>
<path d="M101.391 234.859L101.941 235.169V254.839L101.391 254.519V234.859Z" fill="#455A64"/>
<path d="M92.4502 229.619L93.0002 229.939V249.599L92.4502 249.289V229.619Z" fill="#455A64"/>
<path d="M87.5498 226.809L88.0998 227.129V246.789L87.5498 246.479V226.809Z" fill="#455A64"/>
<path d="M84.0403 224.869L84.5803 225.189V244.849L84.0303 244.529L84.0403 224.869Z" fill="#455A64"/>
<path d="M79.2705 221.969L79.8105 222.289V241.949L79.2705 241.639V221.969Z" fill="#455A64"/>
<path d="M107.861 238.49L108.941 239.12V258.79L107.851 258.16L107.861 238.49Z" fill="#455A64"/>
<path d="M142.45 289.931V171.991L126.11 162.551V280.491L142.45 289.931Z" fill="#F7C600"/>
<g opacity="0.3">
<path d="M142.45 289.931V171.991L126.11 162.551V280.491L142.45 289.931Z" fill="black"/>
</g>
<path d="M238.48 300.54V182.6L254.82 173.16V291.1L238.48 300.54Z" fill="#F7C600"/>
<g opacity="0.45">
<path d="M238.48 300.54V182.6L254.82 173.16V291.1L238.48 300.54Z" fill="black"/>
</g>
<path d="M126.11 162.551L220.08 108.301L236.42 117.731L142.45 171.991L126.11 162.551Z" fill="#F7C600"/>
<g opacity="0.15">
<path d="M126.11 162.551L220.08 108.301L236.42 117.731L142.45 171.991L126.11 162.551Z" fill="black"/>
</g>
<g opacity="0.15">
<path d="M161.95 141.861L178.37 151.251L181.27 149.581L164.93 140.141L161.95 141.861Z" fill="black"/>
</g>
<path d="M254.82 173.159L124.06 97.6895L107.72 107.119L238.48 182.599L254.82 173.159Z" fill="#F7C600"/>
<g opacity="0.15">
<path d="M254.82 173.159L124.06 97.6895L107.72 107.119L238.48 182.599L254.82 173.159Z" fill="black"/>
</g>
<path opacity="0.2" d="M188.441 139C188.441 139 211.641 159.26 249.531 154.87C249.531 154.87 234.071 165.87 214.381 163.52C214.381 163.52 216.861 174.42 232.191 180.32C232.191 180.32 188.681 179.68 181.061 143.95L188.441 139Z" fill="black"/>
<path d="M187.47 136.91C187.47 136.91 210.67 156.17 248.56 151.78C248.56 151.78 232.48 162.31 212.79 159.93C212.79 159.93 215.61 167.11 232.19 175.86C232.19 175.86 190.78 176.23 180.08 141.86L187.47 136.91Z" fill="#F7C600"/>
<path opacity="0.25" d="M187.47 136.91C187.47 136.91 210.67 156.17 248.56 151.78C248.56 151.78 232.48 162.31 212.79 159.93C212.79 159.93 215.61 167.11 232.19 175.86C232.19 175.86 190.78 176.23 180.08 141.86L187.47 136.91Z" fill="white"/>
<path opacity="0.1" d="M185.84 146.621C194 148.791 202.09 145.271 202.09 145.271L200.57 144.601L200.34 144.491L198.99 143.861L198.69 143.711L197.46 143.101L197.15 142.951L196.03 142.361L195.72 142.191L194.72 141.631C194.627 141.572 194.53 141.518 194.43 141.471L193.49 140.921L193.23 140.771L192.37 140.251L192.13 140.101L191.36 139.631L191.14 139.481L190.47 139.041L190.27 138.911L189.69 138.521L189.51 138.401L189.03 138.061L188.87 137.951L188.48 137.661L188.35 137.561L188.05 137.351L187.92 137.241L187.75 137.111L187.63 137.011H187.56L187.5 136.961L185.08 138.581L180.08 141.901C190.78 176.281 232.18 175.901 232.19 175.901C210.88 174.871 188.5 158.701 185.84 146.621Z" fill="black"/>
<path d="M238.91 111.71C238.91 111.71 234.3 106.33 220.17 108.76C211.64 110.23 197.17 120.17 190.01 136.76C189.1 138.86 187.07 139.56 186.01 140.97C185.759 141.287 185.485 141.584 185.19 141.86H180.72C180.72 126.4 189.39 110.79 197.6 101.76C205.81 92.73 219.31 88.31 228.95 87.94C232.367 87.7861 235.773 88.4405 238.89 89.85C241.49 97.19 242.57 104.44 238.91 111.71Z" fill="#F7C600"/>
<path opacity="0.5" d="M238.91 111.71C238.91 111.71 234.3 106.33 220.17 108.76C211.64 110.23 197.17 120.17 190.01 136.76C189.1 138.86 187.07 139.56 186.01 140.97C185.759 141.287 185.485 141.584 185.19 141.86H180.72C180.72 126.4 189.39 110.79 197.6 101.76C205.81 92.73 219.31 88.31 228.95 87.94C232.367 87.7861 235.773 88.4405 238.89 89.85C241.49 97.19 242.57 104.44 238.91 111.71Z" fill="white"/>
<path opacity="0.3" d="M191 134.639C191 134.639 182.95 131.919 186.27 119.029C182.799 126.151 180.909 133.939 180.73 141.859H185.2C185.496 141.583 185.77 141.286 186.02 140.969C187.11 139.559 189.14 138.859 190.02 136.759C190.31 135.999 190.65 135.329 191 134.639Z" fill="#F7C600"/>
<path opacity="0.1" d="M191 134.639C191 134.639 182.95 131.919 186.27 119.029C182.799 126.151 180.909 133.939 180.73 141.859H185.2C185.496 141.583 185.77 141.286 186.02 140.969C187.11 139.559 189.14 138.859 190.02 136.759C190.31 135.999 190.65 135.329 191 134.639Z" fill="black"/>
<path opacity="0.3" d="M238.91 111.71C238.91 111.71 239.62 94.71 228.91 87.94C232.328 87.7861 235.733 88.4405 238.85 89.85C241.49 97.19 242.57 104.44 238.91 111.71Z" fill="#F7C600"/>
<path opacity="0.1" d="M238.91 111.71C238.91 111.71 239.62 94.71 228.91 87.94C232.328 87.7861 235.733 88.4405 238.85 89.85C241.49 97.19 242.57 104.44 238.91 111.71Z" fill="black"/>
<path d="M230.66 121.62C234.05 118.902 236.856 115.528 238.91 111.7C242.58 104.43 241.49 97.1798 238.91 89.8398C247.2 93.5098 252.15 104.28 254.04 112.96C255.04 117.82 255.16 122.06 254.34 124.01C252.02 129.48 238.4 151.59 180.12 141.85L180.19 135.73C194.73 134.85 220.22 130.41 230.66 121.62Z" fill="#F7C600"/>
<path opacity="0.4" d="M230.66 121.62C234.05 118.902 236.856 115.528 238.91 111.7C242.58 104.43 241.49 97.1798 238.91 89.8398C247.2 93.5098 252.15 104.28 254.04 112.96C255.04 117.82 255.16 122.06 254.34 124.01C252.02 129.48 238.4 151.59 180.12 141.85L180.19 135.73C194.73 134.85 220.22 130.41 230.66 121.62Z" fill="white"/>
<path opacity="0.2" d="M174.13 139C174.13 139 150.93 159.26 113.04 154.87C113.04 154.87 128.5 165.87 148.19 163.52C148.19 163.52 145.71 174.42 130.38 180.32C130.38 180.32 173.89 179.68 181.51 143.95L174.13 139Z" fill="black"/>
<path d="M175.1 136.91C175.1 136.91 151.9 156.17 114 151.78C114 151.78 130.08 162.31 149.77 159.93C149.77 159.93 146.95 167.11 130.37 175.86C130.37 175.86 171.78 176.23 182.48 141.86L175.1 136.91Z" fill="#F7C600"/>
<path opacity="0.25" d="M175.1 136.91C175.1 136.91 151.9 156.17 114 151.78C114 151.78 130.08 162.31 149.77 159.93C149.77 159.93 146.95 167.11 130.37 175.86C130.37 175.86 171.78 176.23 182.48 141.86L175.1 136.91Z" fill="white"/>
<path opacity="0.1" d="M176.74 146.621C168.57 148.791 160.48 145.271 160.48 145.271L162 144.601L162.23 144.491L163.58 143.861L163.88 143.711L165.11 143.101L165.42 142.951L166.55 142.361L166.85 142.191L167.85 141.631L168.14 141.471L169.08 140.921L169.34 140.771L170.2 140.251L170.44 140.101L171.21 139.631L171.43 139.481L172.1 139.041L172.3 138.911L172.88 138.521L173.06 138.401L173.55 138.061L173.7 137.951L174.09 137.661L174.22 137.561L174.52 137.351L174.65 137.241L174.82 137.111L174.94 137.011H175.01L175.07 136.961L177.49 138.581L182.49 141.901C171.79 176.281 130.39 175.901 130.38 175.901C151.69 174.871 174.07 158.701 176.74 146.621Z" fill="black"/>
<path d="M123.67 111.71C123.67 111.71 128.27 106.33 142.4 108.76C150.93 110.23 165.4 120.17 172.57 136.76C173.47 138.86 175.5 139.56 176.57 140.97C176.821 141.287 177.095 141.584 177.39 141.86H181.86C181.86 126.4 173.19 110.79 164.98 101.76C156.77 92.73 143.27 88.31 133.63 87.94C130.213 87.7861 126.807 88.4405 123.69 89.85C121.08 97.19 120 104.44 123.67 111.71Z" fill="#F7C600"/>
<path opacity="0.5" d="M123.67 111.71C123.67 111.71 128.27 106.33 142.4 108.76C150.93 110.23 165.4 120.17 172.57 136.76C173.47 138.86 175.5 139.56 176.57 140.97C176.821 141.287 177.095 141.584 177.39 141.86H181.86C181.86 126.4 173.19 110.79 164.98 101.76C156.77 92.73 143.27 88.31 133.63 87.94C130.213 87.7861 126.807 88.4405 123.69 89.85C121.08 97.19 120 104.44 123.67 111.71Z" fill="white"/>
<path opacity="0.3" d="M171.59 134.639C171.59 134.639 179.59 131.919 176.32 119.029C179.791 126.151 181.681 133.939 181.86 141.859H177.39C177.095 141.583 176.821 141.286 176.57 140.969C175.48 139.559 173.45 138.859 172.57 136.759C172.26 135.999 171.92 135.329 171.59 134.639Z" fill="#F7C600"/>
<path opacity="0.1" d="M171.59 134.639C171.59 134.639 179.59 131.919 176.32 119.029C179.791 126.151 181.681 133.939 181.86 141.859H177.39C177.095 141.583 176.821 141.286 176.57 140.969C175.48 139.559 173.45 138.859 172.57 136.759C172.26 135.999 171.92 135.329 171.59 134.639Z" fill="black"/>
<path opacity="0.3" d="M123.671 111.71C123.671 111.71 122.951 94.71 133.671 87.94C130.253 87.7861 126.848 88.4405 123.731 89.85C121.081 97.19 120.001 104.44 123.671 111.71Z" fill="#F7C600"/>
<path opacity="0.1" d="M123.671 111.71C123.671 111.71 122.951 94.71 133.671 87.94C130.253 87.7861 126.848 88.4405 123.731 89.85C121.081 97.19 120.001 104.44 123.671 111.71Z" fill="black"/>
<path d="M131.91 121.62C128.52 118.902 125.714 115.528 123.66 111.7C119.99 104.43 121.08 97.1798 123.66 89.8398C115.36 93.5098 110.41 104.28 108.53 112.96C107.53 117.82 107.4 122.06 108.22 124.01C110.54 129.48 124.16 151.59 182.44 141.85L182.38 135.73C167.84 134.85 142.35 130.41 131.91 121.62Z" fill="#F7C600"/>
<path opacity="0.4" d="M131.91 121.62C128.52 118.902 125.714 115.528 123.66 111.7C119.99 104.43 121.08 97.1798 123.66 89.8398C115.36 93.5098 110.41 104.28 108.53 112.96C107.53 117.82 107.4 122.06 108.22 124.01C110.54 129.48 124.16 151.59 182.44 141.85L182.38 135.73C167.84 134.85 142.35 130.41 131.91 121.62Z" fill="white"/>
<path d="M189.26 137.82C189.197 137.23 188.979 136.668 188.628 136.19C188.276 135.712 187.804 135.336 187.26 135.1C185.337 134.419 183.298 134.124 181.26 134.23C179.153 134.128 177.047 134.468 175.08 135.23C174.579 135.477 174.15 135.846 173.831 136.305C173.513 136.763 173.316 137.295 173.26 137.85C173.05 139.69 172.92 142.79 174.13 144.54C176.116 146.247 178.662 147.162 181.28 147.11C183.887 147.168 186.422 146.252 188.39 144.54C189.59 142.75 189.47 139.66 189.26 137.82Z" fill="#F7C600"/>
<path opacity="0.5" d="M189.26 137.82C189.197 137.23 188.979 136.668 188.628 136.19C188.276 135.712 187.804 135.336 187.26 135.1C185.337 134.419 183.298 134.124 181.26 134.23C179.153 134.128 177.047 134.468 175.08 135.23C174.579 135.477 174.15 135.846 173.831 136.305C173.513 136.763 173.316 137.295 173.26 137.85C173.05 139.69 172.92 142.79 174.13 144.54C176.116 146.247 178.662 147.162 181.28 147.11C183.887 147.168 186.422 146.252 188.39 144.54C189.59 142.75 189.47 139.66 189.26 137.82Z" fill="white"/>
<path opacity="0.3" d="M189.38 140.709C189.38 141.429 188.58 142.579 187.02 143.709C185.706 144.469 184.236 144.92 182.722 145.028C181.207 145.135 179.688 144.896 178.28 144.329C176.992 143.953 175.833 143.226 174.933 142.231C174.032 141.235 173.426 140.009 173.18 138.689C173.04 140.529 173.09 143.019 174.13 144.529C176.116 146.236 178.662 147.151 181.28 147.099C183.887 147.157 186.422 146.241 188.39 144.529C189.058 143.368 189.4 142.049 189.38 140.709Z" fill="#F7C600"/>
<path opacity="0.1" d="M189.38 140.709C189.38 141.429 188.58 142.579 187.02 143.709C185.706 144.469 184.236 144.92 182.722 145.028C181.207 145.135 179.688 144.896 178.28 144.329C176.992 143.953 175.833 143.226 174.933 142.231C174.032 141.235 173.426 140.009 173.18 138.689C173.04 140.529 173.09 143.019 174.13 144.529C176.116 146.236 178.662 147.151 181.28 147.099C183.887 147.157 186.422 146.241 188.39 144.529C189.058 143.368 189.4 142.049 189.38 140.709Z" fill="black"/>
<path d="M396.2 250.369L403.72 245.999C403.972 245.816 404.267 245.704 404.577 245.674C404.886 245.644 405.198 245.698 405.48 245.829C405.92 246.089 406.81 246.629 407.25 246.829C407.506 247.007 407.71 247.25 407.84 247.533C407.971 247.816 408.022 248.129 407.99 248.439V266.499C407.944 267.358 407.695 268.193 407.264 268.937C406.833 269.681 406.232 270.312 405.51 270.779L398 275.199C397.75 275.381 397.457 275.494 397.149 275.525C396.842 275.557 396.532 275.506 396.25 275.379C395.8 275.119 394.91 274.569 394.46 274.319C394.206 274.14 394.005 273.896 393.877 273.613C393.749 273.33 393.698 273.018 393.73 272.709V254.649C393.776 253.792 394.023 252.957 394.452 252.213C394.881 251.469 395.48 250.838 396.2 250.369Z" fill="#FAFAFA"/>
<path d="M393.72 254.649V272.709C393.687 273.018 393.737 273.33 393.865 273.613C393.994 273.897 394.196 274.14 394.45 274.319C394.89 274.559 395.56 274.989 396.19 275.319C395.956 275.134 395.773 274.893 395.656 274.619C395.539 274.345 395.492 274.046 395.52 273.749V255.709C395.547 254.85 395.795 254.013 396.24 253.279L394.45 252.219C394.002 252.953 393.75 253.789 393.72 254.649Z" fill="#E0E0E0"/>
<path d="M405.51 270.829L398 275.199C396.63 275.989 395.53 275.349 395.53 273.779V255.709C395.576 254.852 395.824 254.017 396.253 253.274C396.683 252.53 397.281 251.898 398 251.429L405.52 247.059C406.89 246.269 408 246.909 408 248.489V266.549C407.953 267.408 407.702 268.244 407.269 268.988C406.837 269.732 406.234 270.363 405.51 270.829Z" fill="#F0F0F0"/>
<path d="M395.76 285.839C395.65 285.836 395.543 285.805 395.448 285.749C395.354 285.693 395.275 285.614 395.22 285.519C395.179 285.448 395.153 285.37 395.142 285.288C395.131 285.207 395.137 285.125 395.158 285.046C395.18 284.967 395.216 284.893 395.267 284.828C395.317 284.763 395.379 284.709 395.45 284.669L400.69 281.669C400.785 281.614 400.864 281.535 400.918 281.44C400.972 281.346 401.001 281.238 401 281.129V261.319C400.989 261.23 400.997 261.14 401.023 261.054C401.049 260.969 401.094 260.89 401.153 260.823C401.212 260.756 401.285 260.702 401.366 260.665C401.448 260.628 401.536 260.609 401.625 260.609C401.715 260.609 401.803 260.628 401.885 260.665C401.966 260.702 402.039 260.756 402.098 260.823C402.157 260.89 402.201 260.969 402.228 261.054C402.254 261.14 402.262 261.23 402.25 261.319V281.099C402.25 281.429 402.163 281.753 401.998 282.039C401.833 282.325 401.596 282.563 401.31 282.729L396.07 285.729C395.98 285.794 395.872 285.832 395.76 285.839Z" fill="#263238"/>
<path d="M239.84 388.24L261.09 378.42C261.09 378.42 259.43 358.42 245.4 363.21C231.37 368 239.84 388.24 239.84 388.24Z" fill="#F7C600"/>
<g opacity="0.5">
<path d="M239.84 388.24L261.09 378.42C261.09 378.42 259.43 358.42 245.4 363.21C231.37 368 239.84 388.24 239.84 388.24Z" fill="black"/>
</g>
<path d="M251.53 385.739L247 376.659L257.88 370.359C261.35 368.359 265.95 368.599 271.01 371.519C281.76 377.729 290.47 393.729 290.47 407.269C290.47 414.349 288.08 419.359 284.26 421.629L284.1 421.719L272.95 428.159L268.12 418.579C258.93 411.599 251.88 397.819 251.53 385.739Z" fill="#263238"/>
<path d="M240.18 391.33C240.18 403 246.66 416.51 255.34 423.98C256.668 425.129 258.097 426.157 259.61 427.05C270.36 433.25 279.08 427.31 279.07 413.77C279.07 403.55 274.07 391.9 267.07 384.15L267.01 384.09C264.883 381.703 262.4 379.659 259.65 378.03C248.89 371.86 240.18 377.8 240.18 391.33Z" fill="#37474F"/>
<path d="M259.64 386.23C252.8 382.23 247.26 386.39 247.26 395.42C247.26 404.45 252.8 414.96 259.64 418.91C266.48 422.86 272.02 418.74 272.02 409.72C272.02 400.7 266.48 390.18 259.64 386.23Z" fill="#455A64"/>
<path d="M259.64 394.089C256.09 392.089 253.22 394.169 253.22 398.859C253.22 403.549 256.09 408.999 259.64 411.049C263.19 413.099 266.07 410.959 266.07 406.279C266.07 401.599 263.19 396.139 259.64 394.089Z" fill="#E0E0E0"/>
<path d="M257.59 394C257.149 393.744 256.674 393.552 256.18 393.43C254.4 393.91 253.18 395.86 253.18 398.86C253.293 402.395 254.557 405.798 256.78 408.55C257.027 408.737 257.284 408.91 257.55 409.07C260.71 410.89 263.26 409 263.26 404.83C263.26 400.66 260.75 395.82 257.59 394Z" fill="#F5F5F5"/>
<path d="M240.18 391.33C240.18 403 246.66 416.51 255.34 423.98C249.318 417.161 245.079 408.957 243 400.1C241.35 392.3 242 381.1 248.67 378.27C255.34 375.44 264.21 381.4 267 384.12C264.873 381.733 262.39 379.689 259.64 378.06C248.89 371.86 240.18 377.8 240.18 391.33Z" fill="#455A64"/>
<path d="M315.32 431.789L296.07 420.669L293.54 419.209L288.69 416.389L286.39 415.049C286.472 414.832 286.506 414.6 286.49 414.369C286.57 414.018 286.6 413.658 286.58 413.299C286.58 398.409 276.13 380.299 263.17 372.859C261.954 372.153 260.687 371.538 259.38 371.019C258.81 370.799 258.27 370.609 257.73 370.449C247.49 367.349 239.86 373.569 239.86 386.309V388.239L207.86 369.749V223.879L247.63 246.879L282.35 272.449L298.09 348.999L310.3 366.939L310.95 367.889L318.41 378.829L320.83 408.599L321.43 415.109L321.69 417.789L322.29 424.229L322.57 427.229C322.645 428.11 322.476 428.995 322.082 429.786C321.687 430.578 321.082 431.246 320.334 431.716C319.585 432.187 318.722 432.443 317.837 432.456C316.953 432.469 316.082 432.238 315.32 431.789Z" fill="#F7C600"/>
<g opacity="0.15">
<path d="M315.32 431.789L296.07 420.669L293.54 419.209L288.69 416.389L286.39 415.049C286.472 414.832 286.506 414.6 286.49 414.369C286.57 414.018 286.6 413.658 286.58 413.299C286.58 398.409 276.13 380.299 263.17 372.859C261.954 372.153 260.687 371.538 259.38 371.019C258.81 370.799 258.27 370.609 257.73 370.449C247.49 367.349 239.86 373.569 239.86 386.309V388.239L207.86 369.749V223.879L247.63 246.879L282.35 272.449L298.09 348.999L310.3 366.939L310.95 367.889L318.41 378.829L320.83 408.599L321.43 415.109L321.69 417.789L322.29 424.229L322.57 427.229C322.645 428.11 322.476 428.995 322.082 429.786C321.687 430.578 321.082 431.246 320.334 431.716C319.585 432.187 318.722 432.443 317.837 432.456C316.953 432.469 316.082 432.238 315.32 431.789Z" fill="black"/>
</g>
<path d="M263.2 274.809V321.999C263.2 323.739 261.99 324.439 260.49 323.569L221.35 300.999C220.558 300.484 219.898 299.789 219.426 298.97C218.953 298.152 218.68 297.233 218.63 296.289V246.619C218.63 244.889 219.84 244.189 221.35 245.049L244.88 258.639C246.38 259.509 248.73 261.039 250.12 262.069L260.67 269.819C261.415 270.43 262.024 271.189 262.46 272.048C262.896 272.907 263.148 273.847 263.2 274.809Z" fill="#455A64"/>
<path d="M275.78 332.359C274.461 331.501 273.364 330.343 272.577 328.981C271.79 327.619 271.335 326.09 271.25 324.519V282.789C271.25 279.899 272.32 278.359 273.64 279.349L276.03 281.139C277.809 282.626 279.07 284.639 279.63 286.889L289.27 336.989C289.66 338.989 288.56 339.739 286.83 338.729L275.78 332.359Z" fill="#455A64"/>
<g opacity="0.15">
<path d="M265.19 267.57L249.38 256.05C248.2 255.19 246.21 253.89 244.95 253.17L216.9 237C216.594 236.783 216.236 236.653 215.862 236.625C215.488 236.597 215.114 236.671 214.78 236.84C214.467 237.047 214.216 237.335 214.053 237.673C213.889 238.01 213.819 238.386 213.85 238.76V366C213.891 366.879 214.142 367.735 214.582 368.497C215.023 369.259 215.639 369.905 216.38 370.38L234.79 381C235.174 381.241 235.616 381.372 236.07 381.38C236.346 381.384 236.619 381.326 236.87 381.21C237.208 381.052 237.496 380.802 237.7 380.49C237.923 380.151 238.073 379.77 238.14 379.37C238.8 376.01 240.84 369.99 247.14 367.46C250.443 366.246 254.051 366.141 257.42 367.16C259.193 367.629 260.915 368.276 262.56 369.09C263.28 369.44 263.94 369.79 264.56 370.09C264.863 370.309 265.22 370.443 265.593 370.478C265.965 370.513 266.341 370.448 266.68 370.29C266.888 370.162 267.062 369.987 267.19 369.78C267.438 369.371 267.56 368.898 267.54 368.42V272.15C267.495 271.263 267.262 270.396 266.857 269.607C266.452 268.817 265.884 268.123 265.19 267.57ZM265.94 369.45C265.693 369.48 265.443 369.427 265.23 369.3L265.06 369.22C262.394 367.656 259.498 366.522 256.48 365.86C253.25 365.101 249.867 365.316 246.76 366.48C240.7 368.92 238.33 374.3 237.41 377.96C237.29 378.39 237.2 378.77 237.13 379.15C237.109 379.373 237.036 379.588 236.916 379.777C236.796 379.967 236.633 380.125 236.44 380.24C236.253 380.304 236.054 380.322 235.859 380.292C235.664 380.263 235.479 380.186 235.32 380.07L216.9 369.46C216.321 369.075 215.838 368.562 215.491 367.96C215.144 367.358 214.942 366.683 214.9 365.99V238.74C214.88 238.553 214.906 238.364 214.975 238.19C215.045 238.016 215.157 237.861 215.3 237.74C215.404 237.684 215.521 237.656 215.64 237.66C215.903 237.674 216.158 237.757 216.38 237.9L244.43 254.1C245.67 254.81 247.61 256.1 248.76 256.91L264.58 268.44C265.136 268.897 265.592 269.465 265.918 270.107C266.245 270.748 266.436 271.451 266.48 272.17V368.46C266.511 368.641 266.496 368.828 266.436 369.003C266.377 369.177 266.275 369.334 266.14 369.46C266.087 369.487 266.029 369.504 265.97 369.51L265.94 369.45Z" fill="black"/>
</g>
<path d="M423.19 365.869C423.19 365.869 408.68 385.929 377.03 404.869C350.76 420.569 322.13 424.239 322.13 424.239L318.39 378.819L419.45 320.459L423.19 365.869Z" fill="#F7C600"/>
<g opacity="0.3">
<path d="M423.19 365.869C423.19 365.869 408.68 385.929 377.03 404.869C350.76 420.569 322.13 424.239 322.13 424.239L318.39 378.819L419.45 320.459L423.19 365.869Z" fill="black"/>
</g>
<path d="M419.45 320.438C419.45 320.438 404.94 340.508 373.29 359.438C347.02 375.138 318.39 378.808 318.39 378.808L298.13 348.998L399.21 290.648L419.45 320.438Z" fill="#F7C600"/>
<path d="M425 359.178C424.82 358.988 424.66 359.019 424.47 359.339C424.47 359.339 409.96 379.399 378.3 398.339C352 413.999 323.39 417.699 323.39 417.699C311.11 418.819 296.07 405.849 296.07 405.849L298.14 404.339C298.14 404.339 312.4 415.139 319.65 415.139C325.9 415.139 348.24 412.299 378.55 395.139C408.86 377.979 422.55 357.229 422.55 357.229C423.092 357.315 423.603 357.539 424.032 357.881C424.461 358.223 424.795 358.67 425 359.178Z" fill="#37474F"/>
<path d="M424.46 359.339C424.46 359.339 409.94 379.399 378.29 398.339C352.03 414.039 323.39 417.709 323.39 417.709C311.11 418.829 296.07 405.879 296.07 405.879V423.199C296.07 423.199 311.07 436.199 323.39 435.039C323.39 435.039 352.03 431.359 378.29 415.669C409.94 396.749 424.46 376.669 424.46 376.669C427 372.379 425.92 356.769 424.46 359.339Z" fill="#455A64"/>
<path d="M331.77 387.889C336.29 386.819 340.38 389.889 340.9 394.719C341.132 397.091 340.515 399.469 339.158 401.428C337.801 403.388 335.792 404.802 333.49 405.419C332.431 405.684 331.326 405.71 330.256 405.495C329.186 405.28 328.178 404.829 327.304 404.174C326.43 403.52 325.714 402.679 325.206 401.713C324.698 400.747 324.413 399.679 324.37 398.589C323.94 393.749 327.25 388.999 331.77 387.889Z" fill="white"/>
<path d="M412.19 341.86C409.44 344.6 407.68 350.47 408.25 354.98C408.82 359.49 411.4 360.91 414 358.15C416.6 355.39 418.36 349.52 417.94 345.03C417.52 340.54 414.93 339.12 412.19 341.86Z" fill="white"/>
<path d="M348.63 382C357.37 379.248 365.759 375.49 373.63 370.8C374.88 370.07 375.88 370.64 375.88 372.08V373.91C375.844 374.699 375.621 375.469 375.23 376.156C374.839 376.842 374.291 377.426 373.63 377.86C365.759 382.55 357.37 386.308 348.63 389.06C348.336 389.171 348.018 389.205 347.706 389.16C347.395 389.115 347.1 388.992 346.849 388.802C346.597 388.613 346.398 388.363 346.269 388.076C346.14 387.789 346.085 387.474 346.11 387.16V385.33C346.142 384.585 346.4 383.867 346.851 383.272C347.301 382.677 347.922 382.233 348.63 382Z" fill="#37474F"/>
<path d="M403 352.26V354.09C402.914 355.731 402.198 357.275 401 358.4C395.019 363.408 388.766 368.082 382.27 372.4C381.07 373.19 380.08 372.65 380.08 371.21V369.4C380.133 368.614 380.357 367.85 380.735 367.159C381.113 366.468 381.637 365.868 382.27 365.4C388.765 361.079 395.017 356.406 401 351.4C402.14 350.41 403 350.82 403 352.26Z" fill="#37474F"/>
<path d="M348.63 394.779C357.369 392.031 365.758 388.275 373.63 383.589C374.88 382.859 375.88 383.419 375.88 384.869V386.699C375.839 387.487 375.614 388.255 375.223 388.941C374.833 389.627 374.287 390.212 373.63 390.649C365.756 395.331 357.367 399.086 348.63 401.839C348.335 401.952 348.016 401.989 347.704 401.945C347.391 401.901 347.095 401.778 346.843 401.588C346.591 401.398 346.391 401.147 346.263 400.858C346.135 400.57 346.082 400.254 346.11 399.939V398.109C346.146 397.365 346.405 396.649 346.855 396.055C347.305 395.46 347.923 395.016 348.63 394.779Z" fill="#37474F"/>
<path d="M403 365.089V366.919C402.912 368.556 402.195 370.097 401 371.219C395.019 376.227 388.766 380.901 382.27 385.219C381.07 386.019 380.08 385.479 380.08 384.029V382.199C380.133 381.413 380.357 380.649 380.735 379.958C381.113 379.267 381.637 378.667 382.27 378.199C388.76 373.872 395.013 369.198 401 364.199C402.14 363.229 403 363.639 403 365.089Z" fill="#37474F"/>
<g opacity="0.15">
<path d="M352.39 330.56C338.948 337.826 325.03 344.174 310.73 349.56C310.429 349.657 310.156 349.825 309.933 350.048C309.709 350.271 309.542 350.544 309.444 350.845C309.347 351.145 309.322 351.465 309.372 351.777C309.421 352.089 309.544 352.384 309.73 352.64L309.8 352.74C310.25 353.357 310.861 353.839 311.567 354.134C312.272 354.428 313.044 354.524 313.8 354.41C319.94 353.07 336.54 348.75 357.17 337.66C357.465 337.507 357.724 337.292 357.93 337.03C358.135 336.768 358.281 336.466 358.359 336.142C358.437 335.819 358.444 335.482 358.38 335.156C358.317 334.829 358.184 334.52 357.99 334.25L356.12 331.47C355.713 330.893 355.111 330.483 354.426 330.316C353.74 330.148 353.017 330.235 352.39 330.56Z" fill="black"/>
</g>
<g opacity="0.15">
<path d="M395.55 300.638C384.815 309.884 373.313 318.2 361.17 325.498C360.878 325.667 360.625 325.895 360.426 326.167C360.227 326.439 360.087 326.75 360.015 327.079C359.942 327.408 359.939 327.749 360.006 328.079C360.072 328.41 360.206 328.723 360.4 328.998L362.29 331.798C362.694 332.377 363.3 332.783 363.989 332.937C364.677 333.091 365.398 332.981 366.01 332.628C384.71 321.358 394.71 311.438 399.29 306.038C399.745 305.441 400.008 304.719 400.042 303.968C400.076 303.218 399.88 302.475 399.48 301.838L398.97 301.078C398.795 300.799 398.56 300.562 398.283 300.384C398.005 300.206 397.691 300.092 397.364 300.049C397.037 300.007 396.705 300.038 396.391 300.14C396.077 300.242 395.79 300.412 395.55 300.638Z" fill="black"/>
</g>
<path d="M399.21 290.6C399.21 290.6 382.51 307.39 354.99 323.41C327.47 339.43 298.14 348.94 298.14 348.94L282.34 272.37L345.5 235.92L374.55 219.16L383.41 214.02L399.21 290.6Z" fill="#455A64"/>
<path d="M383.41 214L374.55 219.13L345.5 235.92L282.34 272.37L298.14 348.94L299.22 348.58L299.44 348.51L300.54 348.13L301 348H301.1H301.2L301.95 347.73L303.12 347.32L304.28 346.9L305.04 346.62L306.04 346.25L309.42 344.97L310.18 344.68C312.89 343.63 315.96 342.41 319.29 341.02L322.57 339.63L323.1 339.4L323.7 339.15C324.39 338.83 325.11 338.53 325.83 338.21L326.45 337.94L327.89 337.29L329.54 336.55C330.74 336.01 331.96 335.44 333.19 334.86C334.42 334.28 335.66 333.69 336.91 333.09C337.85 332.63 338.79 332.17 339.73 331.69L342.01 330.55L342.25 330.43L344.58 329.22L344.77 329.12L346.82 328.04L348.46 327.16C349.793 326.447 351.09 325.727 352.35 325L354.94 323.52L357.3 322C357.97 321.61 358.63 321.2 359.3 320.8C359.55 320.65 359.81 320.5 360.05 320.34C360.8 319.89 361.56 319.42 362.29 318.96L362.56 318.79L363.63 318.11C364.1 317.81 364.55 317.51 365.02 317.22L366.35 316.34L367.67 315.48C368.22 315.12 368.77 314.76 369.3 314.39C370.39 313.65 371.45 312.93 372.49 312.2L372.7 312.05L373.9 311.22C375.48 310.1 377 309 378.44 307.94L379.52 307.13L380.52 306.35L381.52 305.57C382.2 305.06 382.85 304.57 383.52 304.06L383.6 304L384.41 303.37L386.26 301.89L387.43 300.96C387.67 300.76 387.9 300.56 388.13 300.38C388.36 300.2 388.59 299.99 388.81 299.82L389.48 299.27C389.478 299.253 389.478 299.237 389.48 299.22L391 298C392.87 296.42 394.44 295 395.68 293.9C395.836 293.739 396.003 293.589 396.18 293.45L396.28 293.35L396.8 292.87C398.27 291.52 399.07 290.72 399.18 290.61L383.41 214ZM349.36 321C349.365 321.02 349.365 321.04 349.36 321.06C349.34 321.215 349.309 321.369 349.27 321.52V321.65C349.22 321.77 349.18 321.9 349.13 322.02C349.111 322.075 349.087 322.129 349.06 322.18C349.008 322.33 348.941 322.474 348.86 322.61C348.594 323.093 348.233 323.518 347.8 323.86C347.658 323.974 347.504 324.071 347.34 324.15C343.62 326.15 339.9 328.09 336.27 329.86L334.36 330.8C332.833 331.527 331.323 332.233 329.83 332.92L327.75 333.92L324.19 335.5C323.6 335.77 323.02 336.02 322.45 336.26L320.76 336.99C318.52 337.99 316.38 338.83 314.36 339.65C313.29 340.09 312.24 340.5 311.24 340.9L309.77 341.47C307.36 342.4 305.24 343.2 303.45 343.85C302.872 344.085 302.228 344.104 301.637 343.904C301.046 343.704 300.546 343.298 300.23 342.76C300.077 342.477 299.966 342.174 299.9 341.86L290.18 293.44C290.04 292.556 290.16 291.65 290.526 290.834C290.891 290.017 291.487 289.324 292.24 288.84L333.24 265.17C333.548 264.96 333.905 264.831 334.277 264.795C334.649 264.76 335.023 264.82 335.366 264.969C335.709 265.117 336.008 265.351 336.236 265.646C336.464 265.942 336.613 266.291 336.67 266.66L346.38 307.2L349.32 319.48L349.37 319.68V319.83C349.38 319.886 349.38 319.944 349.37 320C349.375 320.057 349.375 320.113 349.37 320.17C349.38 320.29 349.38 320.41 349.37 320.53C349.379 320.687 349.376 320.844 349.36 321ZM385.48 298.52L384.76 299.13C382.37 301.06 379.65 303.13 376.66 305.4C375.66 306.16 374.59 306.92 373.5 307.7L372.33 308.55C370.74 309.69 369.09 310.83 367.33 312L365.63 313.14C365.06 313.53 364.47 313.91 363.88 314.29C363.29 314.67 362.69 315.08 362.09 315.46C359.94 316.85 357.71 318.24 355.41 319.61C355.108 319.825 354.755 319.958 354.386 319.997C354.018 320.036 353.645 319.98 353.304 319.833C352.964 319.686 352.667 319.454 352.442 319.16C352.217 318.865 352.071 318.517 352.02 318.15L351.95 317.85L349 305.61L339.38 265.17C339.211 264.29 339.312 263.379 339.669 262.557C340.026 261.734 340.622 261.038 341.38 260.56L349.15 256.09L380.78 237.79L382.19 236.99L382.31 236.93C382.612 236.744 382.955 236.637 383.31 236.62C383.664 236.603 384.016 236.675 384.335 236.831C384.653 236.987 384.927 237.22 385.131 237.511C385.334 237.801 385.461 238.138 385.5 238.49L395.17 286.49C395.391 287.966 395.059 289.472 394.24 290.72C394.13 290.89 394.01 291.06 393.89 291.21C393.771 291.347 393.644 291.477 393.51 291.6L393 292.06C392.77 292.28 392.53 292.49 392.29 292.7L390.13 294.58C389.36 295.25 388.51 295.97 387.61 296.72L385.72 298.28L385.49 298.46L385.48 298.52Z" fill="#F7C600"/>
<g opacity="0.3">
<path d="M383.41 214L374.55 219.13L345.5 235.92L282.34 272.37L298.14 348.94L299.22 348.58L299.44 348.51L300.54 348.13L301 348H301.1H301.2L301.95 347.73L303.12 347.32L304.28 346.9L305.04 346.62L306.04 346.25L309.42 344.97L310.18 344.68C312.89 343.63 315.96 342.41 319.29 341.02L322.57 339.63L323.1 339.4L323.7 339.15C324.39 338.83 325.11 338.53 325.83 338.21L326.45 337.94L327.89 337.29L329.54 336.55C330.74 336.01 331.96 335.44 333.19 334.86C334.42 334.28 335.66 333.69 336.91 333.09C337.85 332.63 338.79 332.17 339.73 331.69L342.01 330.55L342.25 330.43L344.58 329.22L344.77 329.12L346.82 328.04L348.46 327.16C349.793 326.447 351.09 325.727 352.35 325L354.94 323.52L357.3 322C357.97 321.61 358.63 321.2 359.3 320.8C359.55 320.65 359.81 320.5 360.05 320.34C360.8 319.89 361.56 319.42 362.29 318.96L362.56 318.79L363.63 318.11C364.1 317.81 364.55 317.51 365.02 317.22L366.35 316.34L367.67 315.48C368.22 315.12 368.77 314.76 369.3 314.39C370.39 313.65 371.45 312.93 372.49 312.2L372.7 312.05L373.9 311.22C375.48 310.1 377 309 378.44 307.94L379.52 307.13L380.52 306.35L381.52 305.57C382.2 305.06 382.85 304.57 383.52 304.06L383.6 304L384.41 303.37L386.26 301.89L387.43 300.96C387.67 300.76 387.9 300.56 388.13 300.38C388.36 300.2 388.59 299.99 388.81 299.82L389.48 299.27C389.478 299.253 389.478 299.237 389.48 299.22L391 298C392.87 296.42 394.44 295 395.68 293.9C395.836 293.739 396.003 293.589 396.18 293.45L396.28 293.35L396.8 292.87C398.27 291.52 399.07 290.72 399.18 290.61L383.41 214ZM349.36 321C349.365 321.02 349.365 321.04 349.36 321.06C349.34 321.215 349.309 321.369 349.27 321.52V321.65C349.22 321.77 349.18 321.9 349.13 322.02C349.111 322.075 349.087 322.129 349.06 322.18C349.008 322.33 348.941 322.474 348.86 322.61C348.594 323.093 348.233 323.518 347.8 323.86C347.658 323.974 347.504 324.071 347.34 324.15C343.62 326.15 339.9 328.09 336.27 329.86L334.36 330.8C332.833 331.527 331.323 332.233 329.83 332.92L327.75 333.92L324.19 335.5C323.6 335.77 323.02 336.02 322.45 336.26L320.76 336.99C318.52 337.99 316.38 338.83 314.36 339.65C313.29 340.09 312.24 340.5 311.24 340.9L309.77 341.47C307.36 342.4 305.24 343.2 303.45 343.85C302.872 344.085 302.228 344.104 301.637 343.904C301.046 343.704 300.546 343.298 300.23 342.76C300.077 342.477 299.966 342.174 299.9 341.86L290.18 293.44C290.04 292.556 290.16 291.65 290.526 290.834C290.891 290.017 291.487 289.324 292.24 288.84L333.24 265.17C333.548 264.96 333.905 264.831 334.277 264.795C334.649 264.76 335.023 264.82 335.366 264.969C335.709 265.117 336.008 265.351 336.236 265.646C336.464 265.942 336.613 266.291 336.67 266.66L346.38 307.2L349.32 319.48L349.37 319.68V319.83C349.38 319.886 349.38 319.944 349.37 320C349.375 320.057 349.375 320.113 349.37 320.17C349.38 320.29 349.38 320.41 349.37 320.53C349.379 320.687 349.376 320.844 349.36 321ZM385.48 298.52L384.76 299.13C382.37 301.06 379.65 303.13 376.66 305.4C375.66 306.16 374.59 306.92 373.5 307.7L372.33 308.55C370.74 309.69 369.09 310.83 367.33 312L365.63 313.14C365.06 313.53 364.47 313.91 363.88 314.29C363.29 314.67 362.69 315.08 362.09 315.46C359.94 316.85 357.71 318.24 355.41 319.61C355.108 319.825 354.755 319.958 354.386 319.997C354.018 320.036 353.645 319.98 353.304 319.833C352.964 319.686 352.667 319.454 352.442 319.16C352.217 318.865 352.071 318.517 352.02 318.15L351.95 317.85L349 305.61L339.38 265.17C339.211 264.29 339.312 263.379 339.669 262.557C340.026 261.734 340.622 261.038 341.38 260.56L349.15 256.09L380.78 237.79L382.19 236.99L382.31 236.93C382.612 236.744 382.955 236.637 383.31 236.62C383.664 236.603 384.016 236.675 384.335 236.831C384.653 236.987 384.927 237.22 385.131 237.511C385.334 237.801 385.461 238.138 385.5 238.49L395.17 286.49C395.391 287.966 395.059 289.472 394.24 290.72C394.13 290.89 394.01 291.06 393.89 291.21C393.771 291.347 393.644 291.477 393.51 291.6L393 292.06C392.77 292.28 392.53 292.49 392.29 292.7L390.13 294.58C389.36 295.25 388.51 295.97 387.61 296.72L385.72 298.28L385.49 298.46L385.48 298.52Z" fill="black"/>
</g>
<path d="M290.71 284.759L381.9 232.089C382.488 231.713 382.954 231.175 383.242 230.539C383.529 229.904 383.626 229.198 383.52 228.509L381.86 220.279C381.831 219.995 381.728 219.723 381.561 219.492C381.394 219.26 381.17 219.076 380.909 218.959C380.649 218.841 380.363 218.794 380.078 218.822C379.794 218.85 379.523 218.953 379.29 219.119L288.11 271.789C287.52 272.164 287.052 272.704 286.764 273.342C286.476 273.98 286.381 274.688 286.49 275.379L288.14 283.599C288.169 283.883 288.272 284.154 288.439 284.386C288.606 284.618 288.831 284.801 289.091 284.919C289.352 285.036 289.638 285.083 289.922 285.055C290.206 285.027 290.478 284.925 290.71 284.759Z" fill="#455A64"/>
<path d="M349.3 319.638C349.476 320.505 349.378 321.404 349.019 322.212C348.661 323.021 348.06 323.697 347.3 324.148C333.155 331.741 318.484 338.312 303.4 343.808C303.037 343.954 302.646 344.017 302.256 343.992C301.865 343.966 301.485 343.853 301.145 343.661C300.804 343.469 300.51 343.203 300.286 342.882C300.062 342.561 299.913 342.195 299.85 341.808L299.21 338.618C308.07 332.178 329.59 316.808 346.11 307.268C346.174 307.225 346.241 307.185 346.31 307.148L349.3 319.638Z" fill="#37474F"/>
<path d="M394.28 290.749C394.071 291.086 393.815 291.393 393.52 291.659C381.72 302.159 368.965 311.533 355.42 319.659C355.118 319.874 354.766 320.007 354.397 320.046C354.028 320.085 353.655 320.029 353.315 319.882C352.974 319.735 352.677 319.503 352.452 319.209C352.227 318.914 352.082 318.566 352.03 318.199L349.03 305.629C361.901 298.531 375.297 292.43 389.1 287.379L394.28 290.749Z" fill="#37474F"/>
<path opacity="0.1" d="M387.92 280.36L376.87 274C375.55 273.141 374.452 271.982 373.664 270.618C372.877 269.253 372.423 267.723 372.34 266.15V242.7L380.81 237.8L382.21 236.99C382.25 236.961 382.294 236.937 382.34 236.92L390.34 278.61C390.75 280.58 389.65 281.36 387.92 280.36Z" fill="white"/>
<path opacity="0.1" d="M364.291 247.35V263.59C364.291 265.33 363.081 266.03 361.571 265.16L347.521 257.05L349.191 256.05L364.291 247.35Z" fill="white"/>
<path d="M383.41 214.009L282.34 272.359L247.6 246.829L207.83 223.869L308.9 165.529L348.67 188.489L383.41 214.009Z" fill="#F7C600"/>
<path d="M272 321.049L279.53 316.679C279.779 316.496 280.073 316.384 280.381 316.354C280.689 316.324 280.999 316.378 281.28 316.509L283.06 317.569C283.314 317.746 283.516 317.987 283.644 318.269C283.773 318.551 283.823 318.862 283.79 319.169V337.229C283.744 338.087 283.497 338.922 283.067 339.665C282.638 340.409 282.039 341.041 281.32 341.509L273.79 345.879C273.541 346.063 273.247 346.177 272.939 346.208C272.631 346.24 272.321 346.189 272.04 346.059C271.6 345.799 270.7 345.249 270.26 344.999C270.005 344.821 269.803 344.577 269.675 344.294C269.546 344.011 269.496 343.698 269.53 343.389V325.329C269.576 324.472 269.823 323.637 270.253 322.894C270.682 322.15 271.28 321.518 272 321.049Z" fill="#FAFAFA"/>
<path d="M269.5 325.329V343.399C269.467 343.707 269.518 344.018 269.646 344.299C269.775 344.581 269.976 344.822 270.23 344.999C270.66 345.239 271.34 345.669 271.96 345.999C271.726 345.814 271.543 345.574 271.426 345.299C271.309 345.025 271.262 344.726 271.29 344.429V326.389C271.323 325.546 271.567 324.724 272 323.999L270.2 322.939C269.772 323.666 269.531 324.487 269.5 325.329Z" fill="#E0E0E0"/>
<path d="M281.29 341.508L273.76 345.878C272.4 346.668 271.29 346.028 271.29 344.458V326.398C271.337 325.54 271.585 324.704 272.014 323.959C272.443 323.214 273.041 322.58 273.76 322.108L281.29 317.738C282.65 316.958 283.76 317.588 283.76 319.168V337.228C283.715 338.086 283.467 338.921 283.038 339.664C282.609 340.408 282.01 341.04 281.29 341.508Z" fill="#F0F0F0"/>
<path d="M288 344.508C288.738 344.991 289.351 345.641 289.791 346.406C290.23 347.17 290.484 348.028 290.53 348.908C290.53 350.528 289.4 351.188 288 350.378C287.261 349.897 286.646 349.247 286.207 348.482C285.767 347.717 285.514 346.859 285.47 345.978C285.47 344.358 286.6 343.698 288 344.508Z" fill="#37474F"/>
<path d="M279.1 352.999C278.769 352.995 278.445 352.906 278.16 352.739C277.874 352.577 277.637 352.341 277.474 352.056C277.31 351.771 277.226 351.448 277.23 351.119V332.799C277.218 332.71 277.226 332.62 277.252 332.535C277.279 332.449 277.323 332.37 277.382 332.303C277.441 332.236 277.514 332.182 277.595 332.146C277.677 332.109 277.765 332.09 277.855 332.09C277.944 332.09 278.032 332.109 278.114 332.146C278.195 332.182 278.268 332.236 278.327 332.303C278.386 332.37 278.431 332.449 278.457 332.535C278.483 332.62 278.491 332.71 278.48 332.799V351.139C278.476 351.249 278.503 351.358 278.558 351.453C278.612 351.549 278.693 351.627 278.79 351.679C278.883 351.735 278.99 351.765 279.1 351.765C279.209 351.765 279.316 351.735 279.41 351.679L287.69 346.899C287.76 346.858 287.839 346.831 287.92 346.821C288.001 346.81 288.084 346.816 288.163 346.837C288.242 346.858 288.316 346.895 288.38 346.945C288.445 346.995 288.499 347.058 288.54 347.129C288.62 347.274 288.642 347.445 288.599 347.606C288.556 347.766 288.452 347.904 288.31 347.989L280 352.759C279.724 352.912 279.415 352.995 279.1 352.999Z" fill="#263238"/>
<path d="M97.5806 371.209C97.1643 372.115 96.9986 373.117 97.1006 374.109C97.4574 375.394 97.6192 376.726 97.5806 378.059C97.4206 380.059 96.9906 380.669 96.8406 382.059C96.6223 383.451 96.925 384.876 97.6906 386.059C98.5506 387.349 100.471 388.379 104.001 388.119C106.861 387.909 108.071 386.309 108.071 384.619L97.5806 371.209Z" fill="#263238"/>
<path d="M99.0003 369.519C100.8 370.519 103.74 369.349 105.93 368.179L108.23 354.579L98.2803 352.369L99.0003 369.519Z" fill="#FFA8A7"/>
<path d="M98.2609 367.1C98.1858 367.469 98.1423 367.843 98.1309 368.22C98.0509 368.88 97.8709 369.52 97.7409 370.22C97.7409 370.39 97.6709 370.57 97.6409 370.74C97.5559 372.074 97.5994 373.414 97.7709 374.74C97.7237 376.325 97.5058 377.901 97.1209 379.44C96.5809 382.25 96.5909 384 99.1209 385.83C100.395 386.672 101.923 387.043 103.441 386.88C104.671 386.88 106.371 386.55 106.991 385.88C107.506 385.442 107.859 384.843 107.991 384.18C107.991 381.18 106.781 377.83 106.461 374.89C106.347 374.098 106.296 373.299 106.311 372.5C106.381 371.5 106.681 370.5 106.751 369.5C106.818 369.131 106.758 368.75 106.581 368.42C106.408 368.241 106.199 368.101 105.968 368.008C105.737 367.915 105.49 367.871 105.241 367.88C103.941 367.76 102.641 367.68 101.331 367.63C101.177 367.605 101.02 367.612 100.869 367.65C100.717 367.688 100.575 367.756 100.451 367.85C100.211 368.08 100.221 368.47 100.161 368.8C100.101 369.13 99.8709 369.52 99.5409 369.47C99.4331 369.442 99.3361 369.382 99.2629 369.298C99.1897 369.214 99.1437 369.11 99.1309 369C99.1309 368.78 98.9309 367.07 98.9309 366.85C98.8709 366.87 98.4109 366.81 98.2609 367.1Z" fill="#37474F"/>
<path d="M108.22 383.669C108.219 383.044 108.053 382.43 107.74 381.889C106.29 379.289 99.0104 379.469 96.8304 382.199C96.7694 382.926 96.9086 383.657 97.2329 384.311C97.5573 384.965 98.0544 385.517 98.6704 385.909C99.9304 386.849 101.92 386.979 103.55 386.909C104.821 386.908 106.061 386.525 107.11 385.809C107.464 385.578 107.752 385.26 107.947 384.885C108.141 384.51 108.236 384.091 108.22 383.669Z" fill="#455A64"/>
<path d="M117.72 369.92C119.24 373.21 121.63 371.92 124.72 369.78L126.23 350.09L116.69 352.67L117.72 369.92Z" fill="#FFA8A7"/>
<path d="M137.301 377.429C137.48 377.961 137.447 378.541 137.211 379.049C136.981 379.519 134.501 380.919 131.161 380.699C128.678 380.52 126.286 379.685 124.231 378.279C122.942 377.522 121.466 377.14 119.971 377.179C118.311 377.089 116.141 376.259 115.771 375.479C115.585 374.785 115.606 374.052 115.831 373.369L137.301 377.429Z" fill="#263238"/>
<path d="M125.591 366.999C125.712 367.243 125.819 367.493 125.911 367.749C126.283 368.675 126.886 369.491 127.661 370.119C128.783 370.969 129.998 371.69 131.281 372.269C132.081 372.669 132.941 372.809 133.761 373.129C134.692 373.471 135.587 373.907 136.431 374.429C136.756 374.651 137.023 374.95 137.207 375.298C137.392 375.647 137.488 376.035 137.488 376.429C137.488 376.824 137.392 377.212 137.207 377.561C137.023 377.909 136.756 378.207 136.431 378.429C133.84 379.609 130.909 379.812 128.181 378.999C126.241 378.449 124.091 376.379 121.541 376.179C119.921 376.049 116.861 375.599 115.821 374.369C115.491 372.579 115.951 372.089 116.371 370.599C116.597 369.756 116.734 368.891 116.781 368.019C116.781 367.559 116.551 366.229 117.521 366.109V367.109C117.521 367.109 117.691 367.449 118.691 367.669C119.011 367.739 119.251 368.169 119.411 368.569C119.571 368.969 119.661 369.259 119.981 369.269C120.093 369.262 120.201 369.223 120.293 369.158C120.385 369.092 120.457 369.003 120.501 368.899C120.586 368.691 120.656 368.477 120.711 368.259C120.855 367.92 121.071 367.616 121.344 367.367C121.616 367.119 121.939 366.932 122.291 366.819C122.874 366.65 123.474 366.549 124.081 366.519C124.551 366.469 124.931 366.289 125.331 366.689C125.431 366.781 125.518 366.885 125.591 366.999Z" fill="#37474F"/>
<path d="M116.591 369.539C116.521 369.909 116.451 370.269 116.351 370.629C115.931 372.119 115.471 372.629 115.801 374.399C116.601 375.339 118.591 375.829 120.201 376.059C120.751 372.999 118.841 370.709 116.591 369.539Z" fill="#455A64"/>
<path d="M99.7108 291.369C99.2908 304.119 99.4708 309.229 99.5208 332.679C98.4365 336.275 97.8576 340.004 97.8008 343.759C97.6408 349.629 98.2608 361.759 98.2608 361.759C98.2608 361.759 103.121 364.759 107.261 362.379C107.261 362.379 110.561 344.529 111.831 336.379C112.941 329.189 114.081 318.669 114.081 318.669L115.671 333.619C115.218 337.388 115.127 341.192 115.401 344.979C115.671 348.819 116.721 362.359 116.721 362.359C116.721 362.359 121.121 365.429 125.721 362.969C125.721 362.969 127.881 336.029 127.951 332.539C128.021 328.539 126.471 288.129 126.471 288.129L99.7108 291.369Z" fill="#455A64"/>
<path d="M114.051 318.64L116.461 304.72C116.461 304.72 121.691 304.26 124.591 301.34C124.591 301.34 124.071 304.21 117.491 305.92L115.081 319.92L115.641 333.55L114.051 318.64Z" fill="#263238"/>
<path d="M136.491 374.35C135.737 373.942 134.947 373.607 134.131 373.35C132.661 373.46 131.291 374.133 130.306 375.228C129.32 376.323 128.795 377.757 128.841 379.23C131.373 379.929 134.073 379.698 136.451 378.58C136.786 378.34 137.059 378.024 137.249 377.658C137.439 377.292 137.54 376.887 137.544 376.475C137.548 376.063 137.455 375.655 137.272 375.286C137.089 374.917 136.821 374.596 136.491 374.35Z" fill="#455A64"/>
<path d="M118.12 258.699C120.37 258.639 124.57 258.589 127.49 262.369C129.55 265.029 135.18 271.439 138.35 275.649C140.6 273.419 146.04 268.019 146.95 266.419C147.807 264.92 148.511 263.339 149.05 261.699C149.402 260.743 149.66 259.755 149.82 258.749C150.027 257.511 150.088 256.252 150 254.999C150 253.879 151.66 254.489 152.26 256.289C152.557 257.285 152.695 258.321 152.67 259.359L155.4 258.109C156.4 257.679 159.53 256.659 159.79 258.419C159.761 258.818 159.788 259.218 159.87 259.609C159.966 259.773 160.076 259.927 160.2 260.069C160.407 260.355 160.535 260.691 160.57 261.042C160.605 261.394 160.547 261.748 160.4 262.069C160.243 262.349 160.177 262.67 160.21 262.989C160.274 263.32 160.274 263.659 160.21 263.989C160.097 264.242 159.96 264.483 159.8 264.709C159.643 265.022 159.541 265.361 159.5 265.709C159.462 266.053 159.375 266.39 159.24 266.709C158.88 267.479 157.94 267.639 157.24 267.879C156.128 268.224 155.033 268.624 153.96 269.079C152.2 270.189 147.33 278.529 142.47 283.839C140.8 285.659 139.32 286.789 137.78 286.549C136.53 286.499 135.02 285.329 133.57 284.009C128.94 279.829 121.46 272.009 121.46 272.009C118.34 268.219 117.7 261.269 118.12 258.699Z" fill="#FFA8A7"/>
<path d="M118.12 258.699C120.286 258.402 122.491 258.75 124.46 259.699C126.46 260.699 126.86 261.329 128.75 263.549C130.64 265.769 133.27 269.109 133.27 269.109C133.27 269.109 131.78 275.429 125.63 276.999L117.53 267.589L118.12 258.699Z" fill="#455A64"/>
<path d="M153.89 259.59C152.89 259.9 152.66 260.59 152.7 261.95C152.7 262.78 152.49 264.32 151.59 264.95C152.023 264.899 152.431 264.717 152.76 264.43C153.19 263.99 153.3 263.94 153.54 264.19C153.722 264.351 153.937 264.471 154.17 264.54C154.018 264.716 153.927 264.937 153.91 265.17C153.894 265.402 153.954 265.634 154.08 265.83C154.52 266.54 156.46 266.54 158.08 265.7C158.08 265.7 155.5 266.53 154.89 265.7C154.28 264.87 155.65 263.84 156.67 263.55C156.67 263.55 154.17 264.17 153.78 263.36C153.39 262.55 154.42 261.91 155.89 261.52C155.89 261.52 153.83 261.91 153.47 261.22C153.329 260.944 153.294 260.626 153.371 260.325C153.448 260.025 153.633 259.763 153.89 259.59Z" fill="#F28F8F"/>
<path d="M126 268.439C125.44 264.349 124.9 258.849 118.56 258.599L110.32 258.209C108.32 258.729 99.3201 261.339 99.3201 261.339V274.339C99.3201 274.339 99.6201 279.769 99.9901 286.619C99.9901 286.619 99.2501 294.619 99.3201 297.729C105.18 301.439 120.73 300.379 126.91 296.649C127.2 290.999 126.59 272.489 126 268.439Z" fill="#F7C600"/>
<path d="M115.891 245.219L103.001 244.549C100.551 246.489 96.0006 250.549 96.0006 251.659V252.429C95.992 252.458 95.992 252.489 96.0006 252.519C96.4706 253.379 98.1306 253.879 100.691 253.869C103.691 253.869 108.441 253.479 109.691 252.389C111.521 250.739 115.901 245.949 115.901 245.949H115.251L115.891 245.219Z" fill="#F7C600"/>
<path opacity="0.2" d="M115.891 245.219L103.001 244.549C100.551 246.489 96.0006 250.549 96.0006 251.659V252.429C95.992 252.458 95.992 252.489 96.0006 252.519C96.4706 253.379 98.1306 253.879 100.691 253.869C103.691 253.869 108.441 253.479 109.691 252.389C111.521 250.739 115.901 245.949 115.901 245.949H115.251L115.891 245.219Z" fill="black"/>
<path d="M103.001 245.27C100.431 247.27 95.5707 251.66 96.0507 252.52C96.5307 253.38 98.1807 253.88 100.741 253.87C103.741 253.87 108.491 253.48 109.741 252.39C111.571 250.74 115.951 245.95 115.951 245.95L103.001 245.27Z" fill="#F7C600"/>
<path opacity="0.4" d="M103.001 245.27C100.431 247.27 95.5707 251.66 96.0507 252.52C96.5307 253.38 98.1807 253.88 100.741 253.87C103.741 253.87 108.491 253.48 109.741 252.39C111.571 250.74 115.951 245.95 115.951 245.95L103.001 245.27Z" fill="black"/>
<path d="M103 245.269C103 245.649 104.3 246.399 104.3 246.399L103.88 244.139L103 245.269Z" fill="#F7C600"/>
<path opacity="0.3" d="M103 245.269C103 245.649 104.3 246.399 104.3 246.399L103.88 244.139L103 245.269Z" fill="black"/>
<path d="M123.35 236.81C122.723 235.65 121.832 234.653 120.75 233.9C118.84 232.58 116.37 232.37 114.05 232.46C112.57 232.486 111.1 232.711 109.68 233.13C108.334 233.54 107.106 234.268 106.098 235.251C105.091 236.234 104.334 237.444 103.89 238.78C103.348 240.433 103.175 242.186 103.384 243.914C103.593 245.642 104.179 247.303 105.1 248.78C105.91 250.05 106.43 251.43 107.1 252.78C107.67 253.89 108.1 254.78 108.1 254.78L107.91 251.27L111.25 250.98C112.211 250.817 113.187 250.764 114.16 250.82C115.075 250.863 115.976 250.58 116.7 250.02C118.28 249.014 119.787 247.898 121.21 246.68C122.137 245.938 122.955 245.069 123.64 244.1C123.799 243.875 123.94 243.637 124.06 243.39C124.281 242.971 124.43 242.518 124.5 242.05C124.617 241.39 124.647 240.717 124.59 240.05C124.469 239.363 124.271 238.692 124 238.05C123.806 237.625 123.589 237.211 123.35 236.81Z" fill="#263238"/>
<path d="M114.681 239.709C113.922 239.609 113.17 239.458 112.431 239.259H112.221C111.948 240.094 111.462 240.842 110.811 241.431C110.161 242.021 109.368 242.43 108.511 242.619C108.778 244.017 108.812 245.45 108.611 246.859C108.555 247.163 108.447 247.454 108.291 247.719C108.207 247.847 108.096 247.955 107.967 248.036C107.838 248.118 107.692 248.17 107.541 248.189C107.131 248.189 106.961 247.969 106.831 247.649C106.654 247.238 106.447 246.84 106.211 246.459C106.113 246.29 105.991 246.135 105.851 245.999C105.617 245.752 105.324 245.568 105 245.466C104.675 245.363 104.33 245.345 103.996 245.413C103.663 245.481 103.352 245.633 103.094 245.855C102.836 246.076 102.639 246.36 102.521 246.679C102.201 247.662 102.251 248.728 102.662 249.676C103.072 250.624 103.815 251.39 104.751 251.829C107.321 252.539 107.871 250.829 107.871 250.829L108.371 259.979C109.761 261.429 115.041 263.429 116.561 265.149C117.241 263.979 119.191 261.099 116.621 259.469L116.521 256.679C117.659 256.821 118.808 256.841 119.951 256.739C121.811 256.389 122.731 254.819 123.231 252.739C124.031 249.459 123.931 243.219 123.681 240.739C123.611 239.855 123.481 238.976 123.291 238.109C123.371 238.359 121.531 239.109 121.291 239.109C120.461 239.389 119.602 239.57 118.731 239.649C117.734 239.749 116.732 239.786 115.731 239.759C115.38 239.763 115.029 239.746 114.681 239.709Z" fill="#FFA8A7"/>
<path d="M116.52 256.598C114.587 256.293 112.686 255.815 110.84 255.168C109.97 254.746 109.246 254.074 108.76 253.238C109.01 254.081 109.425 254.866 109.98 255.548C111.09 256.878 116.55 257.478 116.55 257.478L116.52 256.598Z" fill="#F28F8F"/>
<path d="M114.73 245.749C114.73 245.902 114.685 246.052 114.6 246.18C114.515 246.308 114.394 246.408 114.253 246.468C114.111 246.527 113.956 246.544 113.805 246.515C113.654 246.487 113.515 246.414 113.405 246.307C113.296 246.2 113.22 246.063 113.187 245.913C113.155 245.763 113.168 245.607 113.224 245.464C113.28 245.321 113.377 245.198 113.502 245.11C113.628 245.022 113.777 244.973 113.93 244.969C114.034 244.966 114.138 244.985 114.235 245.023C114.332 245.061 114.42 245.118 114.494 245.19C114.569 245.263 114.628 245.35 114.669 245.446C114.709 245.542 114.73 245.645 114.73 245.749Z" fill="#263238"/>
<path d="M113.68 241.92L111.68 242.51C111.605 242.244 111.636 241.96 111.766 241.718C111.897 241.475 112.117 241.293 112.38 241.21C112.512 241.164 112.652 241.146 112.791 241.158C112.93 241.169 113.065 241.21 113.187 241.277C113.31 241.344 113.417 241.435 113.502 241.546C113.586 241.657 113.647 241.784 113.68 241.92Z" fill="#263238"/>
<path d="M115 251.189L117.88 252.189C117.824 252.381 117.729 252.56 117.602 252.714C117.475 252.869 117.318 252.997 117.141 253.09C116.964 253.183 116.77 253.24 116.571 253.257C116.372 253.274 116.171 253.251 115.98 253.189C115.586 253.053 115.262 252.766 115.078 252.391C114.895 252.017 114.867 251.585 115 251.189Z" fill="#B16668"/>
<path d="M115.341 251.789C115.215 251.789 115.09 251.809 114.971 251.849C114.998 252.139 115.107 252.415 115.284 252.647C115.46 252.878 115.698 253.056 115.971 253.159C116.176 253.231 116.395 253.255 116.611 253.229C116.615 253.193 116.615 253.156 116.611 253.119C116.614 252.776 116.483 252.445 116.245 252.197C116.008 251.948 115.684 251.802 115.341 251.789Z" fill="#F28F8F"/>
<path d="M123 242.349L121.13 241.639C121.226 241.399 121.411 241.207 121.645 241.101C121.88 240.994 122.147 240.983 122.39 241.069C122.514 241.112 122.629 241.18 122.727 241.268C122.825 241.356 122.904 241.463 122.961 241.582C123.018 241.701 123.05 241.83 123.057 241.961C123.064 242.093 123.044 242.224 123 242.349Z" fill="#263238"/>
<path d="M110.861 243.09L104.311 245.34C104.676 245.341 105.037 245.427 105.363 245.592C105.689 245.757 105.973 245.996 106.191 246.29L110.831 244.53L110.861 243.09Z" fill="#37474F"/>
<path d="M121.88 245.62C121.878 245.773 121.831 245.921 121.746 246.047C121.66 246.174 121.539 246.272 121.398 246.33C121.257 246.389 121.103 246.404 120.953 246.375C120.803 246.347 120.665 246.274 120.556 246.168C120.447 246.061 120.371 245.925 120.338 245.776C120.306 245.627 120.318 245.472 120.372 245.33C120.427 245.187 120.522 245.064 120.646 244.975C120.77 244.886 120.918 244.836 121.07 244.83C121.175 244.829 121.28 244.848 121.377 244.887C121.475 244.926 121.564 244.984 121.639 245.057C121.714 245.131 121.774 245.218 121.816 245.315C121.857 245.411 121.879 245.515 121.88 245.62Z" fill="#263238"/>
<path d="M125.4 242.769L124.98 242.719C123.548 242.55 122.097 242.624 120.69 242.939C119.32 243.389 118.83 243.869 118.07 243.889C117.31 243.909 116.76 243.439 115.31 243.039C113.797 242.792 112.253 242.792 110.74 243.039C110.58 243.039 110.42 243.039 110.28 243.099C110.117 243.151 109.976 243.256 109.879 243.397C109.783 243.539 109.738 243.709 109.75 243.879C109.797 244.214 109.947 244.525 110.18 244.769C110.245 244.882 110.292 245.003 110.32 245.129C110.421 245.965 110.591 246.792 110.83 247.599C110.968 247.926 111.161 248.227 111.4 248.489C111.493 248.58 111.594 248.664 111.7 248.739L111.87 248.859C112.031 248.957 112.202 249.037 112.38 249.099H112.46H112.6H112.74C112.888 249.13 113.039 249.15 113.19 249.159H113.63C114.289 249.201 114.944 249.04 115.509 248.698C116.073 248.357 116.52 247.852 116.79 247.249C117.28 246.299 117.18 244.979 118.05 244.959H118.21C118.84 245.099 118.74 246.319 119.13 247.189C119.278 247.536 119.481 247.857 119.73 248.139C119.772 248.191 119.819 248.238 119.87 248.279L119.95 248.349C119.972 248.378 119.999 248.401 120.03 248.419L120.1 248.469L120.18 248.529H120.24H120.29C120.522 248.659 120.771 248.757 121.03 248.819H121.1C121.399 248.884 121.705 248.911 122.01 248.899C122.587 248.923 123.157 248.765 123.64 248.447C124.123 248.13 124.493 247.669 124.7 247.129C124.96 246.313 125.154 245.477 125.28 244.629C125.31 244.507 125.368 244.394 125.45 244.299C125.674 244.039 125.816 243.72 125.86 243.379C125.89 243.149 125.64 242.789 125.4 242.769ZM116.32 246.449C116.213 246.939 115.982 247.394 115.65 247.769C115.382 248.039 115.059 248.248 114.704 248.384C114.349 248.52 113.97 248.58 113.59 248.559C113.205 248.595 112.818 248.529 112.467 248.367C112.116 248.206 111.813 247.955 111.59 247.639L111.53 247.539C111.48 247.449 111.48 247.449 111.43 247.359C111.427 247.336 111.427 247.313 111.43 247.289V247.219C111.428 247.203 111.428 247.186 111.43 247.169C111.426 247.136 111.426 247.103 111.43 247.069C111.43 246.979 111.36 246.889 111.33 246.799C111.33 246.799 111.33 246.689 111.33 246.639C111.303 246.551 111.283 246.461 111.27 246.369V246.269C111.13 245.619 110.99 244.329 111.27 244.029C112.045 243.555 112.965 243.378 113.86 243.529H114.01C114.22 243.529 114.43 243.589 114.64 243.629L114.89 243.689C115.101 243.739 115.308 243.803 115.51 243.879L115.7 243.959L115.9 244.059H115.98C116.138 244.144 116.278 244.26 116.39 244.399C116.608 245.07 116.584 245.795 116.32 246.449ZM124.49 246.019C124.432 246.452 124.28 246.867 124.045 247.234C123.81 247.602 123.498 247.915 123.13 248.149C122.816 248.297 122.476 248.382 122.13 248.399C121.726 248.442 121.318 248.371 120.953 248.194C120.587 248.018 120.278 247.742 120.06 247.399V247.339V247.269C120.048 247.231 120.031 247.194 120.01 247.159V247.039V246.979C120.01 246.979 120.01 246.979 120.01 246.929C119.955 246.773 119.915 246.613 119.89 246.449C119.7 245.791 119.728 245.09 119.97 244.449C120.61 243.878 121.416 243.527 122.27 243.449L122.92 243.389H123.48H123.66L123.98 243.439H124.05H124.11H124.18H124.27L124.43 243.499C124.557 243.55 124.672 243.625 124.77 243.719C124.83 244.059 124.64 245.359 124.49 245.999V246.019Z" fill="#263238"/>
<path d="M117.811 245.08L117.961 250.53L120.961 249.65L118.161 245C118.039 244.999 117.919 245.027 117.811 245.08Z" fill="#F28F8F"/>
<path d="M102.37 242.149C102.418 243.237 102.627 244.312 102.99 245.339C103.196 244.996 103.452 244.686 103.75 244.419C105.447 242.945 107.39 241.781 109.49 240.979C114.268 238.954 119.598 238.64 124.58 240.089C124.483 239.157 124.261 238.242 123.92 237.369C122.17 233.089 118.77 230.899 113.43 231.559C107.17 232.349 102.07 235.939 102.37 242.149Z" fill="#F7C600"/>
<path d="M113.771 238.079C115.798 237.49 117.92 237.296 120.021 237.509C120.521 237.074 120.953 236.565 121.301 235.999C121.791 235.189 121.601 234.169 121.111 233.999C120.621 233.829 120.611 234.429 118.781 235.379C119.014 234.784 119.056 234.13 118.901 233.509C118.581 232.769 117.971 234.129 116.621 235.029C115.271 235.929 113.911 236.409 113.771 238.079Z" fill="#263238"/>
<path d="M116.56 265.069C115.56 264.439 113.34 263.349 112.2 264.559C111.06 265.769 110.46 266.119 109.71 265.899C108.96 265.679 106.59 263.239 105.71 261.899C104.71 260.369 104.95 259.749 104.95 259.749L106.82 257.289C107.34 256.599 107.51 256.519 108.17 256.469L108.26 258.289C108.336 258.737 108.5 259.165 108.742 259.549C108.984 259.934 109.299 260.267 109.67 260.529C111.53 261.799 115.19 262.139 116.56 265.069Z" fill="#455A64"/>
<path d="M116.561 265.069C117.171 264.499 118.561 263.069 119.561 263.379C120.561 263.689 121.021 264.269 121.041 263.729C120.72 262.427 120.16 261.197 119.391 260.099C118.72 259.042 117.748 258.209 116.601 257.709L116.661 259.389C116.661 259.389 117.861 260.909 117.721 261.819C117.581 262.729 116.681 264.179 116.561 265.069Z" fill="#455A64"/>
<path d="M142.641 280.67L120.931 284.39L112.351 310.16L133.031 306.08L142.641 280.67Z" fill="#263238"/>
<path opacity="0.15" d="M124.16 299.791C123.926 300.643 123.47 301.417 122.84 302.035C122.209 302.653 121.426 303.094 120.57 303.311C118.635 303.676 116.638 303.51 114.79 302.831L115.51 300.681L124.16 299.791Z" fill="black"/>
<path opacity="0.15" d="M136.091 283.931L136.341 283.141C136.471 282.701 135.231 282.571 133.561 282.851L130.361 283.391C128.691 283.671 127.231 284.251 127.091 284.691L126.851 285.481L136.091 283.931Z" fill="black"/>
<path d="M137.83 281.001C137.91 280.731 137.42 280.611 136.72 280.741L135.45 280.971C135.45 280.971 135.97 279.251 133.17 279.621C132.426 279.664 131.706 279.9 131.081 280.305C130.455 280.709 129.945 281.27 129.6 281.931L128.24 282.191C127.651 282.242 127.101 282.505 126.69 282.931L126.49 283.421L137.67 281.511C137.67 281.511 137.74 281.281 137.83 281.001Z" fill="#F7C600"/>
<path opacity="0.3" d="M137.83 281.001C137.91 280.731 137.42 280.611 136.72 280.741L135.45 280.971C135.45 280.971 135.97 279.251 133.17 279.621C132.426 279.664 131.706 279.9 131.081 280.305C130.455 280.709 129.945 281.27 129.6 281.931L128.24 282.191C127.651 282.242 127.101 282.505 126.69 282.931L126.49 283.421L137.67 281.511C137.67 281.511 137.74 281.281 137.83 281.001Z" fill="black"/>
<path d="M127.22 284.769C127.33 284.409 128.37 283.949 129.67 283.639V283.519C129.78 283.129 129.67 282.889 128.84 283.019V282.709L136.58 281.439L136.24 281.749C135.24 281.909 134.79 281.999 134.58 282.679L134.53 282.829C135.74 282.719 136.53 282.829 136.45 283.229L136.2 284.019L127 285.569L127.22 284.769Z" fill="#F7C600"/>
<path opacity="0.4" d="M127.22 284.769C127.33 284.409 128.37 283.949 129.67 283.639V283.519C129.78 283.129 129.67 282.889 128.84 283.019V282.709L136.58 281.439L136.24 281.749C135.24 281.909 134.79 281.999 134.58 282.679L134.53 282.829C135.74 282.719 136.53 282.829 136.45 283.229L136.2 284.019L127 285.569L127.22 284.769Z" fill="black"/>
<path d="M117.09 295.93C119.71 296.88 122.66 296.64 125.41 296.73C125.67 296.73 125.99 296.73 126.1 297.02C126.129 297.135 126.121 297.257 126.078 297.368C126.035 297.479 125.959 297.574 125.86 297.64C125.66 297.772 125.479 297.93 125.32 298.11C125.11 298.42 125.19 298.83 125.13 299.2C124.986 299.735 124.687 300.215 124.27 300.58C123.872 301.057 123.407 301.475 122.89 301.82C120.964 302.739 118.788 302.996 116.7 302.55C115.408 302.268 114.145 301.863 112.93 301.34C111.77 300.88 104.74 298.62 103.93 298.34C97.7303 296.01 89.1903 293.13 88.7503 290.16C88.3103 287.19 90.8803 277.41 92.1803 269.9C93.4203 262.77 96.0702 261.9 100.09 261.17C101.487 263.174 102.31 265.521 102.471 267.958C102.631 270.396 102.123 272.83 101 275L98.3903 286.59C102.461 289.217 106.671 291.624 111 293.8C111.831 293.94 112.685 293.868 113.48 293.59C114.955 293.15 116.506 293.03 118.03 293.24" fill="#FFA8A7"/>
<path d="M100.24 261.08C96.0001 261.56 94.0001 262.6 93.0001 266C92.0001 269.4 90.3701 277.48 90.3701 277.48C93.1301 280.03 96.8801 280.48 100.02 280.54L101.43 274.87C102.47 272.6 104.37 266.05 100.24 261.08Z" fill="#455A64"/>
</g>
<defs>
<filter id="filter0_d_5560_203485" x="-4" y="0" width="508" height="508" filterUnits="userSpaceOnUse" color-interpolation-filters="sRGB">
<feFlood flood-opacity="0" result="BackgroundImageFix"/>
<feColorMatrix in="SourceAlpha" type="matrix" values="0 0 0 0 0 0 0 0 0 0 0 0 0 0 0 0 0 0 127 0" result="hardAlpha"/>
<feOffset dy="4"/>
<feGaussianBlur stdDeviation="2"/>
<feComposite in2="hardAlpha" operator="out"/>
<feColorMatrix type="matrix" values="0 0 0 0 0 0 0 0 0 0 0 0 0 0 0 0 0 0 0.25 0"/>
<feBlend mode="normal" in2="BackgroundImageFix" result="effect1_dropShadow_5560_203485"/>
<feBlend mode="normal" in="SourceGraphic" in2="effect1_dropShadow_5560_203485" result="shape"/>
</filter>
</defs>
</svg>
